<svg width="30" height="30" viewBox="0 0 30 30" fill="none" xmlns="http://www.w3.org/2000/svg">
<path d="M15.0022 26.875C13.3597 26.875 11.8158 26.5633 10.3706 25.94C8.92542 25.3167 7.66833 24.4707 6.59937 23.4022C5.53042 22.3336 4.68406 21.0771 4.06031 19.6325C3.43677 18.1879 3.125 16.6445 3.125 15.0022C3.125 13.3597 3.43667 11.8158 4.06 10.3706C4.68333 8.92542 5.52927 7.66833 6.59781 6.59937C7.66635 5.53042 8.92292 4.68406 10.3675 4.06031C11.8121 3.43677 13.3555 3.125 14.9978 3.125C16.6403 3.125 18.1842 3.43667 19.6294 4.06C21.0746 4.68333 22.3317 5.52927 23.4006 6.59781C24.4696 7.66635 25.3159 8.92292 25.9397 10.3675C26.5632 11.8121 26.875 13.3555 26.875 14.9978C26.875 16.6403 26.5633 18.1842 25.94 19.6294C25.3167 21.0746 24.4707 22.3317 23.4022 23.4006C22.3336 24.4696 21.0771 25.3159 19.6325 25.9397C18.1879 26.5632 16.6445 26.875 15.0022 26.875ZM15 25C17.7917 25 20.1562 24.0312 22.0938 22.0938C24.0312 20.1562 25 17.7917 25 15C25 14.8542 24.9968 14.7051 24.9903 14.5528C24.9839 14.4005 24.9767 14.2644 24.9688 14.1444C24.8885 14.7244 24.6373 15.2043 24.215 15.5841C23.7929 15.9639 23.2853 16.1538 22.6922 16.1538H19.8556C19.221 16.1538 18.6778 15.928 18.2259 15.4766C17.7741 15.0249 17.5481 14.482 17.5481 13.8478V12.6947H12.9328V10.3888C12.9328 9.75458 13.1588 9.21073 13.6106 8.75719C14.0625 8.30365 14.6057 8.07688 15.2403 8.07688H16.3944V7.59625C16.3944 7.05292 16.5586 6.60292 16.8872 6.24625C17.2155 5.88979 17.6114 5.64104 18.0747 5.5C17.5857 5.33979 17.0873 5.21635 16.5794 5.12969C16.0715 5.04323 15.545 5 15 5C12.2083 5 9.84375 5.96875 7.90625 7.90625C5.96875 9.84375 5 12.2083 5 15V15.1803C5 15.2364 5.00396 15.2965 5.01188 15.3606H10.9375C12.2162 15.3606 13.3052 15.8101 14.2044 16.7091C15.1033 17.6082 15.5528 18.6954 15.5528 19.9706V21.1297H12.0913V24.5553C12.556 24.6995 13.0296 24.8097 13.5119 24.8859C13.9944 24.962 14.4904 25 15 25Z" fill="white"/>
</svg>
