<svg width="18" height="18" viewBox="0 0 18 18" fill="none" xmlns="http://www.w3.org/2000/svg">
<path d="M6.54785 16.1242C7.51695 14.4569 9.73642 14.2604 11.0005 15.5344C11.2831 15.8192 11.4244 15.9617 11.5497 15.9788C11.675 15.9958 12.4614 15.5448 12.7405 15.3847C13.0251 15.2216 13.814 14.7691 13.8636 14.6507C13.9132 14.5323 13.8613 14.3305 13.7575 13.9268C13.3799 12.459 14.2954 10.9143 15.7582 10.5158C16.1497 10.4092 16.3453 10.3559 16.4227 10.2539C16.5 10.152 16.5 9.25559 16.5 8.92765C16.5 8.59971 16.5 7.70327 16.4227 7.6013C16.3453 7.49941 16.1497 7.44608 15.7582 7.33949C14.2952 6.94105 13.3789 5.39632 13.7563 3.92842C13.8601 3.5247 13.912 3.32284 13.8624 3.20447C13.8128 3.08611 13.0239 2.63363 12.7394 2.47049C12.4602 2.31039 11.6738 1.85943 11.5486 1.87647C11.4232 1.89352 11.2819 2.03594 10.9993 2.32079C9.9048 3.42361 8.094 3.42365 6.99957 2.32086C6.71689 2.03602 6.57554 1.89359 6.45026 1.87655C6.32497 1.8595 5.53862 2.31047 5.25945 2.47057C4.97495 2.63373 4.18594 3.0862 4.13637 3.20458C4.0868 3.32296 4.13872 3.52479 4.24254 3.92847C4.62006 5.39632 3.70455 6.94102 2.24177 7.33948C1.85033 7.44608 1.65461 7.49941 1.57731 7.60138C1.5 7.70327 1.5 8.59971 1.5 8.92765C1.5 9.25559 1.5 10.152 1.57731 10.254C1.65463 10.356 1.85025 10.4092 2.2415 10.5157C2.24609 10.517 2.25067 10.5183 2.25525 10.5195" stroke="url(#paint0_linear_175612_7310)" stroke-linecap="round"/>
<path d="M1.86668 13.6367C2.67668 12.827 5.43068 10.1012 5.70068 9.78629C5.98611 9.45342 5.75468 9.00361 5.89238 7.60918C5.95901 6.93446 6.10421 6.42898 6.51969 6.05282C7.01468 5.58501 7.41968 5.58501 8.81468 5.55353C10.0297 5.58501 10.1737 5.45007 10.2997 5.76494C10.3897 5.98985 10.1197 6.12479 9.79568 6.48465C9.07568 7.20435 8.65268 7.5642 8.61218 7.78911C8.31968 8.7787 9.47168 9.36346 10.1017 8.73372C10.3399 8.49558 11.4427 7.38428 11.5507 7.29431C11.6317 7.22234 11.8256 7.22582 11.9197 7.33929C12.0007 7.41884 12.0097 7.42926 12.0007 7.78911C11.9924 8.12221 11.9961 8.6004 11.9971 9.09357C11.9984 9.73255 11.9647 10.443 11.6947 10.8029C11.1547 11.6125 10.2547 11.6575 9.44468 11.6935C8.67968 11.7385 8.04968 11.6575 7.85168 11.8015C7.68968 11.8824 6.83468 12.7821 5.79968 13.8166L3.95468 15.6609C2.42468 16.8754 0.741683 14.9861 1.86668 13.6367Z" stroke="url(#paint1_linear_175612_7310)" stroke-linecap="round"/>
<defs>
<linearGradient id="paint0_linear_175612_7310" x1="2.81161" y1="12.384" x2="15.5348" y2="11.9615" gradientUnits="userSpaceOnUse">
<stop stop-color="#6B7CFF"/>
<stop offset="1" stop-color="#D4D9FF"/>
</linearGradient>
<linearGradient id="paint1_linear_175612_7310" x1="2.41843" y1="13.2945" x2="11.3286" y2="13.0133" gradientUnits="userSpaceOnUse">
<stop stop-color="#6B7CFF"/>
<stop offset="1" stop-color="#D4D9FF"/>
</linearGradient>
</defs>
</svg>
