<svg width="16" height="16" viewBox="0 0 16 16" fill="none" xmlns="http://www.w3.org/2000/svg">
<g clip-path="url(#clip0_175688_8971)">
<path d="M8.00131 15.3327C6.55091 15.3327 5.13308 14.9026 3.92712 14.0968C2.72116 13.291 1.78123 12.1457 1.22619 10.8057C0.671146 9.46571 0.525922 7.99122 0.80888 6.56869C1.09184 5.14616 1.79027 3.83949 2.81586 2.8139C3.84144 1.78832 5.14812 1.08989 6.57064 0.806927C7.99317 0.523969 9.46766 0.669193 10.8077 1.22424C12.1476 1.77928 13.293 2.71921 14.0988 3.92517C14.9045 5.13113 15.3346 6.54896 15.3346 7.99935C15.3346 9.94427 14.562 11.8095 13.1868 13.1848C11.8115 14.5601 9.94623 15.3327 8.00131 15.3327ZM8.00131 1.99935C6.81462 1.99935 5.65458 2.35125 4.66788 3.01053C3.68119 3.66982 2.91215 4.6069 2.45803 5.70325C2.0039 6.79961 1.88508 8.00601 2.11659 9.16989C2.34811 10.3338 2.91955 11.4029 3.75866 12.242C4.59778 13.0811 5.66688 13.6526 6.83076 13.8841C7.99465 14.1156 9.20105 13.9968 10.2974 13.5426C11.3938 13.0885 12.3308 12.3195 12.9901 11.3328C13.6494 10.3461 14.0013 9.18604 14.0013 7.99935C14.0013 6.40805 13.3692 4.88193 12.2439 3.75671C11.1187 2.63149 9.5926 1.99935 8.00131 1.99935ZM9.94797 10.7194C9.86023 10.7199 9.77326 10.703 9.69203 10.6699C9.61081 10.6367 9.53693 10.5878 9.47464 10.526L7.52797 8.57269C7.40481 8.44851 7.33538 8.28091 7.33464 8.10602V3.99935C7.33464 3.82254 7.40488 3.65297 7.5299 3.52795C7.65493 3.40292 7.82449 3.33269 8.00131 3.33269C8.17812 3.33269 8.34769 3.40292 8.47271 3.52795C8.59773 3.65297 8.66797 3.82254 8.66797 3.99935V7.82602L10.4213 9.57935C10.4838 9.64133 10.5334 9.71506 10.5672 9.7963C10.6011 9.87754 10.6185 9.96468 10.6185 10.0527C10.6185 10.1407 10.6011 10.2278 10.5672 10.3091C10.5334 10.3903 10.4838 10.464 10.4213 10.526C10.359 10.5878 10.2851 10.6367 10.2039 10.6699C10.1227 10.703 10.0357 10.7199 9.94797 10.7194Z" fill="#3B44FF"/>
</g>
<defs>
<clipPath id="clip0_175688_8971">
<rect width="16" height="16" fill="white"/>
</clipPath>
</defs>
</svg>
