<svg width="18" height="24" viewBox="0 0 18 24" fill="none" xmlns="http://www.w3.org/2000/svg">
<path d="M4.66018 12.842H4.08648C2.23181 12.842 1.30448 12.842 0.909199 12.2305C0.513922 11.6191 0.890548 10.7673 1.6438 9.06353L3.90835 3.94154C4.59321 2.3925 4.93565 1.61798 5.59996 1.18399C6.26428 0.75 7.10742 0.75 8.7937 0.75H11.4055C13.454 0.75 14.4782 0.75 14.8646 1.41919C15.2509 2.08838 14.7427 2.98235 13.7264 4.77028L12.3865 7.12734C11.8812 8.01619 11.6286 8.46061 11.6321 8.8244C11.6367 9.29718 11.8882 9.73274 12.2942 9.9713C12.6067 10.1549 13.1159 10.1549 14.1343 10.1549C15.4216 10.1549 16.0653 10.1549 16.4006 10.3777C16.8362 10.6672 17.0641 11.1852 16.9842 11.704C16.9227 12.1032 16.4897 12.582 15.6238 13.5396L8.70483 21.1904C7.34587 22.6931 6.66638 23.4445 6.21009 23.2067C5.75379 22.9689 5.97291 21.9777 6.41116 19.9952L7.26959 16.112C7.60329 14.6025 7.77014 13.8477 7.36887 13.3448C6.9676 12.842 6.19846 12.842 4.66018 12.842Z" stroke="white" stroke-width="1.5" stroke-linejoin="round"/>
</svg>
