<svg width="32" height="32" viewBox="0 0 32 32" fill="none" xmlns="http://www.w3.org/2000/svg">
<path d="M24 24.334C24.5522 24.334 24.9998 24.7818 25 25.334C25 27.0213 23.6584 28.2806 22.1045 29.0576C20.4907 29.8645 18.3307 30.334 16 30.334C13.6693 30.334 11.5093 29.8645 9.89551 29.0576C8.34156 28.2806 7 27.0213 7 25.334C7.00018 24.7818 7.44782 24.334 8 24.334C8.55218 24.334 8.99982 24.7818 9 25.334C9 25.8557 9.44875 26.5979 10.79 27.2686C12.0716 27.9094 13.9124 28.334 16 28.334C18.0876 28.334 19.9284 27.9094 21.21 27.2686C22.5512 26.5979 23 25.8557 23 25.334C23.0002 24.7818 23.4478 24.334 24 24.334ZM16 1.66797C21.689 1.66797 26.333 6.19821 26.333 11.8262C26.3329 14.802 24.9538 17.0814 23.2656 19.0225C22.4255 19.9884 21.4857 20.8962 20.582 21.7676L20.5488 21.7998C19.6458 22.6706 18.7794 23.5064 18.0117 24.3789C16.9649 25.5682 15.0304 25.5273 14.0166 24.3369C13.2578 23.4459 12.3883 22.6052 11.4756 21.7344C11.4161 21.6776 11.3567 21.6205 11.2969 21.5635C10.451 20.7571 9.57154 19.9202 8.78027 19.0332C7.07272 17.119 5.66711 14.8596 5.66699 11.8262C5.66699 6.19821 10.311 1.66797 16 1.66797ZM16 3.66797C11.3797 3.66797 7.66699 7.33834 7.66699 11.8262C7.66711 14.1619 8.72241 15.9624 10.2734 17.7012C11.0086 18.5253 11.8316 19.31 12.6914 20.1299C12.7462 20.1822 12.8013 20.2345 12.8564 20.2871C13.7634 21.1524 14.7041 22.0597 15.5391 23.04C15.7764 23.3187 16.2828 23.3167 16.5107 23.0576C17.3333 22.1227 18.2506 21.2383 19.1338 20.3867L19.1943 20.3281C20.1077 19.4474 20.9837 18.5989 21.7568 17.71C23.2951 15.9413 24.3329 14.115 24.333 11.8262C24.333 7.33834 20.6203 3.66797 16 3.66797ZM16 7.66797C18.3932 7.66797 20.333 9.60774 20.333 12.001C20.333 14.3942 18.3932 16.334 16 16.334C13.6068 16.334 11.667 14.3942 11.667 12.001C11.667 9.60774 13.6068 7.66797 16 7.66797ZM16 9.66797C14.7113 9.66797 13.667 10.7123 13.667 12.001C13.667 13.2896 14.7113 14.334 16 14.334C17.2887 14.334 18.333 13.2896 18.333 12.001C18.333 10.7123 17.2887 9.66797 16 9.66797Z" fill="white"/>
</svg>
