<svg width="50" height="50" viewBox="0 0 50 50" fill="none" xmlns="http://www.w3.org/2000/svg">
<g filter="url(#filter0_iii_18_5684)">
<rect width="50" height="50" fill="url(#paint0_linear_18_5684)"/>
<rect x="0.25" y="0.25" width="49.5" height="49.5" stroke="#3B44FF" stroke-opacity="0.2" stroke-width="0.5"/>
<path opacity="0.2" d="M30 25C30 25.89 29.7361 26.76 29.2416 27.5001C28.7471 28.2401 28.0443 28.8169 27.2221 29.1575C26.3998 29.4981 25.495 29.5872 24.6221 29.4135C23.7492 29.2399 22.9474 28.8113 22.318 28.182C21.6887 27.5526 21.2601 26.7508 21.0865 25.8779C20.9128 25.005 21.0019 24.1002 21.3425 23.2779C21.6831 22.4557 22.2599 21.7529 22.9999 21.2584C23.74 20.7639 24.61 20.5 25.5 20.5C26.6935 20.5 27.8381 20.9741 28.682 21.818C29.5259 22.6619 30 23.8065 30 25Z" fill="white"/>
<path d="M34.3004 20.7961C35.3412 22.9728 35.5387 25.4579 34.855 27.7717C34.1713 30.0855 32.6547 32.064 30.598 33.3253C28.5413 34.5867 26.0902 35.0416 23.7179 34.602C21.3456 34.1625 19.2201 32.8598 17.7518 30.9454C16.2834 29.0309 15.5763 26.6405 15.7668 24.2353C15.9573 21.8301 17.032 19.5808 18.7835 17.9214C20.5349 16.262 22.8389 15.3102 25.2509 15.2497C27.6628 15.1891 30.0117 16.0242 31.8442 17.5936L33.9695 15.4674C34.1102 15.3267 34.3011 15.2476 34.5001 15.2476C34.6991 15.2476 34.89 15.3267 35.0307 15.4674C35.1715 15.6081 35.2505 15.799 35.2505 15.998C35.2505 16.197 35.1715 16.3879 35.0307 16.5286L26.0307 25.5286C25.89 25.6694 25.6991 25.7484 25.5001 25.7484C25.3011 25.7484 25.1102 25.6694 24.9695 25.5286C24.8288 25.3879 24.7497 25.197 24.7497 24.998C24.7497 24.799 24.8288 24.6081 24.9695 24.4674L27.5682 21.8686C26.8639 21.4028 26.0231 21.1884 25.1817 21.26C24.3404 21.3315 23.5478 21.685 22.9323 22.2631C22.3168 22.8411 21.9145 23.61 21.7903 24.4452C21.6662 25.2805 21.8276 26.1331 22.2484 26.8652C22.6692 27.5973 23.3247 28.1659 24.1089 28.4791C24.8931 28.7922 25.76 28.8315 26.5693 28.5907C27.3786 28.3498 28.0829 27.8428 28.5683 27.1519C29.0536 26.4609 29.2915 25.6263 29.2435 24.7833C29.238 24.6848 29.2519 24.5862 29.2845 24.4931C29.3171 24.4 29.3677 24.3142 29.4334 24.2406C29.4991 24.1671 29.5787 24.1072 29.6676 24.0644C29.7564 24.0216 29.8529 23.9967 29.9514 23.9911C30.1503 23.9799 30.3455 24.0482 30.494 24.181C30.5676 24.2467 30.6275 24.3263 30.6703 24.4151C30.7131 24.504 30.738 24.6005 30.7435 24.6989C30.8119 25.8922 30.4711 27.073 29.7774 28.0463C29.0838 29.0196 28.0788 29.7271 26.9285 30.0518C25.7783 30.3765 24.5517 30.2991 23.4515 29.8322C22.3512 29.3654 21.4432 28.5371 20.8775 27.4843C20.3118 26.4315 20.1222 25.2171 20.3402 24.042C20.5581 22.8668 21.1705 21.8012 22.0761 21.0213C22.9817 20.2413 24.1264 19.7937 25.3208 19.7524C26.5153 19.7112 27.6881 20.0787 28.6454 20.7943L30.7782 18.6614C29.2152 17.3638 27.2279 16.6893 25.1979 16.7676C23.1679 16.8459 21.2384 17.6714 19.78 19.0856C18.3216 20.4999 17.4371 22.403 17.2965 24.4297C17.1558 26.4563 17.7688 28.4634 19.0178 30.0656C20.2668 31.6678 22.0637 32.752 24.0634 33.11C26.0631 33.468 28.1246 33.0746 29.8519 32.0053C31.5792 30.9361 32.8506 29.2663 33.4218 27.3168C33.993 25.3672 33.8238 23.2754 32.9467 21.443C32.8609 21.2635 32.8499 21.0572 32.9162 20.8697C32.9825 20.6821 33.1206 20.5285 33.3001 20.4427C33.4796 20.3569 33.6859 20.346 33.8735 20.4122C34.0611 20.4785 34.2146 20.6166 34.3004 20.7961Z" fill="white"/>
</g>
<defs>
<filter id="filter0_iii_18_5684" x="0" y="0" width="50" height="60" filterUnits="userSpaceOnUse" color-interpolation-filters="sRGB">
<feFlood flood-opacity="0" result="BackgroundImageFix"/>
<feBlend mode="normal" in="SourceGraphic" in2="BackgroundImageFix" result="shape"/>
<feColorMatrix in="SourceAlpha" type="matrix" values="0 0 0 0 0 0 0 0 0 0 0 0 0 0 0 0 0 0 127 0" result="hardAlpha"/>
<feOffset/>
<feGaussianBlur stdDeviation="2"/>
<feComposite in2="hardAlpha" operator="arithmetic" k2="-1" k3="1"/>
<feColorMatrix type="matrix" values="0 0 0 0 0.600886 0 0 0 0 0.600886 0 0 0 0 1 0 0 0 1 0"/>
<feBlend mode="normal" in2="shape" result="effect1_innerShadow_18_5684"/>
<feColorMatrix in="SourceAlpha" type="matrix" values="0 0 0 0 0 0 0 0 0 0 0 0 0 0 0 0 0 0 127 0" result="hardAlpha"/>
<feMorphology radius="1" operator="erode" in="SourceAlpha" result="effect2_innerShadow_18_5684"/>
<feOffset dy="8"/>
<feGaussianBlur stdDeviation="9.5"/>
<feComposite in2="hardAlpha" operator="arithmetic" k2="-1" k3="1"/>
<feColorMatrix type="matrix" values="0 0 0 0 0.552108 0 0 0 0 0.552108 0 0 0 0 1 0 0 0 0.7 0"/>
<feBlend mode="normal" in2="effect1_innerShadow_18_5684" result="effect2_innerShadow_18_5684"/>
<feColorMatrix in="SourceAlpha" type="matrix" values="0 0 0 0 0 0 0 0 0 0 0 0 0 0 0 0 0 0 127 0" result="hardAlpha"/>
<feMorphology radius="10" operator="dilate" in="SourceAlpha" result="effect3_innerShadow_18_5684"/>
<feOffset dy="15"/>
<feGaussianBlur stdDeviation="10"/>
<feComposite in2="hardAlpha" operator="arithmetic" k2="-1" k3="1"/>
<feColorMatrix type="matrix" values="0 0 0 0 0.67451 0 0 0 0 0.682353 0 0 0 0 0.988235 0 0 0 0.6 0"/>
<feBlend mode="normal" in2="effect2_innerShadow_18_5684" result="effect3_innerShadow_18_5684"/>
</filter>
<linearGradient id="paint0_linear_18_5684" x1="25" y1="16" x2="25" y2="60.5" gradientUnits="userSpaceOnUse">
<stop stop-color="#4E57FF"/>
<stop offset="1" stop-color="#000799"/>
</linearGradient>
</defs>
</svg>
