<svg width="32" height="32" viewBox="0 0 32 32" fill="none" xmlns="http://www.w3.org/2000/svg">
<path d="M10.2539 19.2969C13.7709 17.1222 18.232 17.1222 21.749 19.2969C21.8527 19.361 21.984 19.4381 22.1348 19.5264C22.8178 19.926 23.9018 20.5605 24.6416 21.3125C25.1063 21.7848 25.5698 22.4287 25.6543 23.2314C25.7446 24.0902 25.3799 24.8853 24.6846 25.5732C23.5358 26.7097 22.1129 27.666 20.2471 27.666H11.7559C9.88992 27.666 8.46621 26.7098 7.31738 25.5732C6.62204 24.8853 6.25734 24.0902 6.34766 23.2314C6.43214 22.4288 6.89575 21.7848 7.36035 21.3125C8.10022 20.5604 9.18514 19.926 9.86816 19.5264C10.019 19.4381 10.1502 19.361 10.2539 19.2969ZM20.6973 20.998C17.8248 19.2219 14.1781 19.2219 11.3057 20.998C11.1333 21.1046 10.9485 21.2137 10.7578 21.3262C10.0753 21.7286 9.31709 22.1751 8.78613 22.7148C8.45971 23.0467 8.35292 23.289 8.33691 23.4404C8.32688 23.5358 8.33222 23.7632 8.72461 24.1514C9.70124 25.1175 10.6456 25.666 11.7559 25.666H20.2471C21.3574 25.666 22.3016 25.1177 23.2783 24.1514C23.6707 23.7632 23.6751 23.5358 23.665 23.4404C23.649 23.289 23.5423 23.0467 23.2158 22.7148C22.6849 22.1752 21.9275 21.7285 21.2451 21.3262C21.0545 21.2138 20.8696 21.1046 20.6973 20.998ZM6.57812 16.3359C7.12795 16.2865 7.6143 16.6923 7.66406 17.2422C7.71382 17.7922 7.30785 18.2784 6.75781 18.3281C5.90412 18.4054 5.04493 18.7357 4.25781 19.3418C4.13099 19.4395 3.99898 19.5362 3.86621 19.6338C3.41345 19.9666 2.94752 20.3089 2.61523 20.7295C2.41798 20.9792 2.34714 21.1673 2.33594 21.2998C2.32748 21.401 2.3421 21.5789 2.57129 21.8613C3.2318 22.6751 3.77006 22.999 4.30273 22.999C4.85486 22.9992 5.30273 23.4469 5.30273 23.999C5.30273 24.5512 4.85486 24.9988 4.30273 24.999C2.83727 24.999 1.78503 24.0655 1.01855 23.1211C0.517965 22.5042 0.28487 21.8275 0.34375 21.1309C0.399996 20.4656 0.711933 19.912 1.0459 19.4893C1.56843 18.8279 2.3436 18.2641 2.79785 17.9336C2.89353 17.864 2.9753 17.8044 3.03711 17.7568C4.1095 16.931 5.32676 16.4491 6.57812 16.3359ZM25.4248 16.3359C26.676 16.4492 27.8926 16.9311 28.9648 17.7568C29.0267 17.8044 29.1084 17.864 29.2041 17.9336C29.6583 18.264 30.4335 18.8279 30.9561 19.4893C31.29 19.912 31.6029 20.4656 31.6592 21.1309C31.7181 21.8275 31.484 22.5042 30.9834 23.1211C30.217 24.0654 29.1654 24.9988 27.7002 24.999C27.1479 24.999 26.7002 24.5513 26.7002 23.999C26.7002 23.4467 27.1479 22.999 27.7002 22.999C28.2327 22.9989 28.7704 22.6748 29.4307 21.8613C29.6599 21.5789 29.6745 21.401 29.666 21.2998C29.6548 21.1673 29.584 20.9793 29.3867 20.7295C29.0544 20.3088 28.5885 19.9666 28.1357 19.6338C28.0031 19.5363 27.8718 19.4394 27.7451 19.3418C26.958 18.7356 26.0979 18.4054 25.2441 18.3281C24.6942 18.2783 24.2891 17.7922 24.3389 17.2422C24.3887 16.6922 24.8748 16.2862 25.4248 16.3359ZM7.33398 6.99902C7.88627 6.99902 8.33398 7.44674 8.33398 7.99902C8.33398 8.55131 7.88627 8.99902 7.33398 8.99902C6.04564 8.99927 5.00115 10.0437 5.00098 11.332C5.00098 12.6205 6.04553 13.6658 7.33398 13.666C7.88627 13.666 8.33398 14.1137 8.33398 14.666C8.33381 15.2182 7.88616 15.666 7.33398 15.666C4.94096 15.6658 3.00098 13.7251 3.00098 11.332C3.00115 8.9391 4.94107 6.99927 7.33398 6.99902ZM16.001 4.33203C19.1306 4.33203 21.668 6.86941 21.668 9.99902C21.668 13.1286 19.1306 15.666 16.001 15.666C12.8714 15.666 10.334 13.1286 10.334 9.99902C10.334 6.86944 12.8714 4.33207 16.001 4.33203ZM24.001 6.99902C26.3941 6.99902 28.3338 8.93895 28.334 11.332C28.334 13.7253 26.3942 15.666 24.001 15.666C23.4488 15.666 23.0012 15.2181 23.001 14.666C23.001 14.1138 23.4487 13.6661 24.001 13.666C25.2896 13.666 26.334 12.6207 26.334 11.332C26.3338 10.0435 25.2895 8.99902 24.001 8.99902C23.4487 8.99898 23.001 8.55128 23.001 7.99902C23.001 7.44676 23.4487 6.99906 24.001 6.99902ZM16.001 6.33203C13.976 6.33207 12.334 7.974 12.334 9.99902C12.334 12.024 13.976 13.666 16.001 13.666C18.026 13.666 19.668 12.0241 19.668 9.99902C19.668 7.97398 18.026 6.33203 16.001 6.33203Z" fill="white"/>
</svg>
