<svg width="240" height="239" viewBox="0 0 240 239" fill="none" xmlns="http://www.w3.org/2000/svg">
<g filter="url(#filter0_d_12_5558)">
<g clip-path="url(#clip0_12_5558)">
<rect x="38.8809" y="38.8799" width="162" height="161" rx="50.625" fill="#3B44FF"/>
<rect x="38.8809" y="38.8799" width="162" height="161" rx="50.625" fill="url(#paint0_linear_12_5558)"/>
<g filter="url(#filter1_f_12_5558)">
<path d="M38.8809 180.642L200.881 180.642L200.881 261.642H38.8809L38.8809 180.642Z" fill="url(#paint1_radial_12_5558)"/>
</g>
<rect x="50.2715" y="50.2705" width="139.219" height="138.219" rx="39.2344" stroke="url(#paint2_linear_12_5558)" stroke-width="2.53125"/>
<path d="M156.881 126.88C156.881 127.543 156.618 128.179 156.149 128.648C155.68 129.116 155.044 129.38 154.381 129.38H149.381V134.38C149.381 135.043 149.118 135.679 148.649 136.148C148.18 136.616 147.544 136.88 146.881 136.88C146.218 136.88 145.582 136.616 145.114 136.148C144.645 135.679 144.381 135.043 144.381 134.38V129.38H139.381C138.718 129.38 138.082 129.116 137.614 128.648C137.145 128.179 136.881 127.543 136.881 126.88C136.881 126.217 137.145 125.581 137.614 125.112C138.082 124.643 138.718 124.38 139.381 124.38H144.381V119.38C144.381 118.717 144.645 118.081 145.114 117.612C145.582 117.143 146.218 116.88 146.881 116.88C147.544 116.88 148.18 117.143 148.649 117.612C149.118 118.081 149.381 118.717 149.381 119.38V124.38H154.381C155.044 124.38 155.68 124.643 156.149 125.112C156.618 125.581 156.881 126.217 156.881 126.88ZM96.8813 101.88H101.881V106.88C101.881 107.543 102.145 108.179 102.614 108.648C103.082 109.116 103.718 109.38 104.381 109.38C105.044 109.38 105.68 109.116 106.149 108.648C106.618 108.179 106.881 107.543 106.881 106.88V101.88H111.881C112.544 101.88 113.18 101.616 113.649 101.148C114.118 100.679 114.381 100.043 114.381 99.3799C114.381 98.7168 114.118 98.081 113.649 97.6121C113.18 97.1433 112.544 96.8799 111.881 96.8799H106.881V91.8799C106.881 91.2168 106.618 90.581 106.149 90.1121C105.68 89.6433 105.044 89.3799 104.381 89.3799C103.718 89.3799 103.082 89.6433 102.614 90.1121C102.145 90.581 101.881 91.2168 101.881 91.8799V96.8799H96.8813C96.2182 96.8799 95.5824 97.1433 95.1135 97.6121C94.6447 98.081 94.3813 98.7168 94.3813 99.3799C94.3813 100.043 94.6447 100.679 95.1135 101.148C95.5824 101.616 96.2182 101.88 96.8813 101.88ZM136.881 139.38H134.381V136.88C134.381 136.217 134.118 135.581 133.649 135.112C133.18 134.643 132.544 134.38 131.881 134.38C131.218 134.38 130.582 134.643 130.114 135.112C129.645 135.581 129.381 136.217 129.381 136.88V139.38H126.881C126.218 139.38 125.582 139.643 125.114 140.112C124.645 140.581 124.381 141.217 124.381 141.88C124.381 142.543 124.645 143.179 125.114 143.648C125.582 144.116 126.218 144.38 126.881 144.38H129.381V146.88C129.381 147.543 129.645 148.179 130.114 148.648C130.582 149.116 131.218 149.38 131.881 149.38C132.544 149.38 133.18 149.116 133.649 148.648C134.118 148.179 134.381 147.543 134.381 146.88V144.38H136.881C137.544 144.38 138.18 144.116 138.649 143.648C139.118 143.179 139.381 142.543 139.381 141.88C139.381 141.217 139.118 140.581 138.649 140.112C138.18 139.643 137.544 139.38 136.881 139.38ZM147.916 104.38L104.381 147.914C103.444 148.851 102.172 149.378 100.847 149.378C99.5214 149.378 98.2501 148.851 97.3125 147.914L90.8438 141.452C90.3794 140.987 90.011 140.436 89.7596 139.83C89.5083 139.223 89.3789 138.573 89.3789 137.916C89.3789 137.259 89.5083 136.609 89.7596 136.002C90.011 135.395 90.3794 134.844 90.8438 134.38L134.381 90.8455C134.846 90.3811 135.397 90.0127 136.004 89.7614C136.61 89.51 137.261 89.3806 137.917 89.3806C138.574 89.3806 139.224 89.51 139.831 89.7614C140.438 90.0127 140.989 90.3811 141.453 90.8455L147.916 97.308C148.38 97.7723 148.748 98.3236 149 98.9303C149.251 99.537 149.381 100.187 149.381 100.844C149.381 101.501 149.251 102.151 149 102.758C148.748 103.364 148.38 103.916 147.916 104.38ZM144.381 100.846L137.916 94.3799L127.916 104.38L134.381 110.846L144.381 100.846Z" fill="white"/>
</g>
</g>
<defs>
<filter id="filter0_d_12_5558" x="0.000858307" y="-0.000118256" width="239.76" height="238.76" filterUnits="userSpaceOnUse" color-interpolation-filters="sRGB">
<feFlood flood-opacity="0" result="BackgroundImageFix"/>
<feColorMatrix in="SourceAlpha" type="matrix" values="0 0 0 0 0 0 0 0 0 0 0 0 0 0 0 0 0 0 127 0" result="hardAlpha"/>
<feOffset/>
<feGaussianBlur stdDeviation="19.44"/>
<feComposite in2="hardAlpha" operator="out"/>
<feColorMatrix type="matrix" values="0 0 0 0 0.231373 0 0 0 0 0.266667 0 0 0 0 1 0 0 0 0.4 0"/>
<feBlend mode="normal" in2="BackgroundImageFix" result="effect1_dropShadow_12_5558"/>
<feBlend mode="normal" in="SourceGraphic" in2="effect1_dropShadow_12_5558" result="shape"/>
</filter>
<filter id="filter1_f_12_5558" x="13.5684" y="155.33" width="212.625" height="131.625" filterUnits="userSpaceOnUse" color-interpolation-filters="sRGB">
<feFlood flood-opacity="0" result="BackgroundImageFix"/>
<feBlend mode="normal" in="SourceGraphic" in2="BackgroundImageFix" result="shape"/>
<feGaussianBlur stdDeviation="12.6562" result="effect1_foregroundBlur_12_5558"/>
</filter>
<linearGradient id="paint0_linear_12_5558" x1="99.6309" y1="38.8799" x2="139.661" y2="199.997" gradientUnits="userSpaceOnUse">
<stop stop-opacity="0.24"/>
<stop offset="1" stop-opacity="0.8"/>
</linearGradient>
<radialGradient id="paint1_radial_12_5558" cx="0" cy="0" r="1" gradientTransform="matrix(-0.404778 115.503 -88.5835 -14.4474 126.007 270.426)" gradientUnits="userSpaceOnUse">
<stop stop-color="#CCFFD3"/>
<stop offset="1" stop-color="#3B44FF"/>
</radialGradient>
<linearGradient id="paint2_linear_12_5558" x1="119.881" y1="49.0049" x2="119.881" y2="189.755" gradientUnits="userSpaceOnUse">
<stop stop-color="#3B44FF"/>
<stop offset="1" stop-opacity="0"/>
</linearGradient>
<clipPath id="clip0_12_5558">
<rect x="38.8809" y="38.8799" width="162" height="161" rx="50.625" fill="white"/>
</clipPath>
</defs>
</svg>
