<svg width="18" height="18" viewBox="0 0 18 18" fill="none" xmlns="http://www.w3.org/2000/svg">
<path d="M7.47806 4.18239L7.92975 5.43676C8.4315 6.82895 9.52781 7.92526 10.92 8.42701L12.1744 8.8787C12.2874 8.91976 12.2874 9.08007 12.1744 9.12057L10.92 9.57226C9.52781 10.074 8.4315 11.1703 7.92975 12.5625L7.47806 13.8169C7.437 13.9299 7.27669 13.9299 7.23619 13.8169L6.7845 12.5625C6.28275 11.1703 5.18644 10.074 3.79425 9.57226L2.53988 9.12057C2.42681 9.07951 2.42681 8.9192 2.53988 8.8787L3.79425 8.42701C5.18644 7.92526 6.28275 6.82895 6.7845 5.43676L7.23619 4.18239C7.27669 4.06876 7.437 4.06876 7.47806 4.18239Z" fill="url(#paint0_linear_175612_5154)"/>
<path d="M13.124 1.16821L13.3529 1.80327C13.6072 2.50808 14.1624 3.06327 14.8672 3.31752L15.5022 3.54646C15.5596 3.56727 15.5596 3.64827 15.5022 3.66908L14.8672 3.89802C14.1624 4.15227 13.6072 4.70746 13.3529 5.41227L13.124 6.04733C13.1032 6.10471 13.0222 6.10471 13.0014 6.04733L12.7724 5.41227C12.5182 4.70746 11.963 4.15227 11.2582 3.89802L10.6231 3.66908C10.5657 3.64827 10.5657 3.56727 10.6231 3.54646L11.2582 3.31752C11.963 3.06327 12.5182 2.50808 12.7724 1.80327L13.0014 1.16821C13.0222 1.11027 13.1037 1.11027 13.124 1.16821Z" fill="url(#paint1_linear_175612_5154)"/>
<path d="M13.124 11.9529L13.3529 12.588C13.6072 13.2928 14.1624 13.848 14.8672 14.1023L15.5022 14.3312C15.5596 14.352 15.5596 14.433 15.5022 14.4538L14.8672 14.6828C14.1624 14.937 13.6072 15.4922 13.3529 16.197L13.124 16.8321C13.1032 16.8894 13.0222 16.8894 13.0014 16.8321L12.7724 16.197C12.5182 15.4922 11.963 14.937 11.2582 14.6828L10.6231 14.4538C10.5657 14.433 10.5657 14.352 10.6231 14.3312L11.2582 14.1023C11.963 13.848 12.5182 13.2928 12.7724 12.588L13.0014 11.9529C13.0222 11.8956 13.1037 11.8956 13.124 11.9529Z" fill="url(#paint2_linear_175612_5154)"/>
<defs>
<linearGradient id="paint0_linear_175612_5154" x1="3.31235" y1="11.328" x2="11.6292" y2="11.0656" gradientUnits="userSpaceOnUse">
<stop stop-color="#6B7CFF"/>
<stop offset="1" stop-color="#D4D9FF"/>
</linearGradient>
<linearGradient id="paint1_linear_175612_5154" x1="11.0142" y1="4.78689" x2="15.2262" y2="4.65403" gradientUnits="userSpaceOnUse">
<stop stop-color="#6B7CFF"/>
<stop offset="1" stop-color="#D4D9FF"/>
</linearGradient>
<linearGradient id="paint2_linear_175612_5154" x1="11.0142" y1="15.5717" x2="15.2262" y2="15.4389" gradientUnits="userSpaceOnUse">
<stop stop-color="#6B7CFF"/>
<stop offset="1" stop-color="#D4D9FF"/>
</linearGradient>
</defs>
</svg>
