<svg width="22" height="24" viewBox="0 0 22 24" fill="none" xmlns="http://www.w3.org/2000/svg">
<path d="M19.4928 3.99711L11.7326 0.893047C11.4964 0.79855 11.2443 0.75 10.9898 0.75H10.5102C10.2557 0.75 10.0036 0.79855 9.76738 0.893047L2.00722 3.99711C1.2479 4.30084 0.75 5.03626 0.75 5.85407V9.5C0.75 18.5932 7.21795 22.3945 9.88803 23.1851C10.0448 23.2315 10.2077 23.25 10.3712 23.25H11.1288C11.2923 23.25 11.4553 23.2319 11.6115 23.1836C14.2813 22.3586 20.75 17.9875 20.75 9.5V5.85407C20.75 5.03626 20.2521 4.30084 19.4928 3.99711Z" stroke="white" stroke-width="1.5" stroke-linecap="round" stroke-linejoin="round"/>
<path d="M7 12L9.5 14.5L15.125 8.875" stroke="white" stroke-width="1.5" stroke-linecap="round" stroke-linejoin="round"/>
</svg>
