<svg width="50" height="50" viewBox="0 0 50 50" fill="none" xmlns="http://www.w3.org/2000/svg">
<g filter="url(#filter0_iii_18_5680)">
<rect width="50" height="50" fill="url(#paint0_linear_18_5680)"/>
<rect x="0.25" y="0.25" width="49.5" height="49.5" stroke="#3B44FF" stroke-opacity="0.2" stroke-width="0.5"/>
<path opacity="0.2" d="M22.5 35.5L24 28L18 25.75L28.5 14.5L27 22L33 24.25L22.5 35.5Z" fill="white"/>
<path d="M33.7308 24.0786C33.7024 23.9584 33.6448 23.847 33.563 23.7545C33.4812 23.6619 33.3779 23.591 33.2621 23.548L27.8611 21.522L29.2355 14.6473C29.2666 14.4876 29.245 14.3221 29.1738 14.1758C29.1026 14.0294 28.9857 13.9102 28.8408 13.8361C28.6959 13.7621 28.5309 13.7371 28.3705 13.7651C28.2102 13.793 28.0634 13.8723 27.9521 13.9911L17.4521 25.2411C17.3668 25.3309 17.3051 25.4405 17.2725 25.5601C17.2399 25.6796 17.2374 25.8053 17.2653 25.926C17.2932 26.0467 17.3505 26.1587 17.4322 26.2518C17.5138 26.345 17.6173 26.4164 17.7333 26.4598L23.1361 28.4858L21.7655 35.353C21.7344 35.5127 21.7561 35.6782 21.8273 35.8245C21.8985 35.9709 22.0153 36.0901 22.1602 36.1642C22.3051 36.2382 22.4702 36.2632 22.6305 36.2352C22.7908 36.2073 22.9377 36.128 23.049 36.0092L33.549 24.7592C33.6327 24.6693 33.6931 24.5603 33.7248 24.4416C33.7565 24.3229 33.7586 24.1983 33.7308 24.0786ZM23.754 33.0627L24.7355 28.152C24.7706 27.9779 24.7428 27.7969 24.657 27.6413C24.5711 27.4858 24.4328 27.3658 24.2668 27.3027L19.313 25.4417L27.2461 16.9423L26.2655 21.853C26.2304 22.0271 26.2582 22.2081 26.3441 22.3636C26.4299 22.5192 26.5682 22.6392 26.7343 22.7023L31.6843 24.5586L23.754 33.0627Z" fill="white"/>
</g>
<defs>
<filter id="filter0_iii_18_5680" x="0" y="0" width="50" height="60" filterUnits="userSpaceOnUse" color-interpolation-filters="sRGB">
<feFlood flood-opacity="0" result="BackgroundImageFix"/>
<feBlend mode="normal" in="SourceGraphic" in2="BackgroundImageFix" result="shape"/>
<feColorMatrix in="SourceAlpha" type="matrix" values="0 0 0 0 0 0 0 0 0 0 0 0 0 0 0 0 0 0 127 0" result="hardAlpha"/>
<feOffset/>
<feGaussianBlur stdDeviation="2"/>
<feComposite in2="hardAlpha" operator="arithmetic" k2="-1" k3="1"/>
<feColorMatrix type="matrix" values="0 0 0 0 0.600886 0 0 0 0 0.600886 0 0 0 0 1 0 0 0 1 0"/>
<feBlend mode="normal" in2="shape" result="effect1_innerShadow_18_5680"/>
<feColorMatrix in="SourceAlpha" type="matrix" values="0 0 0 0 0 0 0 0 0 0 0 0 0 0 0 0 0 0 127 0" result="hardAlpha"/>
<feMorphology radius="1" operator="erode" in="SourceAlpha" result="effect2_innerShadow_18_5680"/>
<feOffset dy="8"/>
<feGaussianBlur stdDeviation="9.5"/>
<feComposite in2="hardAlpha" operator="arithmetic" k2="-1" k3="1"/>
<feColorMatrix type="matrix" values="0 0 0 0 0.552108 0 0 0 0 0.552108 0 0 0 0 1 0 0 0 0.7 0"/>
<feBlend mode="normal" in2="effect1_innerShadow_18_5680" result="effect2_innerShadow_18_5680"/>
<feColorMatrix in="SourceAlpha" type="matrix" values="0 0 0 0 0 0 0 0 0 0 0 0 0 0 0 0 0 0 127 0" result="hardAlpha"/>
<feMorphology radius="10" operator="dilate" in="SourceAlpha" result="effect3_innerShadow_18_5680"/>
<feOffset dy="15"/>
<feGaussianBlur stdDeviation="10"/>
<feComposite in2="hardAlpha" operator="arithmetic" k2="-1" k3="1"/>
<feColorMatrix type="matrix" values="0 0 0 0 0.67451 0 0 0 0 0.682353 0 0 0 0 0.988235 0 0 0 0.6 0"/>
<feBlend mode="normal" in2="effect2_innerShadow_18_5680" result="effect3_innerShadow_18_5680"/>
</filter>
<linearGradient id="paint0_linear_18_5680" x1="25" y1="16" x2="25" y2="60.5" gradientUnits="userSpaceOnUse">
<stop stop-color="#4E57FF"/>
<stop offset="1" stop-color="#000799"/>
</linearGradient>
</defs>
</svg>
