<svg width="50" height="50" viewBox="0 0 50 50" fill="none" xmlns="http://www.w3.org/2000/svg">
<g filter="url(#filter0_iii_175815_11362)">
<rect width="50" height="50" fill="url(#paint0_linear_175815_11362)"/>
<rect x="0.25" y="0.25" width="49.5" height="49.5" stroke="#3B44FF" stroke-opacity="0.2" stroke-width="0.5"/>
<path d="M24.752 21.9995C24.752 22.4137 25.0877 22.7495 25.502 22.7495C25.9162 22.7495 26.252 22.4137 26.252 21.9995H25.502H24.752ZM26.252 16.9995C26.252 16.5853 25.9162 16.2495 25.502 16.2495C25.0877 16.2495 24.752 16.5853 24.752 16.9995H25.502H26.252ZM25.502 21.9995H26.252V16.9995H25.502H24.752V21.9995H25.502Z" fill="white"/>
<path d="M27.5 18.5L25.5 16.5L23.5 18.5" stroke="white" stroke-width="1.5" stroke-linecap="round" stroke-linejoin="round"/>
<path d="M26.252 28C26.252 27.5858 25.9162 27.25 25.502 27.25C25.0877 27.25 24.752 27.5858 24.752 28H25.502H26.252ZM24.752 33C24.752 33.4142 25.0877 33.75 25.502 33.75C25.9162 33.75 26.252 33.4142 26.252 33H25.502H24.752ZM25.502 28H24.752V33H25.502H26.252V28H25.502Z" fill="white"/>
<path d="M27.5 31.5L25.5 33.5L23.5 31.5" stroke="white" stroke-width="1.5" stroke-linecap="round" stroke-linejoin="round"/>
<path d="M28.5 24.25C28.0858 24.25 27.75 24.5858 27.75 25C27.75 25.4142 28.0858 25.75 28.5 25.75L28.5 25L28.5 24.25ZM33.5 25.75C33.9142 25.75 34.25 25.4142 34.25 25C34.25 24.5858 33.9142 24.25 33.5 24.25V25V25.75ZM28.5 25L28.5 25.75L33.5 25.75V25V24.25L28.5 24.25L28.5 25Z" fill="white"/>
<path d="M32 27L34 25L32 23" stroke="white" stroke-width="1.5" stroke-linecap="round" stroke-linejoin="round"/>
<path d="M22.5 25.75C22.9142 25.75 23.25 25.4142 23.25 25C23.25 24.5858 22.9142 24.25 22.5 24.25V25V25.75ZM17.5 24.25C17.0858 24.25 16.75 24.5858 16.75 25C16.75 25.4142 17.0858 25.75 17.5 25.75L17.5 25L17.5 24.25ZM22.5 25V24.25L17.5 24.25L17.5 25L17.5 25.75L22.5 25.75V25Z" fill="white"/>
<path d="M19 27L17 25L19 23" stroke="white" stroke-width="1.5" stroke-linecap="round" stroke-linejoin="round"/>
</g>
<defs>
<filter id="filter0_iii_175815_11362" x="0" y="0" width="50" height="60" filterUnits="userSpaceOnUse" color-interpolation-filters="sRGB">
<feFlood flood-opacity="0" result="BackgroundImageFix"/>
<feBlend mode="normal" in="SourceGraphic" in2="BackgroundImageFix" result="shape"/>
<feColorMatrix in="SourceAlpha" type="matrix" values="0 0 0 0 0 0 0 0 0 0 0 0 0 0 0 0 0 0 127 0" result="hardAlpha"/>
<feOffset/>
<feGaussianBlur stdDeviation="2"/>
<feComposite in2="hardAlpha" operator="arithmetic" k2="-1" k3="1"/>
<feColorMatrix type="matrix" values="0 0 0 0 0.600886 0 0 0 0 0.600886 0 0 0 0 1 0 0 0 1 0"/>
<feBlend mode="normal" in2="shape" result="effect1_innerShadow_175815_11362"/>
<feColorMatrix in="SourceAlpha" type="matrix" values="0 0 0 0 0 0 0 0 0 0 0 0 0 0 0 0 0 0 127 0" result="hardAlpha"/>
<feMorphology radius="1" operator="erode" in="SourceAlpha" result="effect2_innerShadow_175815_11362"/>
<feOffset dy="8"/>
<feGaussianBlur stdDeviation="9.5"/>
<feComposite in2="hardAlpha" operator="arithmetic" k2="-1" k3="1"/>
<feColorMatrix type="matrix" values="0 0 0 0 0.552108 0 0 0 0 0.552108 0 0 0 0 1 0 0 0 0.7 0"/>
<feBlend mode="normal" in2="effect1_innerShadow_175815_11362" result="effect2_innerShadow_175815_11362"/>
<feColorMatrix in="SourceAlpha" type="matrix" values="0 0 0 0 0 0 0 0 0 0 0 0 0 0 0 0 0 0 127 0" result="hardAlpha"/>
<feMorphology radius="10" operator="dilate" in="SourceAlpha" result="effect3_innerShadow_175815_11362"/>
<feOffset dy="15"/>
<feGaussianBlur stdDeviation="10"/>
<feComposite in2="hardAlpha" operator="arithmetic" k2="-1" k3="1"/>
<feColorMatrix type="matrix" values="0 0 0 0 0.67451 0 0 0 0 0.682353 0 0 0 0 0.988235 0 0 0 0.6 0"/>
<feBlend mode="normal" in2="effect2_innerShadow_175815_11362" result="effect3_innerShadow_175815_11362"/>
</filter>
<linearGradient id="paint0_linear_175815_11362" x1="25" y1="16" x2="25" y2="60.5" gradientUnits="userSpaceOnUse">
<stop stop-color="#4E57FF"/>
<stop offset="1" stop-color="#000799"/>
</linearGradient>
</defs>
</svg>
