<svg width="467" height="362" viewBox="0 0 467 362" fill="none" xmlns="http://www.w3.org/2000/svg">
<g clip-path="url(#clip0_12_5564)">
<mask id="mask0_12_5564" style="mask-type:alpha" maskUnits="userSpaceOnUse" x="0" y="-47" width="467" height="468">
<rect x="467" y="420.023" width="467" height="467" transform="rotate(180 467 420.023)" fill="url(#paint0_radial_12_5564)"/>
</mask>
<g mask="url(#mask0_12_5564)">
<rect opacity="0.1" x="465.958" y="418.981" width="86.8676" height="86.8676" rx="21.1957" transform="rotate(180 465.958 418.981)" stroke="#F8F8F8" stroke-width="2.08482"/>
<rect opacity="0.1" x="87.9088" y="418.981" width="86.8676" height="86.8676" rx="21.1957" transform="rotate(180 87.9088 418.981)" stroke="#F8F8F8" stroke-width="2.08482"/>
<g filter="url(#filter0_i_12_5564)">
<g clip-path="url(#clip1_12_5564)">
<rect x="276.932" y="229.957" width="86.8676" height="86.8676" rx="21.1957" transform="rotate(180 276.932 229.957)" stroke="#3B44FF" stroke-width="2.08482"/>
<g filter="url(#filter1_i_12_5564)">
<rect x="269.635" y="222.66" width="72.2738" height="72.2738" rx="13.8988" transform="rotate(180 269.635 222.66)" fill="#3B44FF" fill-opacity="0.01"/>
<path d="M247.593 173.834L235.45 168.977C235.124 168.846 234.775 168.779 234.423 168.779H233.571C233.22 168.779 232.871 168.846 232.545 168.977L220.402 173.834C219.352 174.254 218.664 175.27 218.664 176.401V182.196C218.664 196.181 228.642 202.003 232.713 203.191C232.93 203.254 233.153 203.279 233.379 203.279H234.615C234.841 203.279 235.065 203.254 235.281 203.189C239.352 201.953 249.331 195.25 249.331 182.196V176.401C249.331 175.27 248.642 174.254 247.593 173.834Z" stroke="#6D73FF" stroke-width="2.76471" stroke-linecap="round" stroke-linejoin="round"/>
<path d="M234.498 181V187.912" stroke="#6D73FF" stroke-width="2.76471" stroke-linecap="round" stroke-linejoin="round"/>
<path d="M234.498 192.058V192.071" stroke="#6D73FF" stroke-width="2.76471" stroke-linecap="round" stroke-linejoin="round"/>
</g>
</g>
</g>
<mask id="mask1_12_5564" style="mask-type:alpha" maskUnits="userSpaceOnUse" x="162" y="41" width="289" height="289">
<circle cx="306.47" cy="185.829" r="143.853" transform="rotate(180 306.47 185.829)" fill="#D9D9D9"/>
</mask>
<g mask="url(#mask1_12_5564)">
<rect x="560.469" y="324.47" width="181.379" height="86.8676" rx="21.1957" transform="rotate(180 560.469 324.47)" stroke="#292C53" stroke-width="2.08482"/>
<rect x="560.469" y="229.958" width="181.379" height="86.8676" rx="21.1957" transform="rotate(180 560.469 229.958)" stroke="#292C53" stroke-width="2.08482"/>
<rect x="560.469" y="135.446" width="181.379" height="86.8676" rx="21.1957" transform="rotate(180 560.469 135.446)" stroke="#292C53" stroke-width="2.08482"/>
</g>
<mask id="mask2_12_5564" style="mask-type:alpha" maskUnits="userSpaceOnUse" x="16" y="41" width="289" height="289">
<circle cx="160.53" cy="185.829" r="143.853" transform="rotate(180 160.53 185.829)" fill="#D9D9D9"/>
</mask>
<g mask="url(#mask2_12_5564)">
<rect x="87.9088" y="324.47" width="86.8676" height="86.8676" rx="21.1957" transform="rotate(180 87.9088 324.47)" stroke="#292C53" stroke-width="2.08482"/>
<rect x="87.9088" y="229.958" width="86.8676" height="86.8676" rx="21.1957" transform="rotate(180 87.9088 229.958)" stroke="#292C53" stroke-width="2.08482"/>
<rect x="87.9088" y="135.446" width="86.8676" height="86.8676" rx="21.1957" transform="rotate(180 87.9088 135.446)" stroke="#292C53" stroke-width="2.08482"/>
</g>
<rect opacity="0.1" x="465.958" y="40.9332" width="86.8676" height="86.8676" rx="21.1957" transform="rotate(180 465.958 40.9332)" stroke="#F8F8F8" stroke-width="2.08482"/>
<rect opacity="0.1" x="87.9088" y="40.9332" width="86.8676" height="86.8676" rx="21.1957" transform="rotate(180 87.9088 40.9332)" stroke="#F8F8F8" stroke-width="2.08482"/>
<path d="M365.537 282.077C366.113 282.077 366.58 281.61 366.58 281.034C366.58 280.459 366.113 279.992 365.537 279.992L365.537 281.034L365.537 282.077ZM365.537 281.034L365.537 279.992L349.547 279.992L349.547 281.034L349.547 282.077L365.537 282.077L365.537 281.034ZM328.78 266.749L329.753 266.377L304.5 200.435L303.527 200.808L302.553 201.18L327.806 267.122L328.78 266.749ZM282.759 186.523L282.759 185.48L276.585 185.48L276.585 186.523L276.585 187.565L282.759 187.565L282.759 186.523ZM303.527 200.808L304.5 200.435C301.051 191.428 292.404 185.48 282.759 185.48L282.759 186.523L282.759 187.565C291.541 187.565 299.413 192.98 302.553 201.18L303.527 200.808ZM349.547 281.034L349.547 279.992C340.766 279.992 332.894 274.577 329.753 266.377L328.78 266.749L327.806 267.122C331.256 276.129 339.902 282.077 349.547 282.077L349.547 281.034Z" fill="#292C53"/>
<path d="M365.537 88.189C366.113 88.189 366.58 88.6557 366.58 89.2314C366.58 89.8072 366.113 90.2739 365.537 90.2739L365.537 89.2314L365.537 88.189ZM303.444 172.039L302.467 171.675L303.444 172.039ZM365.537 89.2314L365.537 90.2739L349.705 90.2739L349.705 89.2314L349.705 88.189L365.537 88.189L365.537 89.2314ZM328.862 103.716L329.839 104.079L304.421 172.402L303.444 172.039L302.467 171.675L327.885 103.352L328.862 103.716ZM282.602 186.523L282.602 187.566L276.585 187.566L276.585 186.523L276.585 185.481L282.602 185.481L282.602 186.523ZM303.444 172.039L304.421 172.402C301.03 181.519 292.329 187.566 282.602 187.566L282.602 186.523L282.602 185.481C291.457 185.481 299.38 179.975 302.467 171.675L303.444 172.039ZM349.705 89.2314L349.705 90.2739C340.849 90.2739 332.927 95.7793 329.839 104.079L328.862 103.716L327.885 103.352C331.276 94.236 339.978 88.189 349.705 88.189L349.705 89.2314Z" fill="#292C53"/>
<path d="M365.537 186.523L304.382 186.523" stroke="#292C53" stroke-width="2.08482" stroke-linecap="round"/>
<path d="M101.461 282.077C100.885 282.077 100.419 281.61 100.419 281.034C100.419 280.459 100.885 279.992 101.461 279.992L101.461 281.034L101.461 282.077ZM101.461 281.034L101.461 279.992L117.451 279.992L117.451 281.034L117.451 282.077L101.461 282.077L101.461 281.034ZM138.218 266.749L137.245 266.377L162.498 200.435L163.471 200.808L164.445 201.18L139.192 267.122L138.218 266.749ZM184.239 186.522L184.239 185.48L190.413 185.48L190.413 186.522L190.413 187.565L184.239 187.565L184.239 186.522ZM163.471 200.808L162.498 200.435C165.947 191.428 174.594 185.48 184.239 185.48L184.239 186.522L184.239 187.565C175.457 187.565 167.585 192.98 164.445 201.18L163.471 200.808ZM117.451 281.034L117.451 279.992C126.232 279.992 134.104 274.577 137.245 266.377L138.218 266.749L139.192 267.122C135.742 276.129 127.096 282.077 117.451 282.077L117.451 281.034Z" fill="#292C53"/>
<path d="M101.461 88.189C100.885 88.189 100.419 88.6557 100.419 89.2314C100.419 89.8072 100.885 90.2739 101.461 90.2739L101.461 89.2314L101.461 88.189ZM163.554 172.039L164.531 171.675L163.554 172.039ZM101.461 89.2314L101.461 90.2739L117.294 90.2739L117.294 89.2314L117.294 88.189L101.461 88.189L101.461 89.2314ZM138.136 103.716L137.159 104.079L162.577 172.402L163.554 172.039L164.531 171.675L139.113 103.352L138.136 103.716ZM184.396 186.523L184.396 187.566L190.413 187.566L190.413 186.523L190.413 185.481L184.396 185.481L184.396 186.523ZM163.554 172.039L162.577 172.402C165.968 181.519 174.67 187.566 184.396 187.566L184.396 186.523L184.396 185.481C175.541 185.481 167.618 179.975 164.531 171.675L163.554 172.039ZM117.294 89.2314L117.294 90.2739C126.149 90.2739 134.071 95.7793 137.159 104.079L138.136 103.716L139.113 103.352C135.722 94.236 127.02 88.189 117.294 88.189L117.294 89.2314Z" fill="#292C53"/>
<path d="M101.461 186.523L162.616 186.523" stroke="#292C53" stroke-width="2.08482" stroke-linecap="round"/>
</g>
</g>
<defs>
<filter id="filter0_i_12_5564" x="189.021" y="142.047" width="88.9531" height="88.9524" filterUnits="userSpaceOnUse" color-interpolation-filters="sRGB">
<feFlood flood-opacity="0" result="BackgroundImageFix"/>
<feBlend mode="normal" in="SourceGraphic" in2="BackgroundImageFix" result="shape"/>
<feColorMatrix in="SourceAlpha" type="matrix" values="0 0 0 0 0 0 0 0 0 0 0 0 0 0 0 0 0 0 127 0" result="hardAlpha"/>
<feOffset/>
<feGaussianBlur stdDeviation="5.55952"/>
<feComposite in2="hardAlpha" operator="arithmetic" k2="-1" k3="1"/>
<feColorMatrix type="matrix" values="0 0 0 0 0.972549 0 0 0 0 0.972549 0 0 0 0 0.972549 0 0 0 0.25 0"/>
<feBlend mode="normal" in2="shape" result="effect1_innerShadow_12_5564"/>
</filter>
<filter id="filter1_i_12_5564" x="197.361" y="150.386" width="72.2734" height="72.2739" filterUnits="userSpaceOnUse" color-interpolation-filters="sRGB">
<feFlood flood-opacity="0" result="BackgroundImageFix"/>
<feBlend mode="normal" in="SourceGraphic" in2="BackgroundImageFix" result="shape"/>
<feColorMatrix in="SourceAlpha" type="matrix" values="0 0 0 0 0 0 0 0 0 0 0 0 0 0 0 0 0 0 127 0" result="hardAlpha"/>
<feOffset/>
<feGaussianBlur stdDeviation="5.55952"/>
<feComposite in2="hardAlpha" operator="arithmetic" k2="-1" k3="1"/>
<feColorMatrix type="matrix" values="0 0 0 0 0.231373 0 0 0 0 0.266667 0 0 0 0 1 0 0 0 0.25 0"/>
<feBlend mode="normal" in2="shape" result="effect1_innerShadow_12_5564"/>
</filter>
<radialGradient id="paint0_radial_12_5564" cx="0" cy="0" r="1" gradientUnits="userSpaceOnUse" gradientTransform="translate(700.5 653.523) rotate(90) scale(233.5)">
<stop stop-color="#D9D9D9"/>
<stop offset="1" stop-color="#737373" stop-opacity="0"/>
</radialGradient>
<clipPath id="clip0_12_5564">
<rect width="467" height="361.994" fill="white" transform="translate(467 361.994) rotate(180)"/>
</clipPath>
<clipPath id="clip1_12_5564">
<rect x="277.975" y="231" width="88.9524" height="88.9524" rx="22.2381" transform="rotate(180 277.975 231)" fill="white"/>
</clipPath>
</defs>
</svg>
