<svg width="131" height="26" viewBox="0 0 131 26" fill="none" xmlns="http://www.w3.org/2000/svg">
<g clip-path="url(#clip0_19_11800)">
<path fill-rule="evenodd" clip-rule="evenodd" d="M16.5733 7.59544C15.5068 6.88122 14.2529 6.5 12.9703 6.5V0C15.5356 0 18.0432 0.762437 20.1762 2.1909C22.3092 3.61935 23.9716 5.64968 24.9533 8.02509C25.935 10.4005 26.1918 13.0144 25.6914 15.5362C25.1909 18.0579 23.9556 20.3743 22.1417 22.1924C20.3278 24.0105 18.0167 25.2486 15.5007 25.7502C12.9847 26.2518 10.3768 25.9943 8.00676 25.0104C5.63676 24.0265 3.61108 22.3603 2.18589 20.2224C0.760695 18.0846 0 15.5711 0 13H6.48515C6.48515 14.2856 6.8655 15.5423 7.57809 16.6112C8.29068 17.6801 9.30353 18.5132 10.4886 19.0052C11.6735 19.4972 12.9775 19.6259 14.2355 19.3751C15.4935 19.1243 16.649 18.5052 17.556 17.5962C18.463 16.6871 19.0806 15.529 19.3308 14.2681C19.5811 13.0072 19.4527 11.7003 18.9618 10.5126C18.4709 9.32484 17.6397 8.30966 16.5733 7.59544Z" fill="#797FFF"/>
<path fill-rule="evenodd" clip-rule="evenodd" d="M6.48514 3.4352e-06C6.48514 0.853595 6.31741 1.69883 5.9915 2.48745C5.66558 3.27606 5.18789 3.99261 4.58569 4.5962C3.98349 5.19978 3.26858 5.67857 2.48176 6.00522C1.69494 6.33187 0.851639 6.5 2.83472e-07 6.5L0 13C1.70328 13 3.38989 12.6638 4.96352 12.0104C6.53716 11.3571 7.967 10.3995 9.17136 9.19237C10.3758 7.98525 11.3312 6.55213 11.983 4.97489C12.6348 3.39765 12.9703 1.70718 12.9703 0L6.48514 3.4352e-06Z" fill="#797FFF"/>
<path d="M81.465 9.39404H78.3184V19.412H81.465V9.39404Z" fill="#797FFF"/>
<path d="M78.6687 7.51834C78.9975 7.84815 79.4087 8.01305 79.9022 8.01305C80.3957 8.01305 80.8004 7.84815 81.1156 7.51834C81.4314 7.17481 81.589 6.76252 81.589 6.28155C81.589 5.78685 81.4314 5.37457 81.1156 5.04477C80.8004 4.71495 80.3957 4.55005 79.9022 4.55005C79.4087 4.55005 78.9975 4.71495 78.6687 5.04477C78.3529 5.37457 78.1953 5.78685 78.1953 6.28155C78.1953 6.76252 78.3529 7.17481 78.6687 7.51834Z" fill="#797FFF"/>
<path d="M33.1758 19.4121V4.85919H36.4047V16.5675H42.8419V19.4121H33.1758Z" fill="#797FFF"/>
<path fill-rule="evenodd" clip-rule="evenodd" d="M48.6561 19.6387C47.6278 19.6387 46.6955 19.412 45.8591 18.9585C45.0365 18.4913 44.3852 17.8592 43.9053 17.0621C43.4255 16.265 43.1855 15.3718 43.1855 14.3824C43.1855 13.393 43.4255 12.5066 43.9053 11.7233C44.3852 10.94 45.0365 10.3216 45.8591 9.86813C46.6818 9.40085 47.6141 9.16724 48.6561 9.16724C49.6981 9.16724 50.6304 9.39402 51.4531 9.84746C52.2757 10.301 52.927 10.9263 53.4068 11.7233C53.8868 12.5066 54.1267 13.393 54.1267 14.3824C54.1267 15.3718 53.8868 16.265 53.4068 17.0621C52.927 17.8592 52.2757 18.4913 51.4531 18.9585C50.6304 19.412 49.6981 19.6387 48.6561 19.6387ZM48.6561 16.7735C49.1086 16.7735 49.5062 16.6773 49.849 16.4849C50.1917 16.2788 50.4522 15.9971 50.6304 15.6398C50.8224 15.2688 50.9184 14.8496 50.9184 14.3824C50.9184 13.9152 50.8224 13.5098 50.6304 13.1662C50.4385 12.8089 50.1712 12.5341 49.8283 12.3417C49.4993 12.1355 49.1086 12.0325 48.6561 12.0325C48.2174 12.0325 47.8266 12.1355 47.4838 12.3417C47.1411 12.5341 46.8737 12.8089 46.6818 13.1662C46.4898 13.5235 46.3939 13.9358 46.3939 14.403C46.3939 14.8565 46.4898 15.2688 46.6818 15.6398C46.8737 15.9971 47.1411 16.2788 47.4838 16.4849C47.8266 16.6773 48.2174 16.7735 48.6561 16.7735Z" fill="#797FFF"/>
<path fill-rule="evenodd" clip-rule="evenodd" d="M56.6199 23.3287C57.4562 23.7134 58.4228 23.9058 59.5197 23.9058C60.5891 23.9058 61.5421 23.6928 62.3784 23.2668C63.2148 22.8408 63.8728 22.2499 64.3527 21.4941C64.8326 20.7383 65.0728 19.8451 65.0728 18.8144V9.39417H61.9876V10.0672C61.7581 9.87367 61.4976 9.71117 61.2061 9.57968C60.6714 9.31857 60.0612 9.18799 59.3758 9.18799C58.4571 9.18799 57.6413 9.40788 56.9284 9.84761C56.2154 10.2736 55.6533 10.8645 55.2419 11.6204C54.8306 12.3625 54.625 13.2007 54.625 14.1352C54.625 15.0559 54.8306 15.8942 55.2419 16.65C55.6533 17.4058 56.2154 18.0036 56.9284 18.4433C57.6413 18.8831 58.4571 19.103 59.3758 19.103C60.0476 19.103 60.6577 18.9724 61.2061 18.7113C61.4718 18.5848 61.7117 18.4358 61.9259 18.2641V18.8968C61.9259 19.5977 61.6997 20.1405 61.2472 20.5253C60.8085 20.9101 60.1984 21.1024 59.4169 21.1024C58.7862 21.1024 58.2446 20.9925 57.7922 20.7726C57.3534 20.5528 56.9558 20.2298 56.5993 19.8038L54.6661 21.7414C55.146 22.4286 55.7973 22.9577 56.6199 23.3287ZM61.1033 16.011C60.7879 16.2034 60.4109 16.2996 59.9721 16.2996C59.5334 16.2996 59.1495 16.2034 58.8204 16.011C58.5051 15.8186 58.2583 15.5575 58.0801 15.2277C57.9018 14.8841 57.8127 14.5199 57.8127 14.1352C57.8127 13.7229 57.9018 13.3519 58.0801 13.0221C58.2583 12.6923 58.5119 12.4312 58.841 12.2388C59.1701 12.0464 59.5471 11.9502 59.9721 11.9502C60.4109 11.9502 60.7879 12.0464 61.1033 12.2388C61.4323 12.4312 61.6791 12.6923 61.8437 13.0221C62.0219 13.3519 62.111 13.7229 62.111 14.1352C62.111 14.5474 62.0219 14.9185 61.8437 15.2483C61.6791 15.5644 61.4323 15.8186 61.1033 16.011Z" fill="#797FFF"/>
<path fill-rule="evenodd" clip-rule="evenodd" d="M71.6935 19.6387C70.665 19.6387 69.7324 19.412 68.8965 18.9585C68.0735 18.4913 67.4224 17.8592 66.9425 17.0621C66.4626 16.265 66.2227 15.3718 66.2227 14.3824C66.2227 13.393 66.4626 12.5066 66.9425 11.7233C67.4224 10.94 68.0735 10.3216 68.8965 9.86813C69.7188 9.40085 70.6514 9.16724 71.6935 9.16724C72.735 9.16724 73.6676 9.39402 74.4899 9.84746C75.3129 10.301 75.964 10.9263 76.4439 11.7233C76.9238 12.5066 77.1638 13.393 77.1638 14.3824C77.1638 15.3718 76.9238 16.265 76.4439 17.0621C75.964 17.8592 75.3129 18.4913 74.4899 18.9585C73.6676 19.412 72.735 19.6387 71.6935 19.6387ZM71.6935 16.7735C72.1455 16.7735 72.5431 16.6773 72.8861 16.4849C73.2286 16.2788 73.4893 15.9971 73.6676 15.6398C73.8596 15.2688 73.9555 14.8496 73.9555 14.3824C73.9555 13.9152 73.8596 13.5098 73.6676 13.1662C73.4756 12.8089 73.2085 12.5341 72.8654 12.3417C72.5366 12.1355 72.1455 12.0325 71.6935 12.0325C71.2545 12.0325 70.8634 12.1355 70.521 12.3417C70.1779 12.5341 69.9108 12.8089 69.7188 13.1662C69.5268 13.5235 69.4309 13.9358 69.4309 14.403C69.4309 14.8565 69.5268 15.2688 69.7188 15.6398C69.9108 15.9971 70.1779 16.2788 70.521 16.4849C70.8634 16.6773 71.2545 16.7735 71.6935 16.7735Z" fill="#797FFF"/>
<path fill-rule="evenodd" clip-rule="evenodd" d="M89.0297 19.6183C88.3584 19.6183 87.7411 19.4878 87.1788 19.2267C86.8831 19.0892 86.6159 18.9252 86.3772 18.7345V23.6379H83.2715V9.39417H86.4181V10.0856C86.6464 9.89844 86.8999 9.73665 87.1788 9.60028C87.7411 9.3254 88.3584 9.18799 89.0297 9.18799C89.9758 9.18799 90.8124 9.41477 91.5388 9.86828C92.2794 10.3217 92.8552 10.9401 93.2664 11.7234C93.6918 12.5068 93.9039 13.4 93.9039 14.4031C93.9039 15.4063 93.6918 16.2996 93.2664 17.0829C92.8552 17.8662 92.2794 18.4845 91.5388 18.9381C90.8124 19.3916 89.9758 19.6183 89.0297 19.6183ZM88.4544 16.7737C88.9064 16.7737 89.2975 16.6706 89.6263 16.4645C89.9694 16.2584 90.2365 15.9766 90.4285 15.6193C90.6205 15.262 90.7164 14.8566 90.7164 14.4031C90.7164 13.9359 90.6205 13.5237 90.4285 13.1664C90.2365 12.8091 89.9694 12.5343 89.6263 12.3419C89.2975 12.1357 88.9136 12.0326 88.4745 12.0326C88.0361 12.0326 87.6451 12.1357 87.3027 12.3419C86.9732 12.5343 86.7132 12.8091 86.5212 13.1664C86.3292 13.5237 86.2333 13.9359 86.2333 14.4031C86.2333 14.8566 86.3221 15.262 86.5004 15.6193C86.6924 15.9766 86.9596 16.2584 87.3027 16.4645C87.6451 16.6706 88.029 16.7737 88.4544 16.7737Z" fill="#797FFF"/>
<path d="M96.9819 19.4327C97.5577 19.5839 98.1401 19.6594 98.7296 19.6594C99.9773 19.6594 100.964 19.3709 101.691 18.7937C102.431 18.2165 102.802 17.4401 102.802 16.4644C102.802 15.8323 102.686 15.3238 102.452 14.939C102.219 14.5405 101.918 14.2244 101.547 13.9908C101.177 13.7572 100.786 13.5716 100.375 13.4342C99.9637 13.2968 99.5727 13.18 99.203 13.0838C98.8327 12.9876 98.5312 12.8777 98.2977 12.754C98.0649 12.6303 97.9481 12.4654 97.9481 12.2593C97.9481 12.0669 98.0376 11.9226 98.2153 11.8264C98.3937 11.7165 98.6609 11.6615 99.0175 11.6615C99.3878 11.6615 99.7646 11.7371 100.149 11.8882C100.546 12.0394 100.903 12.3005 101.218 12.6716L103.007 10.8576C102.555 10.2804 101.966 9.84751 101.239 9.55897C100.526 9.25666 99.7445 9.10547 98.8943 9.10547C98.0856 9.10547 97.3794 9.24288 96.7763 9.5177C96.1725 9.79258 95.7062 10.1705 95.3774 10.6514C95.0486 11.1186 94.8839 11.6752 94.8839 12.3211C94.8839 12.9258 95.0006 13.4274 95.2335 13.8259C95.4663 14.2106 95.7685 14.513 96.1381 14.7328C96.5084 14.9527 96.8995 15.1245 97.3106 15.2482C97.7218 15.3719 98.1129 15.4887 98.4832 15.5986C98.8528 15.6948 99.155 15.8116 99.3878 15.9491C99.6349 16.0728 99.7581 16.2583 99.7581 16.5056C99.7581 16.698 99.655 16.8491 99.4495 16.9591C99.2575 17.069 98.9767 17.124 98.6064 17.124C98.0714 17.124 97.5778 17.0278 97.1258 16.8354C96.6732 16.6293 96.2821 16.3476 95.9533 15.9903L94.1641 17.8042C94.5071 18.1752 94.9183 18.5051 95.3982 18.7937C95.8917 19.0685 96.4196 19.2815 96.9819 19.4327Z" fill="#797FFF"/>
<path d="M108.54 19.6388C107.622 19.6388 106.806 19.4532 106.093 19.0822C105.394 18.6974 104.846 18.1752 104.448 17.5156C104.05 16.8423 103.852 16.0727 103.852 15.2069V9.39404H106.998V15.1657C106.998 15.5092 107.053 15.8047 107.163 16.0521C107.286 16.2994 107.464 16.4918 107.697 16.6293C107.931 16.7667 108.212 16.8354 108.54 16.8354C109.007 16.8354 109.377 16.6911 109.651 16.4025C109.926 16.1002 110.062 15.6879 110.062 15.1657V9.39404H113.209V15.1863C113.209 16.0658 113.011 16.8423 112.612 17.5156C112.215 18.1752 111.667 18.6974 110.967 19.0822C110.268 19.4532 109.459 19.6388 108.54 19.6388Z" fill="#797FFF"/>
<path d="M117.92 9.39412H114.773V19.4121H117.92V13.558C117.92 13.2144 117.989 12.9258 118.126 12.6922C118.277 12.4586 118.476 12.2799 118.722 12.1563C118.969 12.0188 119.25 11.9501 119.565 11.9501C120.018 11.9501 120.395 12.0944 120.696 12.383C121.012 12.6578 121.17 13.0495 121.17 13.558V19.4121H124.316V13.558C124.316 13.2144 124.385 12.9258 124.522 12.6922C124.673 12.4586 124.871 12.2799 125.119 12.1563C125.365 12.0188 125.646 11.9501 125.962 11.9501C126.414 11.9501 126.791 12.0944 127.093 12.383C127.408 12.6578 127.565 13.0495 127.565 13.558V19.4121H130.713V13.2075C130.713 12.3693 130.534 11.6547 130.178 11.0638C129.835 10.4591 129.362 9.99875 128.759 9.68272C128.169 9.35285 127.49 9.18794 126.722 9.18794C125.941 9.18794 125.235 9.35974 124.604 9.70333C124.194 9.92218 123.836 10.2047 123.53 10.5507C123.244 10.1887 122.896 9.89254 122.486 9.66205C121.938 9.34602 121.314 9.18794 120.615 9.18794C119.874 9.18794 119.209 9.34602 118.62 9.66205C118.363 9.79355 118.13 9.95104 117.92 10.1345V9.39412Z" fill="#797FFF"/>
</g>
<defs>
<clipPath id="clip0_19_11800">
<rect width="131" height="26" fill="white"/>
</clipPath>
</defs>
</svg>
