<svg width="14" height="16" viewBox="0 0 14 16" fill="none" xmlns="http://www.w3.org/2000/svg">
<g clip-path="url(#clip0_18_11680)">
<path d="M6.25 14.75H3C1.89543 14.75 1 13.8546 1 12.75V3.25C1 2.14543 1.89543 1.25 3 1.25H10.5C11.0523 1.25 11.5 1.69772 11.5 2.25V8" stroke="white" stroke-linecap="round" stroke-linejoin="round"/>
<path d="M3.25 1.25V14.75" stroke="white" stroke-linecap="round" stroke-linejoin="round"/>
<path d="M5.5 3.5L9.25 3.5" stroke="white" stroke-linecap="round" stroke-linejoin="round"/>
<path d="M5.5 5.75L7.75 5.75" stroke="white" stroke-linecap="round" stroke-linejoin="round"/>
<path d="M8.5 14.75V13.5751C8.5 13.3786 8.57806 13.1901 8.71701 13.0512L11.3011 10.467C11.5905 10.1777 12.0596 10.1777 12.349 10.467L12.783 10.901C13.0723 11.1904 13.0723 11.6595 12.783 11.9488L10.1988 14.533C10.0599 14.6719 9.87144 14.75 9.67494 14.75H8.5Z" stroke="white" stroke-linecap="round" stroke-linejoin="round"/>
</g>
<defs>
<clipPath id="clip0_18_11680">
<rect width="14" height="16" fill="white"/>
</clipPath>
</defs>
</svg>
