<svg width="40" height="40" viewBox="0 0 40 40" fill="none" xmlns="http://www.w3.org/2000/svg">
<path d="M28.3327 3.33301V6.66634M19.9993 3.33301V6.66634M11.666 3.33301V6.66634" stroke="white" stroke-width="2" stroke-linecap="round" stroke-linejoin="round"/>
<path d="M5.83398 21.6667V15C5.83398 10.286 5.83398 7.92893 7.29845 6.46447C8.76292 5 11.1199 5 15.834 5H24.1673C28.8814 5 31.2384 5 32.7029 6.46447C34.1673 7.92893 34.1673 10.286 34.1673 15V21.6667C34.1673 26.3807 34.1673 28.7377 32.7029 30.2022C31.2384 31.6667 28.8814 31.6667 24.1673 31.6667H15.834C11.1199 31.6667 8.76292 31.6667 7.29845 30.2022C5.83398 28.7377 5.83398 26.3807 5.83398 21.6667Z" stroke="white" stroke-width="2"/>
<path d="M5.83398 26.6667V15C5.83398 10.286 5.83398 7.92893 7.29845 6.46447C8.76292 5 11.1199 5 15.834 5H24.1673C28.8814 5 31.2384 5 32.7029 6.46447C34.1673 7.92893 34.1673 10.286 34.1673 15V26.6667C34.1673 31.3807 34.1673 33.7377 32.7029 35.2022C31.2384 36.6667 28.8814 36.6667 24.1673 36.6667H15.834C11.1199 36.6667 8.76292 36.6667 7.29845 35.2022C5.83398 33.7377 5.83398 31.3807 5.83398 26.6667Z" stroke="white" stroke-width="2"/>
<path d="M13.334 25.0003H20.0007M13.334 16.667H26.6673" stroke="white" stroke-width="2" stroke-linecap="round"/>
</svg>
