<svg width="17" height="14" viewBox="0 0 17 14" fill="none" xmlns="http://www.w3.org/2000/svg">
<g clip-path="url(#clip0_18_11666)">
<path d="M16.127 1.9668C15.5293 2.22462 14.8789 2.41016 14.209 2.48243C14.9045 2.06922 15.4254 1.41641 15.6738 0.646492C15.0212 1.03475 14.3062 1.30701 13.5605 1.45118C13.2489 1.11803 12.872 0.852625 12.4533 0.671507C12.0346 0.490389 11.5831 0.397438 11.127 0.398446C9.28125 0.398446 7.79687 1.89454 7.79687 3.73048C7.79687 3.98829 7.82812 4.2461 7.87891 4.49415C5.11523 4.34962 2.65039 3.0293 1.01172 1.00782C0.713135 1.51781 0.556667 2.0985 0.558594 2.68946C0.558594 3.84571 1.14648 4.86524 2.04297 5.46485C1.51466 5.44405 0.998716 5.29883 0.537109 5.04102V5.08204C0.537109 6.70118 1.68164 8.04298 3.20703 8.35157C2.92062 8.42597 2.62599 8.46403 2.33008 8.46485C2.11328 8.46485 1.9082 8.44337 1.70117 8.41407C2.12305 9.73438 3.35156 10.6934 4.81445 10.7246C3.66992 11.6211 2.23633 12.1484 0.679688 12.1484C0.400391 12.1484 0.142578 12.1387 -0.125 12.1074C1.35156 13.0547 3.10352 13.6016 4.99023 13.6016C11.1152 13.6016 14.4668 8.52735 14.4668 4.12306C14.4668 3.97852 14.4668 3.83399 14.457 3.68946C15.1055 3.21485 15.6738 2.62696 16.127 1.9668Z" fill="white"/>
</g>
<defs>
<clipPath id="clip0_18_11666">
<rect width="17" height="14" fill="white"/>
</clipPath>
</defs>
</svg>
