<svg width="25" height="25" viewBox="0 0 25 25" fill="none" xmlns="http://www.w3.org/2000/svg">
<path d="M8.5 1V23.5M7 1H17.5C19.6002 1 20.6503 1 21.4525 1.40873C22.1581 1.76825 22.7317 2.34193 23.0913 3.04754C23.5 3.8497 23.5 4.8998 23.5 7V17.5C23.5 19.6002 23.5 20.6503 23.0913 21.4525C22.7317 22.1581 22.1581 22.7317 21.4525 23.0913C20.6503 23.5 19.6002 23.5 17.5 23.5H7C4.8998 23.5 3.8497 23.5 3.04754 23.0913C2.34193 22.7317 1.76825 22.1581 1.40873 21.4525C1 20.6503 1 19.6002 1 17.5V7C1 4.8998 1 3.8497 1.40873 3.04754C1.76825 2.34193 2.34193 1.76825 3.04754 1.40873C3.8497 1 4.8998 1 7 1Z" stroke="#3B44FF" stroke-width="2" stroke-linecap="round" stroke-linejoin="round"/>
</svg>
