<svg width="18" height="18" viewBox="0 0 18 18" fill="none" xmlns="http://www.w3.org/2000/svg">
<path d="M15.7388 3.3131C15.7221 3.03883 15.6056 2.78014 15.4113 2.58585C15.217 2.39155 14.9583 2.27508 14.6841 2.25841C13.7995 2.20568 11.539 2.28654 9.66306 4.16177L9.32907 4.49998H5.22774C5.07944 4.49914 4.93245 4.5278 4.79532 4.58429C4.6582 4.64079 4.53367 4.72398 4.42899 4.82904L2.01728 7.24216C1.86937 7.38997 1.76559 7.57607 1.71757 7.77957C1.66955 7.98308 1.6792 8.19595 1.74543 8.39428C1.81166 8.5926 1.93185 8.76855 2.09252 8.90237C2.25319 9.03619 2.44797 9.12258 2.65501 9.15185L5.35993 9.52943L8.46845 12.6379L8.84603 15.3443C8.87506 15.5513 8.96143 15.7461 9.09538 15.9067C9.22932 16.0672 9.4055 16.1871 9.60399 16.2527C9.71961 16.2913 9.8407 16.311 9.96259 16.3111C10.1102 16.3113 10.2564 16.2824 10.3927 16.2259C10.5291 16.1695 10.6529 16.0866 10.7571 15.982L13.1702 13.5703C13.2753 13.4656 13.3585 13.3411 13.415 13.204C13.4715 13.0668 13.5001 12.9198 13.4993 12.7715V8.67021L13.8347 8.33482C15.7106 6.45888 15.7915 4.19834 15.7388 3.3131ZM5.22774 5.62498H8.20407L5.42462 8.40373L2.81181 8.03951L5.22774 5.62498ZM10.4597 4.96052C11.0002 4.41668 11.6505 3.99443 12.3673 3.72198C13.084 3.44953 13.8506 3.33314 14.6159 3.3806C14.6652 4.14629 14.55 4.91366 14.2781 5.63114C14.0062 6.34862 13.5838 6.99958 13.0395 7.54029L8.99931 11.579L6.42024 8.99998L10.4597 4.96052ZM12.3743 12.7715L9.96048 15.1875L9.59556 12.574L12.3743 9.79521V12.7715ZM7.15993 13.4395C6.84353 14.1328 5.78532 15.75 2.81181 15.75C2.66262 15.75 2.51955 15.6907 2.41406 15.5852C2.30857 15.4797 2.24931 15.3367 2.24931 15.1875C2.24931 12.214 3.86649 11.1558 4.55978 10.8386C4.627 10.808 4.6996 10.7909 4.77343 10.7883C4.84727 10.7857 4.92089 10.7977 4.9901 10.8235C5.05931 10.8494 5.12275 10.8886 5.17679 10.939C5.23084 10.9893 5.27443 11.0499 5.30509 11.1171C5.33574 11.1843 5.35286 11.2569 5.35546 11.3307C5.35805 11.4046 5.34608 11.4782 5.32023 11.5474C5.29437 11.6166 5.25514 11.6801 5.20477 11.7341C5.1544 11.7881 5.09387 11.8317 5.02665 11.8624C4.57454 12.0684 3.57681 12.7315 3.40103 14.5983C5.26782 14.4225 5.93228 13.4247 6.13689 12.9726C6.16754 12.9054 6.21114 12.8449 6.26518 12.7945C6.31923 12.7441 6.38267 12.7049 6.45188 12.6791C6.52108 12.6532 6.59471 12.6412 6.66854 12.6438C6.74238 12.6464 6.81498 12.6635 6.8822 12.6942C6.94942 12.7249 7.00994 12.7684 7.06031 12.8225C7.11069 12.8765 7.14992 12.94 7.17578 13.0092C7.20163 13.0784 7.2136 13.152 7.211 13.2259C7.20841 13.2997 7.19129 13.3723 7.16063 13.4395H7.15993Z" fill="white"/>
</svg>
