<svg width="32" height="32" viewBox="0 0 32 32" fill="none" xmlns="http://www.w3.org/2000/svg">
<path d="M9.78613 3C10.7086 3 11.5443 3.54372 11.9189 4.38672L13.8984 8.83984C14.2595 9.65229 14.1278 10.5992 13.5586 11.2822L11.2783 14.0195C11.1959 14.1185 11.1825 14.2474 11.2275 14.3477C12.0701 16.2204 12.784 17.3934 13.6953 18.3047C14.6066 19.216 15.7796 19.9299 17.6523 20.7725C17.7525 20.8175 17.8816 20.805 17.9805 20.7227L20.7178 18.4414C21.4008 17.8722 22.3477 17.7405 23.1602 18.1016L27.6133 20.0811C28.4563 20.4557 29 21.2914 29 22.2139V26.6846C28.9998 27.9676 27.952 29.0373 26.6348 28.999C19.1353 28.7813 13.2954 26.7368 9.2793 22.7207C5.26318 18.7046 3.21872 12.8647 3.00098 5.36523C2.96276 4.04806 4.03246 3.00022 5.31543 3H9.78613ZM5.31543 5C5.12492 5.00021 4.99548 5.15179 5 5.30762C5.20861 12.4904 7.15516 17.7684 10.6934 21.3066C14.2316 24.8448 19.5096 26.7914 26.6924 27C26.8482 27.0045 26.9998 26.8751 27 26.6846V22.2139C27 22.0818 26.9224 21.9619 26.8018 21.9082L22.3477 19.9287C22.2314 19.8771 22.0958 19.8961 21.998 19.9775L19.2607 22.2588C18.5888 22.8187 17.647 22.9632 16.832 22.5967C14.8743 21.7158 13.4448 20.8823 12.2812 19.7188C11.1177 18.5552 10.2842 17.1257 9.40332 15.168C9.03678 14.353 9.18126 13.4112 9.74121 12.7393L12.0225 10.002C12.1039 9.90417 12.1229 9.76864 12.0713 9.65234L10.0918 5.19824C10.0381 5.07762 9.91819 5 9.78613 5H5.31543Z" fill="white"/>
</svg>
