<svg width="95" height="22" viewBox="0 0 95 22" fill="none" xmlns="http://www.w3.org/2000/svg">
<g clip-path="url(#clip0_12_5552)">
<path d="M10 1C12.6522 1 15.196 2.05334 17.0713 3.92871C17.4079 4.26529 17.7177 4.62359 18 5H10C8.4087 5 6.88255 5.6321 5.7573 6.7573C4.6321 7.88255 4 9.4087 4 11H10L18.4551 5.65967C19.0828 6.6537 19.5306 7.75135 19.7773 8.90135L16 11H20L19.997 11.2486C19.9334 13.8106 18.888 16.2546 17.0713 18.0713C15.196 19.9467 12.6522 21 10 21C7.34785 21 4.80408 19.9467 2.92871 18.0713C2.59213 17.7347 2.28229 17.3764 2 17H10C11.5913 17 13.1174 16.3679 14.2427 15.2427C15.2976 14.1877 15.9191 12.7804 15.9927 11.2973L16 11H10L1.54492 16.3393C0.91726 15.3453 0.470501 14.2475 0.223633 13.0976L4 11H0C4.00465e-07 8.34785 1.05335 5.80408 2.92871 3.92871C4.80408 2.05335 7.34785 1 10 1Z" fill="white"/>
</g>
<path d="M38.5781 8.34801C38.5099 7.7429 38.2287 7.27415 37.7344 6.94176C37.2401 6.60511 36.6179 6.43679 35.8679 6.43679C35.331 6.43679 34.8665 6.52202 34.4744 6.69247C34.0824 6.85866 33.7777 7.08878 33.5604 7.38281C33.3473 7.67258 33.2408 8.00284 33.2408 8.37358C33.2408 8.68466 33.3132 8.95312 33.4581 9.17898C33.6072 9.40483 33.8011 9.59446 34.0398 9.74787C34.2827 9.89702 34.5426 10.0227 34.8196 10.125C35.0966 10.223 35.3629 10.304 35.6186 10.3679L36.897 10.7003C37.3146 10.8026 37.7429 10.9411 38.1818 11.1158C38.6207 11.2905 39.0277 11.5206 39.4027 11.8061C39.7777 12.0916 40.0803 12.4453 40.3104 12.8672C40.5447 13.2891 40.6619 13.794 40.6619 14.3821C40.6619 15.1236 40.4702 15.782 40.0866 16.3572C39.7074 16.9325 39.1555 17.3864 38.4311 17.7188C37.7109 18.0511 36.8395 18.2173 35.8168 18.2173C34.8366 18.2173 33.9886 18.0618 33.2727 17.7507C32.5568 17.4396 31.9964 16.9986 31.5916 16.4276C31.1868 15.8523 30.9631 15.1705 30.9205 14.3821H32.902C32.9403 14.8551 33.0938 15.2493 33.3622 15.5646C33.6349 15.8757 33.9822 16.108 34.4041 16.2614C34.8303 16.4105 35.2969 16.4851 35.804 16.4851C36.3622 16.4851 36.8587 16.3977 37.2933 16.223C37.7322 16.044 38.0774 15.7969 38.3288 15.4815C38.5803 15.1619 38.706 14.7891 38.706 14.3629C38.706 13.9751 38.5952 13.6577 38.3736 13.4105C38.1563 13.1634 37.8601 12.9588 37.4851 12.7969C37.1143 12.6349 36.6946 12.4922 36.2259 12.3686L34.679 11.9467C33.6307 11.6612 32.7997 11.2415 32.1861 10.6875C31.5767 10.1335 31.272 9.40057 31.272 8.48864C31.272 7.73437 31.4766 7.07599 31.8857 6.51349C32.2947 5.95099 32.8487 5.5142 33.5476 5.20312C34.2464 4.88778 35.0348 4.73011 35.9126 4.73011C36.799 4.73011 37.581 4.88565 38.2585 5.19673C38.9403 5.50781 39.4773 5.93608 39.8693 6.48153C40.2614 7.02273 40.4659 7.64489 40.483 8.34801H38.5781ZM46.2003 18.1982C45.233 18.1982 44.3999 17.9915 43.701 17.5781C43.0064 17.1605 42.4695 16.5746 42.0902 15.8203C41.7152 15.0618 41.5277 14.1733 41.5277 13.1548C41.5277 12.1491 41.7152 11.2628 42.0902 10.4957C42.4695 9.72869 42.9979 9.12997 43.6755 8.69957C44.3573 8.26918 45.1542 8.05398 46.0661 8.05398C46.6201 8.05398 47.157 8.1456 47.6769 8.32884C48.1968 8.51207 48.6634 8.79972 49.0767 9.19176C49.4901 9.58381 49.8161 10.093 50.0547 10.7195C50.2934 11.3416 50.4127 12.098 50.4127 12.9886V13.6662H42.608V12.2344H48.5398C48.5398 11.7315 48.4375 11.2862 48.233 10.8984C48.0284 10.5064 47.7408 10.1974 47.3701 9.97159C47.0036 9.74574 46.5732 9.63281 46.0789 9.63281C45.5419 9.63281 45.0732 9.76491 44.6726 10.0291C44.2763 10.2891 43.9695 10.63 43.7522 11.0518C43.5391 11.4695 43.4326 11.9233 43.4326 12.4134V13.532C43.4326 14.1882 43.5476 14.7464 43.7777 15.2067C44.0121 15.6669 44.3381 16.0185 44.7557 16.2614C45.1733 16.5 45.6613 16.6193 46.2195 16.6193C46.5817 16.6193 46.912 16.5682 47.2103 16.4659C47.5086 16.3594 47.7664 16.2017 47.9837 15.9929C48.201 15.7841 48.3672 15.5263 48.4823 15.2195L50.2912 15.5455C50.1463 16.0781 49.8864 16.5447 49.5114 16.9453C49.1407 17.3416 48.674 17.6506 48.1115 17.8722C47.5533 18.0895 46.9162 18.1982 46.2003 18.1982ZM53.5445 12.1705V18H51.6332V8.18182H53.4678V9.77983H53.5892C53.8151 9.25994 54.1688 8.84233 54.6503 8.52699C55.1361 8.21165 55.7476 8.05398 56.4848 8.05398C57.1538 8.05398 57.7398 8.1946 58.2426 8.47585C58.7455 8.75284 59.1354 9.16619 59.4124 9.71591C59.6893 10.2656 59.8278 10.9453 59.8278 11.755V18H57.9166V11.9851C57.9166 11.2734 57.7313 10.7173 57.3605 10.3168C56.9898 9.91193 56.4805 9.70952 55.8328 9.70952C55.3896 9.70952 54.9955 9.8054 54.6503 9.99716C54.3094 10.1889 54.0388 10.4702 53.8385 10.8409C53.6425 11.2074 53.5445 11.6506 53.5445 12.1705ZM66.0741 8.18182V9.71591H60.7112V8.18182H66.0741ZM62.1494 5.82955H64.0607V15.1172C64.0607 15.4879 64.1161 15.767 64.2268 15.9545C64.3376 16.1378 64.4804 16.2635 64.6551 16.3317C64.8341 16.3956 65.028 16.4276 65.2368 16.4276C65.3902 16.4276 65.5244 16.4169 65.6395 16.3956C65.7545 16.3743 65.844 16.3572 65.908 16.3445L66.2531 17.9233C66.1423 17.9659 65.9847 18.0085 65.7801 18.0511C65.5756 18.098 65.3199 18.1236 65.0131 18.1278C64.5102 18.1364 64.0415 18.0469 63.6068 17.8594C63.1722 17.6719 62.8206 17.3821 62.5521 16.9901C62.2837 16.598 62.1494 16.1058 62.1494 15.5135V5.82955ZM67.2883 18V8.18182H69.1356V9.74148H69.2379C69.4169 9.21307 69.7322 8.79758 70.1839 8.49503C70.6399 8.18821 71.1555 8.0348 71.7308 8.0348C71.8501 8.0348 71.9907 8.03906 72.1527 8.04759C72.3189 8.05611 72.4488 8.06676 72.5426 8.07955V9.90767C72.4659 9.88636 72.3295 9.86293 72.1335 9.83736C71.9375 9.80753 71.7414 9.79261 71.5454 9.79261C71.0937 9.79261 70.691 9.88849 70.3373 10.0803C69.9879 10.2678 69.7109 10.5298 69.5064 10.8665C69.3018 11.1989 69.1995 11.5781 69.1995 12.0043V18H67.2883ZM73.2965 18V8.18182H75.2077V18H73.2965ZM74.2617 6.6669C73.9293 6.6669 73.6438 6.55611 73.4052 6.33452C73.1708 6.10866 73.0536 5.8402 73.0536 5.52912C73.0536 5.21378 73.1708 4.94531 73.4052 4.72372C73.6438 4.49787 73.9293 4.38494 74.2617 4.38494C74.5941 4.38494 74.8775 4.49787 75.1119 4.72372C75.3505 4.94531 75.4698 5.21378 75.4698 5.52912C75.4698 5.8402 75.3505 6.10866 75.1119 6.33452C74.8775 6.55611 74.5941 6.6669 74.2617 6.6669ZM78.3875 8.18182L80.5544 12.0043L82.7404 8.18182H84.8306L81.7689 13.0909L84.8562 18H82.766L80.5544 14.331L78.3491 18H76.2525L79.3079 13.0909L76.2909 8.18182H78.3875ZM88.7327 18.2173C88.1105 18.2173 87.548 18.1023 87.0452 17.8722C86.5423 17.6378 86.1439 17.299 85.8499 16.8558C85.5601 16.4126 85.4152 15.8693 85.4152 15.2259C85.4152 14.6719 85.5217 14.2159 85.7348 13.858C85.9479 13.5 86.2355 13.2166 86.5977 13.0078C86.9599 12.799 87.3648 12.6413 87.8122 12.5348C88.2597 12.4283 88.7156 12.3473 89.1801 12.2919C89.7682 12.2237 90.2455 12.1683 90.6119 12.1257C90.9784 12.0788 91.2447 12.0043 91.4109 11.902C91.5771 11.7997 91.6602 11.6335 91.6602 11.4034V11.3587C91.6602 10.8004 91.5026 10.3679 91.1872 10.0611C90.8761 9.75426 90.4116 9.60085 89.7938 9.60085C89.1503 9.60085 88.6432 9.74361 88.2724 10.0291C87.906 10.3104 87.6524 10.6236 87.5118 10.9688L85.7156 10.5597C85.9287 9.96307 86.2398 9.48153 86.6489 9.11506C87.0622 8.74432 87.5374 8.47585 88.0743 8.30966C88.6112 8.1392 89.1759 8.05398 89.7682 8.05398C90.1602 8.05398 90.5757 8.10085 91.0146 8.1946C91.4578 8.28409 91.8712 8.45028 92.2547 8.69318C92.6425 8.93608 92.9599 9.28338 93.2071 9.73509C93.4543 10.1825 93.5778 10.7642 93.5778 11.4801V18H91.7114V16.6577H91.6347C91.5111 16.9048 91.3257 17.1477 91.0786 17.3864C90.8314 17.625 90.5139 17.8232 90.1261 17.9808C89.7384 18.1385 89.2739 18.2173 88.7327 18.2173ZM89.1482 16.6832C89.6766 16.6832 90.1283 16.5788 90.5033 16.37C90.8825 16.1612 91.1702 15.8885 91.3662 15.5518C91.5665 15.2109 91.6666 14.8466 91.6666 14.4588V13.1932C91.5984 13.2614 91.4663 13.3253 91.2703 13.3849C91.0786 13.4403 90.8591 13.4893 90.6119 13.532C90.3648 13.5703 90.124 13.6065 89.8896 13.6406C89.6553 13.6705 89.4592 13.696 89.3016 13.7173C88.9308 13.7642 88.592 13.843 88.2852 13.9538C87.9827 14.0646 87.7398 14.2244 87.5565 14.4332C87.3776 14.6378 87.2881 14.9105 87.2881 15.2514C87.2881 15.7244 87.4628 16.0824 87.8122 16.3253C88.1616 16.5639 88.607 16.6832 89.1482 16.6832Z" fill="white"/>
<defs>
<clipPath id="clip0_12_5552">
<rect width="20" height="20" fill="white" transform="translate(0 1)"/>
</clipPath>
</defs>
</svg>
