<svg width="26" height="26" viewBox="0 0 26 26" fill="none" xmlns="http://www.w3.org/2000/svg">
<path d="M24.25 8.58625V6.615C24.25 3.9275 22.0713 1.75 19.3837 1.75H17.8125" stroke="white" stroke-width="1.5" stroke-linecap="round" stroke-linejoin="round"/>
<path d="M1.75 8.58625V6.615C1.75 3.9275 3.92875 1.75 6.61625 1.75H8.2275" stroke="white" stroke-width="1.5" stroke-linecap="round" stroke-linejoin="round"/>
<path d="M1.75 17.4141V19.3854C1.75 22.0729 3.92875 24.2503 6.61625 24.2503H8.1875" stroke="white" stroke-width="1.5" stroke-linecap="round" stroke-linejoin="round"/>
<path d="M24.2509 17.4141V19.3854C24.2509 22.0729 22.0722 24.2503 19.3847 24.2503H17.7734" stroke="white" stroke-width="1.5" stroke-linecap="round" stroke-linejoin="round"/>
<path fill-rule="evenodd" clip-rule="evenodd" d="M16.4775 7.84375H9.52C7.83625 7.84375 6.78125 9.035 6.78125 10.7225V15.2738C6.78125 16.96 7.83125 18.1525 9.52 18.1525H16.4775C18.1663 18.1525 19.2163 16.96 19.2163 15.2738V10.7225C19.2163 9.035 18.1663 7.84375 16.4775 7.84375Z" stroke="white" stroke-width="1.5" stroke-linecap="round" stroke-linejoin="round"/>
<path d="M6.78125 11.8867H19.2163" stroke="white" stroke-width="1.5" stroke-linecap="round" stroke-linejoin="round"/>
</svg>
