<svg width="190" height="28" viewBox="0 0 190 28" fill="none" xmlns="http://www.w3.org/2000/svg">
<g clip-path="url(#clip0_19_11715)">
<path d="M114.975 7.90874V20.0913H112.096V7.90874H114.975Z" fill="#797FFF"/>
<path d="M44.4341 17.2055H55.7913V20.091H41.5547V8.22925H44.4341V17.2055Z" fill="#797FFF"/>
<path d="M145.527 16.3243C145.527 15.8374 145.133 15.4427 144.647 15.4427H136.489C134.413 15.4427 132.73 13.7561 132.73 11.6757C132.73 9.5952 134.413 7.90869 136.489 7.90869H148.086V10.794H136.489C136.003 10.794 135.609 11.1888 135.609 11.6757C135.609 12.1626 136.003 12.5573 136.489 12.5573H144.647C146.723 12.5573 148.406 14.2438 148.406 16.3243C148.406 18.4047 146.723 20.0913 144.647 20.0913H133.05V17.2059H144.647C145.133 17.2059 145.527 16.8112 145.527 16.3243Z" fill="#797FFF"/>
<path fill-rule="evenodd" clip-rule="evenodd" d="M127.533 7.90874C130.051 7.90874 132.092 9.95414 132.092 12.4772C132.092 15.0003 130.051 17.0456 127.533 17.0456H118.815V20.0913H115.936V7.90874H127.533ZM118.815 14.1603H127.533C128.46 14.1603 129.212 13.4067 129.212 12.4772C129.212 11.5476 128.46 10.7941 127.533 10.7941H118.815V14.1603Z" fill="#797FFF"/>
<path d="M70.9865 14C70.9865 12.2294 69.5545 10.7941 67.7876 10.7941H61.5492C59.7823 10.7941 58.35 12.2294 58.35 14C58.35 15.7706 59.7823 17.2059 61.5492 17.2059H67.7876C69.5545 17.2059 70.9865 15.7706 70.9865 14ZM73.8658 14C73.8658 17.3641 71.1444 20.0913 67.7876 20.0913H61.5492C58.1921 20.0913 55.4707 17.3641 55.4707 14C55.4707 10.6359 58.1921 7.90874 61.5492 7.90874H67.7876C71.1444 7.90874 73.8658 10.6359 73.8658 14Z" fill="#797FFF"/>
<path d="M108.418 14C108.418 12.2294 106.986 10.7941 105.22 10.7941H98.981C97.2137 10.7941 95.7817 12.2294 95.7817 14C95.7817 15.7706 97.2137 17.2059 98.981 17.2059H105.22C106.986 17.2059 108.418 15.7706 108.418 14ZM111.297 14C111.297 17.3641 108.576 20.0913 105.22 20.0913H98.981C95.6238 20.0913 92.9023 17.3641 92.9023 14C92.9023 10.6359 95.6238 7.90874 98.981 7.90874H105.22C108.576 7.90874 111.297 10.6359 111.297 14Z" fill="#797FFF"/>
<path d="M149.047 14.9618V7.90869H151.926V14.9618C151.926 16.2012 152.929 17.2059 154.166 17.2059H162.323C163.56 17.2059 164.563 16.2012 164.563 14.9618V7.90869H167.442V14.9618C167.442 17.7947 165.151 20.0913 162.323 20.0913H154.166C151.339 20.0913 149.047 17.7947 149.047 14.9618Z" fill="#797FFF"/>
<path d="M74.3457 14C74.3457 10.6359 77.0665 7.90874 80.4236 7.90874H91.781V10.7941H80.4236C78.657 10.7941 77.2243 12.2294 77.2243 14C77.2243 15.7706 78.657 17.2059 80.4236 17.2059H88.982C89.4675 17.2059 89.8614 16.8113 89.8614 16.3243C89.8614 15.8374 89.4675 15.4427 88.982 15.4427H79.6238V12.5574H88.982C91.058 12.5574 92.7408 14.2439 92.7408 16.3243C92.7408 18.4047 91.058 20.0913 88.982 20.0913H80.4236C77.0665 20.0913 74.3457 17.3641 74.3457 14Z" fill="#797FFF"/>
<path d="M183.528 7.90869C185.035 7.90869 186.368 8.88834 186.821 10.3288L189.892 20.0913H186.873L184.075 11.1962C184 10.9568 183.778 10.794 183.528 10.794C183.282 10.7941 183.066 10.9504 182.986 11.1796L182.972 11.2264L181.268 17.8889C180.937 19.1848 179.771 20.0913 178.437 20.0913C177.079 20.0912 175.9 19.1547 175.591 17.8302L174.046 11.2234C173.987 10.972 173.763 10.7941 173.506 10.794C173.264 10.7941 173.05 10.9507 172.977 11.1813L170.143 20.0913H167.121L170.233 10.3054C170.687 8.87791 172.011 7.90869 173.506 7.90869C175.1 7.90869 176.486 9.00909 176.85 10.5652L178.394 17.1719C178.399 17.1918 178.416 17.2059 178.437 17.2059C178.457 17.2059 178.474 17.1923 178.479 17.1729L180.183 10.5104L180.202 10.4388C180.617 8.94623 181.975 7.90869 183.528 7.90869Z" fill="#797FFF"/>
<path d="M17.4434 0L20.7365 2.75001L17.8906 5.12657C17.6316 5.3429 17.2553 5.3429 16.9962 5.12657L14.1504 2.75001L17.4434 0Z" fill="#797FFF"/>
<path fill-rule="evenodd" clip-rule="evenodd" d="M16.9974 7.94826C17.2565 8.16456 17.6328 8.16456 17.8918 7.94826L22.427 4.16089L25.0356 6.33935L19.2334 11.1848C18.1972 12.0501 16.692 12.0501 15.6559 11.1848L9.85352 6.33935L12.4622 4.16089L16.9974 7.94826Z" fill="#797FFF"/>
<path d="M17.4434 28L14.1504 25.25L16.9962 22.8734C17.2553 22.6571 17.6316 22.6571 17.8906 22.8734L20.7365 25.25L17.4434 28Z" fill="#797FFF"/>
<path fill-rule="evenodd" clip-rule="evenodd" d="M17.8918 20.0518C17.6328 19.8355 17.2565 19.8355 16.9974 20.0518L12.4622 23.8392L9.85352 21.6607L15.6559 16.8152C16.692 15.9499 18.1972 15.9499 19.2334 16.8152L25.0356 21.6607L22.427 23.8392L17.8918 20.0518Z" fill="#797FFF"/>
<path d="M34.2092 14L30.9161 11.25L28.267 13.4623C27.9318 13.7421 27.9318 14.2579 28.267 14.5378L30.9161 16.75L34.2092 14Z" fill="#797FFF"/>
<path fill-rule="evenodd" clip-rule="evenodd" d="M24.8885 14.5377C24.5533 14.2578 24.5533 13.742 24.8885 13.4622L29.2269 9.83911L26.6182 7.66064L21.603 11.8489C20.2625 12.9683 20.2625 15.0315 21.603 16.1509L26.6182 20.3392L29.2269 18.1607L24.8885 14.5377Z" fill="#797FFF"/>
<path d="M0.679688 14L3.97274 16.75L6.62185 14.5378C6.95697 14.2579 6.95697 13.7421 6.62185 13.4623L3.97274 11.25L0.679688 14Z" fill="#797FFF"/>
<path fill-rule="evenodd" clip-rule="evenodd" d="M10.0006 13.4624C10.3357 13.7423 10.3357 14.258 10.0006 14.5379L5.66211 18.161L8.27078 20.3394L13.286 16.1512C14.6265 15.0317 14.6265 12.9686 13.286 11.8491L8.27078 7.66089L5.66211 9.83936L10.0006 13.4624Z" fill="#797FFF"/>
</g>
<defs>
<clipPath id="clip0_19_11715">
<rect width="190" height="28" fill="white"/>
</clipPath>
</defs>
</svg>
