<svg width="142" height="26" viewBox="0 0 142 26" fill="none" xmlns="http://www.w3.org/2000/svg">
<g clip-path="url(#clip0_19_11770)">
<path d="M79.6992 19.1905H82.7366V7.75789H79.6992V19.1905ZM79.6992 5.97505H82.7366V3.2562H79.6992V5.97505Z" fill="#797FFF"/>
<path d="M84.6953 22.9344H87.7327V17.8978H87.777C88.4244 18.8784 89.4745 19.5247 91.0821 19.5247C94.0302 19.5247 96.0403 17.1847 96.0403 13.4853C96.0403 9.91951 94.0973 7.4458 91.0599 7.4458C89.4966 7.4458 88.4244 8.18128 87.6877 9.1841H87.6207V7.7578H84.6953V22.9344ZM90.4346 17.0064C88.6257 17.0064 87.6656 15.647 87.6656 13.5744C87.6656 11.5241 88.4244 9.89728 90.3232 9.89728C92.1992 9.89728 92.958 11.4127 92.958 13.5744C92.958 15.7361 91.9757 17.0064 90.4346 17.0064Z" fill="#797FFF"/>
<path d="M102.098 19.5247C104.957 19.5247 106.922 18.143 106.922 15.8475C106.922 13.1733 104.8 12.6384 102.879 12.2373C101.249 11.903 99.7307 11.8138 99.7307 10.8333C99.7307 10.0087 100.512 9.56298 101.696 9.56298C102.991 9.56298 103.773 10.0087 103.907 11.2344H106.654C106.431 8.93898 104.755 7.4458 101.741 7.4458C99.1275 7.4458 97.0731 8.62698 97.0731 11.1007C97.0731 13.5967 99.0832 14.1538 101.138 14.555C102.701 14.867 104.152 14.9784 104.152 16.0704C104.152 16.8727 103.393 17.3853 102.054 17.3853C100.691 17.3853 99.7528 16.8058 99.5522 15.491H96.7383C96.9168 17.9201 98.7706 19.5247 102.098 19.5247Z" fill="#797FFF"/>
<path d="M118.452 19.1905V7.75787H115.415V14.3545C115.415 15.8699 114.544 16.9396 113.115 16.9396C111.819 16.9396 111.216 16.2042 111.216 14.8671V7.75787H108.201V15.3796C108.201 17.8756 109.63 19.5025 112.177 19.5025C113.785 19.5025 114.678 18.9008 115.459 17.8533H115.527V19.1905H118.452Z" fill="#797FFF"/>
<path d="M120.418 19.1904H123.455V12.5493C123.455 11.0338 124.282 10.0533 125.51 10.0533C126.627 10.0533 127.274 10.7218 127.274 12.0144V19.1904H130.312V12.5493C130.312 11.0338 131.093 10.0533 132.366 10.0533C133.483 10.0533 134.131 10.7218 134.131 12.0144V19.1904H137.168V11.5018C137.168 9.0058 135.805 7.4458 133.393 7.4458C131.942 7.4458 130.736 8.20351 129.954 9.45151H129.91C129.352 8.2481 128.19 7.4458 126.738 7.4458C125.153 7.4458 124.036 8.2481 123.411 9.29551H123.344V7.7578H120.418V19.1904Z" fill="#797FFF"/>
<path d="M0.537109 19.1904H3.57438V3.2561H0.537109V19.1904Z" fill="#797FFF"/>
<path d="M11.0009 19.5248C14.5518 19.5248 16.986 16.8951 16.986 13.4854C16.986 10.0756 14.5518 7.44588 11.0009 7.44588C7.4499 7.44588 5.01562 10.0756 5.01562 13.4854C5.01562 16.8951 7.4499 19.5248 11.0009 19.5248ZM11.0009 17.2071C9.12491 17.2071 8.09756 15.7139 8.09756 13.4854C8.09756 11.2568 9.12491 9.74135 11.0009 9.74135C12.8545 9.74135 13.9041 11.2568 13.9041 13.4854C13.9041 15.7139 12.8545 17.2071 11.0009 17.2071Z" fill="#797FFF"/>
<path d="M23.4454 23.0904C25.1427 23.0904 26.6167 22.6893 27.5769 21.7978C28.4256 21.0178 28.9393 19.9258 28.9393 18.3213V7.7578H26.0137V8.96128H25.969C25.2767 8.00298 24.227 7.4458 22.7977 7.4458C19.8945 7.4458 17.8398 9.6298 17.8398 13.0395C17.8398 16.4938 20.3411 18.4995 22.8871 18.4995C24.3387 18.4995 25.2097 17.9201 25.8796 17.1624H25.9467V18.4104C25.9467 19.9704 25.1203 20.795 23.4007 20.795C21.9937 20.795 21.3461 20.2378 21.1004 19.5247H18.0855C18.3981 21.7533 20.3188 23.0904 23.4454 23.0904ZM23.4007 16.0704C21.8374 16.0704 20.8101 14.9338 20.8101 12.995C20.8101 11.0784 21.8374 9.87498 23.3784 9.87498C25.2097 9.87498 26.103 11.3013 26.103 12.9727C26.103 14.6664 25.3214 16.0704 23.4007 16.0704Z" fill="#797FFF"/>
<path d="M36.3212 19.5247C39.8721 19.5247 42.3064 16.895 42.3064 13.4853C42.3064 10.0755 39.8721 7.4458 36.3212 7.4458C32.7703 7.4458 30.3359 10.0755 30.3359 13.4853C30.3359 16.895 32.7703 19.5247 36.3212 19.5247ZM36.3212 17.207C34.4452 17.207 33.4179 15.7138 33.4179 13.4853C33.4179 11.2567 34.4452 9.74128 36.3212 9.74128C38.1748 9.74128 39.2245 11.2567 39.2245 13.4853C39.2245 15.7138 38.1748 17.207 36.3212 17.207Z" fill="#797FFF"/>
<path d="M138.27 5.88096C138.27 5.36813 138.686 4.95239 139.2 4.95239H141.061C141.575 4.95239 141.992 5.36813 141.992 5.88096C141.992 6.3938 141.575 6.80954 141.061 6.80954H139.2C138.686 6.80954 138.27 6.3938 138.27 5.88096Z" fill="#797FFF"/>
<path fill-rule="evenodd" clip-rule="evenodd" d="M60.7267 0C67.9214 0 73.7545 5.8203 73.7545 13C73.7545 20.1797 67.9214 26 60.7267 26C53.5318 26 47.6992 20.1797 47.6992 13C47.6992 5.8203 53.5318 0 60.7267 0ZM60.2559 0.972783C58.7696 1.1815 57.3544 2.3732 56.2559 4.36631C55.9372 4.94444 55.6497 5.58315 55.3992 6.27279C56.8929 5.89821 58.5338 5.67737 60.2559 5.64322V0.972783ZM54.2981 6.58502C54.6097 5.60923 54.9909 4.71146 55.4307 3.91342C55.9753 2.92538 56.6216 2.07217 57.3497 1.41685C53.3901 2.5644 50.269 5.67891 49.119 9.6302C49.7757 8.90357 50.6307 8.25864 51.6209 7.71524C52.4207 7.27629 53.3203 6.89591 54.2981 6.58502ZM53.9853 7.68371C53.6099 9.17429 53.3886 10.8117 53.3543 12.5301H48.674C48.8832 11.047 50.0774 9.63482 52.0748 8.53866C52.6541 8.22068 53.2941 7.93377 53.9853 7.68371ZM54.2963 12.5301C54.3352 10.6548 54.6058 8.89421 55.0534 7.33863C56.6123 6.89195 58.3766 6.62194 60.2559 6.58313V8.61302C59.5548 10.404 58.1249 11.8308 56.33 12.5301H54.2963ZM53.3543 13.4699H48.674C48.8832 14.953 50.0774 16.3651 52.0748 17.4613C52.6541 17.7793 53.2941 18.0662 53.9853 18.3163C53.6099 16.8257 53.3886 15.1883 53.3543 13.4699ZM55.0534 18.6614C54.6058 17.1058 54.3352 15.3452 54.2963 13.4699H56.33C58.1249 14.1692 59.5548 15.596 60.2559 17.387V19.4169C58.3766 19.3781 56.6123 19.108 55.0534 18.6614ZM54.2981 19.415C53.3203 19.1041 52.4207 18.7237 51.6209 18.2848C50.6307 17.7414 49.7757 17.0964 49.119 16.3698C50.269 20.3211 53.3901 23.4356 57.3497 24.5831C56.6216 23.9278 55.9753 23.0746 55.4307 22.0865C54.9909 21.2885 54.6097 20.3908 54.2981 19.415ZM60.2559 25.0272C58.7696 24.8185 57.3544 23.6268 56.2559 21.6337C55.9372 21.0556 55.6497 20.4168 55.3992 19.7272C56.8929 20.1018 58.5338 20.3226 60.2559 20.3568V25.0272ZM64.1037 24.5831C64.8318 23.9278 65.4781 23.0746 66.0226 22.0865C66.4623 21.2885 66.844 20.3908 67.1554 19.415C68.1331 19.1041 69.0326 18.7237 69.8325 18.2848C70.8226 17.7414 71.6779 17.0964 72.3345 16.3698C71.1841 20.3211 68.0634 23.4356 64.1037 24.5831ZM66.0545 19.7272C65.8038 20.4168 65.5159 21.0556 65.1973 21.6337C64.099 23.6268 62.6838 24.8185 61.1976 25.0272V20.3568C62.9196 20.3226 64.5605 20.1018 66.0545 19.7272ZM67.468 18.3163C68.1591 18.0662 68.7994 17.7793 69.3785 17.4613C71.3763 16.3652 72.5703 14.953 72.7794 13.4699H68.0992C68.0647 15.1883 67.8432 16.8257 67.468 18.3163ZM67.1573 13.4699C67.1182 15.3452 66.8479 17.1058 66.3998 18.6614C64.8412 19.108 63.0768 19.3781 61.1976 19.4169V17.3885C61.8984 15.5968 63.3287 14.1694 65.124 13.4699H67.1573ZM68.0992 12.5301H72.7794C72.5703 11.047 71.3763 9.63482 69.3785 8.53866C68.7994 8.22068 68.1591 7.93377 67.468 7.68371C67.8432 9.17429 68.0647 10.8117 68.0992 12.5301ZM66.3998 7.33863C66.8479 8.89421 67.1182 10.6548 67.1573 12.5301H65.1241C63.3287 11.8306 61.8984 10.4032 61.1976 8.61152V6.58313C63.0768 6.62194 64.8412 6.89195 66.3998 7.33863ZM67.1554 6.58502C68.1331 6.89591 69.0326 7.27629 69.8325 7.71524C70.8226 8.25864 71.6779 8.90357 72.3345 9.6302C71.1841 5.67891 68.0634 2.5644 64.1037 1.41685C64.8318 2.07217 65.4781 2.92538 66.0226 3.91342C66.4623 4.71146 66.844 5.60923 67.1554 6.58502ZM61.1976 0.972783C62.6838 1.1815 64.099 2.3732 65.1973 4.36631C65.5159 4.94445 65.8038 5.58315 66.0545 6.27279C64.5605 5.89821 62.9196 5.67737 61.1976 5.64322V0.972783Z" fill="#797FFF"/>
</g>
<defs>
<clipPath id="clip0_19_11770">
<rect width="142" height="26" fill="white"/>
</clipPath>
</defs>
</svg>
