<svg width="156" height="28" viewBox="0 0 156 28" fill="none" xmlns="http://www.w3.org/2000/svg">
<g clip-path="url(#clip0_19_11751)">
<path d="M8.625 0L15.8543 6.18021C16.2835 6.54711 16.5308 7.08554 16.5308 7.65261V12.3103L9.30161 6.13014C8.87236 5.76323 8.625 5.2248 8.625 4.6577V0Z" fill="#797FFF"/>
<path d="M8.625 28L15.8543 21.8198C16.2835 21.4529 16.5308 20.9145 16.5308 20.3474V15.6897L9.30161 21.8699C8.87236 22.2368 8.625 22.7752 8.625 23.3423V28Z" fill="#797FFF"/>
<path d="M0 6.51724L7.13095 12.5794C7.47667 12.8733 7.91452 13.0345 8.36685 13.0345H14.1176L7.00426 6.97378C6.6583 6.67899 6.21984 6.51724 5.76672 6.51724H0Z" fill="#797FFF"/>
<path d="M0 21.4828L7.08709 15.4242C7.43344 15.1281 7.87289 14.9655 8.32704 14.9655H14.1348L7.00384 21.0276C6.65812 21.3215 6.22031 21.4828 5.76792 21.4828H0Z" fill="#797FFF"/>
<path d="M26.3531 0L19.1238 6.18021C18.6946 6.54711 18.4473 7.08554 18.4473 7.65261V12.3103L25.6765 6.13014C26.1057 5.76323 26.3531 5.2248 26.3531 4.6577V0Z" fill="#797FFF"/>
<path d="M26.3531 28L19.1238 21.8198C18.6946 21.4529 18.4473 20.9145 18.4473 20.3474V15.6897L25.6765 21.8699C26.1057 22.2368 26.3531 22.7752 26.3531 23.3423V28Z" fill="#797FFF"/>
<path d="M34.977 6.51733L27.8461 12.5794C27.5004 12.8734 27.0625 13.0346 26.6102 13.0346H20.8594L27.9728 6.97387C28.3188 6.67908 28.7572 6.51733 29.2103 6.51733H34.977Z" fill="#797FFF"/>
<path d="M34.9785 21.4828L27.8915 15.4242C27.5451 15.1281 27.1056 14.9655 26.6515 14.9655H20.8438L27.9747 21.0276C28.3204 21.3215 28.7582 21.4828 29.2106 21.4828H34.9785Z" fill="#797FFF"/>
<path d="M92.8828 7.46802C92.4203 7.46802 92.0328 7.31136 91.7194 6.99796C91.406 6.68459 91.25 6.29661 91.25 5.83401C91.25 5.37141 91.406 4.98343 91.7194 4.67005C92.0328 4.35669 92.4203 4.2 92.8828 4.2C93.3305 4.2 93.711 4.35669 94.0237 4.67005C94.3371 4.98343 94.4938 5.37141 94.4938 5.83401C94.4938 6.29661 94.3371 6.68459 94.0237 6.99796C93.711 7.31136 93.3305 7.46802 92.8828 7.46802Z" fill="#797FFF"/>
<path d="M94.1365 9.10205V21.4355H91.5859V9.10205H94.1365Z" fill="#797FFF"/>
<path fill-rule="evenodd" clip-rule="evenodd" d="M101.021 9.48261C100.276 9.87062 99.686 10.3482 99.2537 10.9152V9.10209H96.7031V27.3001H99.2537V19.6449C99.7161 20.2119 100.313 20.6894 101.044 21.0774C101.774 21.4504 102.61 21.637 103.55 21.637C104.623 21.637 105.601 21.3684 106.481 20.8312C107.375 20.2791 108.076 19.518 108.584 18.548C109.091 17.5631 109.344 16.4514 109.344 15.2129C109.344 13.9743 109.091 12.8775 108.584 11.9225C108.076 10.9674 107.375 10.2287 106.481 9.70647C105.601 9.16922 104.623 8.90063 103.55 8.90063C102.61 8.90063 101.767 9.09467 101.021 9.48261ZM106.212 13.0192C106.57 13.6311 106.749 14.3622 106.749 15.2129C106.749 16.0635 106.57 16.8096 106.212 17.4512C105.869 18.0929 105.406 18.5853 104.825 18.9286C104.258 19.2569 103.646 19.421 102.99 19.421C102.349 19.421 101.737 19.2569 101.156 18.9286C100.588 18.6003 100.126 18.1227 99.7686 17.496C99.4251 16.8543 99.2537 16.1082 99.2537 15.2576C99.2537 14.407 99.4251 13.6684 99.7686 13.0416C100.126 12.4149 100.588 11.9374 101.156 11.6091C101.737 11.2808 102.349 11.1166 102.99 11.1166C103.646 11.1166 104.258 11.2808 104.825 11.6091C105.406 11.9225 105.869 12.3925 106.212 13.0192Z" fill="#797FFF"/>
<path d="M115.556 21.6369C114.586 21.6369 113.714 21.4653 112.938 21.1221C112.178 20.764 111.574 20.2864 111.126 19.6895C110.679 19.0777 110.44 18.3987 110.41 17.6526H113.05C113.095 18.1749 113.341 18.6151 113.789 18.9733C114.251 19.3165 114.826 19.4881 115.511 19.4881C116.228 19.4881 116.78 19.3538 117.167 19.0852C117.57 18.8017 117.772 18.4435 117.772 18.0108C117.772 17.5482 117.548 17.205 117.1 16.9811C116.668 16.7573 115.974 16.511 115.02 16.2425C114.095 15.9888 113.341 15.7425 112.759 15.5038C112.178 15.265 111.671 14.8994 111.238 14.407C110.821 13.9145 110.612 13.2654 110.612 12.4596C110.612 11.803 110.805 11.2061 111.194 10.6689C111.581 10.1168 112.133 9.68401 112.849 9.37062C113.58 9.0573 114.415 8.90057 115.355 8.90057C116.757 8.90057 117.883 9.25869 118.733 9.975C119.599 10.6763 120.061 11.6388 120.121 12.8625H117.57C117.525 12.3103 117.301 11.8702 116.899 11.5419C116.496 11.2136 115.951 11.0494 115.266 11.0494C114.594 11.0494 114.079 11.1763 113.722 11.43C113.364 11.6836 113.185 12.0194 113.185 12.4372C113.185 12.7655 113.304 13.0416 113.543 13.2654C113.781 13.4893 114.072 13.6683 114.415 13.8026C114.759 13.922 115.266 14.0787 115.937 14.2727C116.831 14.5114 117.562 14.7577 118.129 15.0114C118.711 15.2501 119.211 15.6083 119.628 16.0858C120.046 16.5633 120.262 17.1975 120.277 17.9884C120.277 18.6897 120.084 19.3165 119.695 19.8686C119.308 20.4208 118.756 20.8535 118.039 21.1669C117.339 21.4802 116.511 21.6369 115.556 21.6369Z" fill="#797FFF"/>
<path d="M153.517 9.50501C152.756 9.10209 151.891 8.90063 150.922 8.90063C150.011 8.90063 149.162 9.12449 148.371 9.57214C147.581 10.0049 146.998 10.5944 146.626 11.3405C146.208 10.5496 145.611 9.94524 144.835 9.52741C144.06 9.10958 143.18 8.90063 142.195 8.90063C141.465 8.90063 140.779 9.04238 140.137 9.32595C139.496 9.60945 138.966 10.0049 138.549 10.5122V9.10209H135.998V21.4355H138.549V14.5414C138.549 13.4371 138.825 12.594 139.376 12.012C139.944 11.4151 140.704 11.1166 141.659 11.1166C142.613 11.1166 143.366 11.4151 143.918 12.012C144.47 12.594 144.746 13.4371 144.746 14.5414V21.4355H147.275V14.5414C147.275 13.4371 147.55 12.594 148.102 12.012C148.669 11.4151 149.43 11.1166 150.384 11.1166C151.339 11.1166 152.093 11.4151 152.645 12.012C153.196 12.594 153.472 13.4371 153.472 14.5414V21.4355H156V14.1609C156 13.0416 155.776 12.0866 155.329 11.2957C154.896 10.5048 154.293 9.90793 153.517 9.50501Z" fill="#797FFF"/>
<path d="M133.415 21.4355V9.10204H130.865V15.9739C130.865 17.0781 130.581 17.9287 130.014 18.5256C129.462 19.1076 128.71 19.3985 127.755 19.3985C126.8 19.3985 126.047 19.1076 125.495 18.5256C124.943 17.9287 124.667 17.0781 124.667 15.9739V9.10204H122.139V16.3544C122.139 17.4735 122.355 18.4286 122.788 19.2195C123.235 20.0103 123.839 20.6072 124.6 21.0102C125.376 21.4131 126.248 21.6145 127.217 21.6145C127.948 21.6145 128.635 21.4728 129.276 21.1892C129.932 20.8908 130.462 20.4879 130.865 19.9805V21.4355H133.415Z" fill="#797FFF"/>
<path fill-rule="evenodd" clip-rule="evenodd" d="M80.2941 20.8536C81.2336 21.3758 82.285 21.637 83.4484 21.637C84.6271 21.637 85.7009 21.3758 86.6705 20.8536C87.6548 20.3164 88.4306 19.5628 88.9972 18.5928C89.5639 17.6228 89.8472 16.5111 89.8472 15.2576C89.8472 14.0041 89.5716 12.8924 89.0196 11.9225C88.4677 10.9525 87.7142 10.2063 86.7601 9.68407C85.8052 9.1618 84.7391 8.90063 83.5603 8.90063C82.3823 8.90063 81.3154 9.1618 80.3606 9.68407C79.4064 10.2063 78.653 10.9525 78.101 11.9225C77.5491 12.8924 77.2734 14.0041 77.2734 15.2576C77.2734 16.526 77.5421 17.6452 78.0786 18.6152C78.6159 19.5702 79.3539 20.3164 80.2941 20.8536ZM85.2833 18.951C84.7167 19.2643 84.1046 19.421 83.4484 19.421C82.4193 19.421 81.5617 19.0629 80.8754 18.3466C80.2046 17.6154 79.8688 16.5857 79.8688 15.2576C79.8688 14.3622 80.0325 13.6087 80.3606 12.9969C80.6893 12.3701 81.1294 11.9001 81.6806 11.5867C82.248 11.2734 82.8594 11.1166 83.5155 11.1166C84.1717 11.1166 84.7831 11.2734 85.3505 11.5867C85.9171 11.9001 86.3718 12.3701 86.7153 12.9969C87.0581 13.6087 87.2295 14.3622 87.2295 15.2576C87.2295 16.153 87.0504 16.914 86.6929 17.5407C86.3347 18.1675 85.8646 18.6376 85.2833 18.951Z" fill="#797FFF"/>
<path fill-rule="evenodd" clip-rule="evenodd" d="M66.8614 20.882C66.8441 20.8727 66.8268 20.8631 66.8096 20.8536C65.8699 20.3164 65.1315 19.5702 64.5945 18.6152C64.0575 17.6452 63.7891 16.526 63.7891 15.2576C63.7891 14.0041 64.065 12.8924 64.6169 11.9225C65.1688 10.9525 65.9221 10.2063 66.8767 9.68407C67.8313 9.1618 68.8978 8.90063 70.0762 8.90063C71.2543 8.90063 72.3211 9.1618 73.276 9.68407C74.2302 10.2063 74.9836 10.9525 75.5355 11.9225C76.0875 12.8924 76.3631 14.0041 76.3631 15.2576C76.3631 16.5111 76.0798 17.6228 75.5131 18.5928C74.9465 19.5628 74.1707 20.3164 73.1864 20.8536C72.3525 21.3027 71.4417 21.5587 70.4533 21.6216C71.6642 22.1759 73.5061 22.6234 74.5401 22.8746C74.9829 22.9822 75.2774 23.0537 75.3117 23.0824L75.3131 23.0827V25.6362H66.0206V23.0827H71.3753C70.0133 22.7749 68.1631 21.7646 66.8614 20.882ZM69.9643 19.421C70.6205 19.421 71.2319 19.2643 71.7992 18.951C72.3805 18.6376 72.8506 18.1675 73.2088 17.5407C73.5663 16.914 73.7454 16.153 73.7454 15.2576C73.7454 14.3622 73.574 13.6087 73.2312 12.9969C72.8877 12.3701 72.433 11.9001 71.8664 11.5867C71.299 11.2734 70.6876 11.1166 70.0314 11.1166C69.3751 11.1166 68.7636 11.2734 68.1967 11.5867C67.6448 11.9001 67.2048 12.3701 66.8767 12.9969C66.5485 13.6087 66.3845 14.3622 66.3845 15.2576C66.3845 16.5857 66.72 17.6154 67.3913 18.3466C68.0775 19.0629 68.9351 19.421 69.9643 19.421Z" fill="#797FFF"/>
<path fill-rule="evenodd" clip-rule="evenodd" d="M53.3232 20.8535C54.2629 21.3758 55.3145 21.6369 56.478 21.6369C57.6563 21.6369 58.7302 21.3758 59.6998 20.8535C60.6842 20.3163 61.4599 19.5627 62.0267 18.5927C62.5935 17.6228 62.8769 16.511 62.8769 15.2576C62.8769 14.0041 62.6009 12.8923 62.049 11.9224C61.4972 10.9524 60.7439 10.2063 59.7893 9.68401C58.8347 9.16174 57.7681 8.90057 56.5898 8.90057C55.4114 8.90057 54.345 9.16174 53.3903 9.68401C52.4357 10.2063 51.6825 10.9524 51.1306 11.9224C50.5787 12.8923 50.3027 14.0041 50.3027 15.2576C50.3027 16.526 50.5712 17.6452 51.1082 18.6151C51.6452 19.5702 52.3835 20.3163 53.3232 20.8535ZM58.3126 18.9509C57.7458 19.2642 57.1342 19.4209 56.478 19.4209C55.4487 19.4209 54.5911 19.0628 53.9049 18.3465C53.2337 17.6153 52.8981 16.5857 52.8981 15.2576C52.8981 14.3622 53.0622 13.6086 53.3903 12.9968C53.7185 12.3701 54.1585 11.9 54.7104 11.5866C55.2772 11.2733 55.8887 11.1166 56.545 11.1166C57.2014 11.1166 57.8129 11.2733 58.3797 11.5866C58.9465 11.9 59.4015 12.3701 59.7445 12.9968C60.0876 13.6086 60.2591 14.3622 60.2591 15.2576C60.2591 16.1529 60.0802 16.914 59.7221 17.5407C59.3642 18.1675 58.8943 18.6375 58.3126 18.9509Z" fill="#797FFF"/>
<path d="M44.5233 19.376H49.7811V21.4354H41.9727V5.87866H44.5233V19.376Z" fill="#797FFF"/>
</g>
<defs>
<clipPath id="clip0_19_11751">
<rect width="156" height="28" fill="white"/>
</clipPath>
</defs>
</svg>
