<svg width="50" height="50" viewBox="0 0 50 50" fill="none" xmlns="http://www.w3.org/2000/svg">
<g filter="url(#filter0_iii_18_5688)">
<rect width="50" height="50" fill="url(#paint0_linear_18_5688)"/>
<rect x="0.25" y="0.25" width="49.5" height="49.5" stroke="#3B44FF" stroke-opacity="0.2" stroke-width="0.5"/>
<path d="M25.5 21V21.0101" stroke="white" stroke-width="1.8" stroke-linecap="round" stroke-linejoin="round"/>
<path d="M25.5 24.4995V28.9995" stroke="white" stroke-width="1.5" stroke-linecap="round" stroke-linejoin="round"/>
<path d="M32.9375 19.5562C33.5986 19.9343 34.0047 20.6421 34 21.4068V28.3267C34 29.0953 33.5816 29.804 32.9063 30.1774L26.5313 34.2339C26.2153 34.4085 25.8605 34.5 25.5 34.5C25.1394 34.5 24.7847 34.4085 24.4686 34.2339L18.0937 30.1774C17.7633 29.9957 17.4874 29.7282 17.2951 29.4026C17.1027 29.077 17.0008 28.7055 17 28.3267V21.4059C17 20.6373 17.4184 19.9295 18.0937 19.5562L24.4686 15.7751C24.794 15.5946 25.1596 15.5 25.5311 15.5C25.9027 15.5 26.2682 15.5946 26.5936 15.7751L32.9686 19.5562H32.9375Z" stroke="white" stroke-width="1.5" stroke-linecap="round" stroke-linejoin="round"/>
</g>
<defs>
<filter id="filter0_iii_18_5688" x="0" y="0" width="50" height="60" filterUnits="userSpaceOnUse" color-interpolation-filters="sRGB">
<feFlood flood-opacity="0" result="BackgroundImageFix"/>
<feBlend mode="normal" in="SourceGraphic" in2="BackgroundImageFix" result="shape"/>
<feColorMatrix in="SourceAlpha" type="matrix" values="0 0 0 0 0 0 0 0 0 0 0 0 0 0 0 0 0 0 127 0" result="hardAlpha"/>
<feOffset/>
<feGaussianBlur stdDeviation="2"/>
<feComposite in2="hardAlpha" operator="arithmetic" k2="-1" k3="1"/>
<feColorMatrix type="matrix" values="0 0 0 0 0.600886 0 0 0 0 0.600886 0 0 0 0 1 0 0 0 1 0"/>
<feBlend mode="normal" in2="shape" result="effect1_innerShadow_18_5688"/>
<feColorMatrix in="SourceAlpha" type="matrix" values="0 0 0 0 0 0 0 0 0 0 0 0 0 0 0 0 0 0 127 0" result="hardAlpha"/>
<feMorphology radius="1" operator="erode" in="SourceAlpha" result="effect2_innerShadow_18_5688"/>
<feOffset dy="8"/>
<feGaussianBlur stdDeviation="9.5"/>
<feComposite in2="hardAlpha" operator="arithmetic" k2="-1" k3="1"/>
<feColorMatrix type="matrix" values="0 0 0 0 0.552108 0 0 0 0 0.552108 0 0 0 0 1 0 0 0 0.7 0"/>
<feBlend mode="normal" in2="effect1_innerShadow_18_5688" result="effect2_innerShadow_18_5688"/>
<feColorMatrix in="SourceAlpha" type="matrix" values="0 0 0 0 0 0 0 0 0 0 0 0 0 0 0 0 0 0 127 0" result="hardAlpha"/>
<feMorphology radius="10" operator="dilate" in="SourceAlpha" result="effect3_innerShadow_18_5688"/>
<feOffset dy="15"/>
<feGaussianBlur stdDeviation="10"/>
<feComposite in2="hardAlpha" operator="arithmetic" k2="-1" k3="1"/>
<feColorMatrix type="matrix" values="0 0 0 0 0.67451 0 0 0 0 0.682353 0 0 0 0 0.988235 0 0 0 0.6 0"/>
<feBlend mode="normal" in2="effect2_innerShadow_18_5688" result="effect3_innerShadow_18_5688"/>
</filter>
<linearGradient id="paint0_linear_18_5688" x1="25" y1="16" x2="25" y2="60.5" gradientUnits="userSpaceOnUse">
<stop stop-color="#4E57FF"/>
<stop offset="1" stop-color="#000799"/>
</linearGradient>
</defs>
</svg>
