<svg width="223" height="222" viewBox="0 0 223 222" fill="none" xmlns="http://www.w3.org/2000/svg">
<path d="M96.5965 11.3601L96.5316 10.2977C96.7896 10.0552 97.0856 9.77387 97.4196 9.45372C97.7534 9.12974 98.0918 8.78818 98.435 8.42904C98.7779 8.06608 99.0922 7.70678 99.3779 7.35114C99.6634 6.99168 99.8907 6.65499 100.06 6.34107C100.233 6.02308 100.312 5.75115 100.298 5.52526C100.283 5.26874 100.205 5.03905 100.066 4.83619C99.9302 4.62927 99.7533 4.46907 99.535 4.35559C99.3165 4.23828 99.0789 4.18745 98.8224 4.20312C98.5659 4.21879 98.3344 4.29826 98.128 4.44154C97.9251 4.58074 97.7651 4.76153 97.6481 4.98388C97.5346 5.20218 97.4857 5.43958 97.5013 5.6961L96.3068 5.76907C96.2771 5.28283 96.369 4.8372 96.5825 4.43218C96.7997 4.02309 97.0965 3.69176 97.4729 3.43819C97.853 3.18055 98.2785 3.03735 98.7495 3.00858C99.2242 2.97958 99.664 3.06993 100.069 3.27962C100.474 3.48932 100.805 3.7842 101.062 4.16429C101.32 4.54054 101.463 4.96988 101.493 5.45229C101.509 5.72029 101.47 5.99935 101.377 6.28945C101.283 6.57955 101.146 6.87809 100.964 7.18505C100.787 7.49179 100.578 7.80434 100.336 8.1227C100.094 8.44107 99.8329 8.76061 99.5527 9.08131C99.2726 9.40202 98.9864 9.71925 98.6943 10.033L101.83 9.84145L101.903 11.036L96.5965 11.3601ZM105.295 11.167C104.819 11.1683 104.389 11.0621 104.005 10.8484C103.625 10.6308 103.296 10.3306 103.019 9.94781C102.741 9.56501 102.529 9.12257 102.382 8.62049C102.235 8.11457 102.16 7.57393 102.159 6.99857C102.157 6.4232 102.229 5.88216 102.373 5.37543C102.517 4.8687 102.727 4.42507 103.002 4.04456C103.277 3.66021 103.604 3.3601 103.983 3.14423C104.366 2.92452 104.796 2.814 105.271 2.81266C105.739 2.81135 106.165 2.91948 106.55 3.13704C106.934 3.35077 107.261 3.64905 107.53 4.03188C107.804 4.41085 108.014 4.8533 108.161 5.35921C108.308 5.86513 108.383 6.40577 108.384 6.98113C108.386 7.5565 108.314 8.09755 108.17 8.60428C108.026 9.10717 107.818 9.55079 107.547 9.93513C107.279 10.3195 106.954 10.6215 106.571 10.8412C106.188 11.0571 105.763 11.1657 105.295 11.167ZM105.291 9.97021C105.732 9.96898 106.098 9.82986 106.389 9.55287C106.684 9.27203 106.903 8.9051 107.048 8.45207C107.192 7.99904 107.264 7.50978 107.262 6.98427C107.261 6.43192 107.183 5.93157 107.028 5.48321C106.877 5.03101 106.654 4.67299 106.357 4.40915C106.065 4.14146 105.704 4.00822 105.275 4.00942C104.933 4.01038 104.636 4.09176 104.384 4.25358C104.135 4.41538 103.928 4.63651 103.764 4.91699C103.604 5.19745 103.482 5.51616 103.398 5.87312C103.319 6.23008 103.28 6.60418 103.281 6.99543C103.282 7.52093 103.358 8.00978 103.509 8.46198C103.66 8.91418 103.884 9.27988 104.18 9.55906C104.48 9.8344 104.85 9.97145 105.291 9.97021ZM111.493 11.3428C111.018 11.3156 110.595 11.1839 110.224 10.9475C109.858 10.7075 109.548 10.3882 109.294 9.98942C109.04 9.59069 108.855 9.13632 108.738 8.62633C108.621 8.1125 108.579 7.56837 108.612 6.99394C108.645 6.41952 108.749 5.88372 108.923 5.38655C109.098 4.88939 109.334 4.45913 109.631 4.09579C109.929 3.72862 110.273 3.44866 110.665 3.25591C111.06 3.05954 111.495 2.97495 111.97 3.00213C112.437 3.02887 112.856 3.16235 113.227 3.40255C113.597 3.63892 113.906 3.95625 114.152 4.35455C114.402 4.74923 114.585 5.20349 114.702 5.71732C114.819 6.23114 114.86 6.77527 114.828 7.3497C114.795 7.92412 114.691 8.45992 114.517 8.95709C114.342 9.45043 114.108 9.88079 113.815 10.2482C113.525 10.6158 113.182 10.8978 112.786 11.0941C112.391 11.2867 111.96 11.3696 111.493 11.3428ZM111.561 10.148C112.002 10.1732 112.375 10.0563 112.682 9.79722C112.993 9.53455 113.234 9.18143 113.405 8.73788C113.577 8.29432 113.677 7.81023 113.707 7.28558C113.739 6.73413 113.691 6.23 113.564 5.77317C113.44 5.31274 113.238 4.94197 112.959 4.66085C112.683 4.37613 112.331 4.22149 111.902 4.19694C111.561 4.17743 111.26 4.24087 110.998 4.38724C110.739 4.53383 110.52 4.74219 110.339 5.01232C110.163 5.28267 110.022 5.59351 109.917 5.94483C109.816 6.29637 109.755 6.66745 109.732 7.05806C109.702 7.5827 109.749 8.07524 109.873 8.53567C109.996 8.9961 110.197 9.37454 110.476 9.67097C110.759 9.96379 111.121 10.1228 111.561 10.148Z" fill="white"/>
<circle cx="110.472" cy="109.169" r="48.6577" fill="#000454"/>
<mask id="mask0_12_5643" style="mask-type:alpha" maskUnits="userSpaceOnUse" x="61" y="60" width="99" height="98">
<circle cx="110.472" cy="109.169" r="48.6577" fill="#3B44FF"/>
</mask>
<g mask="url(#mask0_12_5643)">
<g filter="url(#filter0_f_12_5643)">
<circle cx="110.473" cy="135.419" r="22.4082" fill="#3B44FF"/>
</g>
</g>
<path d="M92.2348 90.2365C91.6978 90.2365 91.2343 90.1054 90.8443 89.8433C90.4544 89.5812 90.1539 89.2296 89.9429 88.7885C89.7352 88.3442 89.6313 87.8519 89.6313 87.3117V83.3992H90.3025V87.3117C90.3025 87.7208 90.3777 88.0964 90.5279 88.4385C90.6781 88.7805 90.8971 89.0538 91.1848 89.2584C91.4725 89.4629 91.8225 89.5652 92.2348 89.5652C92.6567 89.5652 93.01 89.4629 93.2944 89.2584C93.5821 89.0506 93.7995 88.7757 93.9465 88.4337C94.0936 88.0916 94.1671 87.7176 94.1671 87.3117V83.3992H94.8384V87.3117C94.8384 87.7176 94.7776 88.098 94.6562 88.4528C94.5379 88.8045 94.3653 89.1145 94.1383 89.383C93.9146 89.6515 93.6413 89.8609 93.3184 90.0111C92.9988 90.1614 92.6376 90.2365 92.2348 90.2365ZM96.6612 92.5092H95.9899V85.3171H96.6612V86.2137C96.8274 85.91 97.0543 85.6639 97.342 85.4753C97.6297 85.2867 97.9717 85.1924 98.3681 85.1924C98.7165 85.1924 99.0426 85.2579 99.3462 85.389C99.6531 85.5201 99.9216 85.7023 100.152 85.9356C100.382 86.1658 100.562 86.4327 100.694 86.7363C100.825 87.04 100.89 87.366 100.89 87.7144C100.89 88.0629 100.825 88.3905 100.694 88.6974C100.562 89.0042 100.382 89.2743 100.152 89.5077C99.9216 89.7378 99.6531 89.9184 99.3462 90.0495C99.0426 90.1805 98.7165 90.2461 98.3681 90.2461C97.9717 90.2461 97.6297 90.1518 97.342 89.9632C97.0543 89.7746 96.8274 89.5285 96.6612 89.2248V92.5092ZM98.3633 85.8445C98.0277 85.8445 97.7352 85.9292 97.4859 86.0986C97.2397 86.2648 97.0495 86.4886 96.9153 86.7699C96.781 87.0512 96.7139 87.366 96.7139 87.7144C96.7139 88.0565 96.7794 88.3697 96.9105 88.6542C97.0448 88.9387 97.2349 89.1657 97.4811 89.3351C97.7304 89.5045 98.0245 89.5892 98.3633 89.5892C98.6957 89.5892 99.001 89.5061 99.2791 89.3399C99.5604 89.1736 99.7857 88.9499 99.9552 88.6686C100.125 88.3841 100.209 88.0661 100.209 87.7144C100.209 87.3724 100.126 87.0608 99.96 86.7795C99.7937 86.495 99.5716 86.268 99.2935 86.0986C99.0154 85.9292 98.7053 85.8445 98.3633 85.8445ZM101.665 90.1118V82.9197H102.336V90.1118H101.665ZM105.563 90.2365C105.122 90.2365 104.719 90.123 104.355 89.8961C103.994 89.6691 103.705 89.3654 103.487 88.9851C103.273 88.6015 103.166 88.1779 103.166 87.7144C103.166 87.3628 103.228 87.0352 103.353 86.7315C103.478 86.4247 103.649 86.1562 103.866 85.926C104.086 85.6927 104.342 85.5105 104.633 85.3794C104.924 85.2484 105.234 85.1828 105.563 85.1828C106.004 85.1828 106.406 85.2963 106.767 85.5233C107.131 85.7502 107.42 86.0555 107.635 86.4391C107.852 86.8226 107.961 87.2478 107.961 87.7144C107.961 88.0629 107.898 88.3889 107.774 88.6926C107.649 88.9962 107.476 89.2647 107.256 89.4981C107.038 89.7282 106.784 89.9088 106.493 90.0399C106.206 90.171 105.896 90.2365 105.563 90.2365ZM105.563 89.5652C105.889 89.5652 106.182 89.4805 106.441 89.3111C106.703 89.1385 106.909 88.9115 107.059 88.6302C107.213 88.349 107.289 88.0437 107.289 87.7144C107.289 87.3788 107.213 87.0704 107.059 86.7891C106.906 86.5046 106.698 86.2776 106.436 86.1082C106.177 85.9388 105.886 85.8541 105.563 85.8541C105.237 85.8541 104.943 85.9404 104.681 86.113C104.422 86.2824 104.216 86.5078 104.063 86.7891C103.912 87.0704 103.837 87.3788 103.837 87.7144C103.837 88.0597 103.915 88.3729 104.072 88.6542C104.229 88.9323 104.438 89.1545 104.7 89.3207C104.962 89.4837 105.25 89.5652 105.563 89.5652ZM112.667 85.3171H113.338V90.1118H112.667L112.643 89.22C112.487 89.5237 112.268 89.7698 111.986 89.9584C111.705 90.1438 111.369 90.2365 110.979 90.2365C110.628 90.2365 110.299 90.171 109.992 90.0399C109.685 89.9056 109.415 89.7218 109.181 89.4885C108.948 89.2552 108.766 88.9851 108.635 88.6782C108.504 88.3713 108.438 88.0421 108.438 87.6905C108.438 87.3453 108.502 87.0208 108.63 86.7171C108.761 86.4135 108.94 86.1466 109.167 85.9164C109.397 85.6863 109.662 85.5073 109.963 85.3794C110.267 85.2484 110.591 85.1828 110.936 85.1828C111.336 85.1828 111.684 85.2787 111.982 85.4705C112.279 85.6591 112.515 85.9068 112.691 86.2137L112.667 85.3171ZM110.965 89.5844C111.307 89.5844 111.601 89.5013 111.847 89.3351C112.093 89.1657 112.282 88.9387 112.413 88.6542C112.547 88.3697 112.614 88.0565 112.614 87.7144C112.614 87.3628 112.547 87.0464 112.413 86.7651C112.279 86.4806 112.089 86.2553 111.842 86.089C111.596 85.9228 111.304 85.8397 110.965 85.8397C110.626 85.8397 110.316 85.9244 110.035 86.0938C109.757 86.26 109.535 86.4854 109.368 86.7699C109.205 87.0544 109.124 87.3692 109.124 87.7144C109.124 88.0629 109.209 88.3793 109.378 88.6638C109.547 88.9451 109.771 89.1689 110.049 89.3351C110.331 89.5013 110.636 89.5844 110.965 89.5844ZM118.15 82.9197H118.822V90.1118H118.15V89.2152C117.984 89.5221 117.756 89.7698 117.465 89.9584C117.177 90.1438 116.835 90.2365 116.439 90.2365C116.09 90.2365 115.764 90.171 115.461 90.0399C115.157 89.9088 114.888 89.7282 114.655 89.4981C114.425 89.2647 114.244 88.9962 114.113 88.6926C113.982 88.3889 113.917 88.0629 113.917 87.7144C113.917 87.366 113.982 87.04 114.113 86.7363C114.244 86.4295 114.425 86.161 114.655 85.9308C114.888 85.6975 115.157 85.5153 115.461 85.3842C115.764 85.2532 116.09 85.1876 116.439 85.1876C116.835 85.1876 117.177 85.2819 117.465 85.4705C117.756 85.6559 117.984 85.9004 118.15 86.2041V82.9197ZM116.443 89.5844C116.785 89.5844 117.08 89.5013 117.326 89.3351C117.572 89.1657 117.76 88.9387 117.891 88.6542C118.026 88.3697 118.093 88.0565 118.093 87.7144C118.093 87.3628 118.026 87.0464 117.891 86.7651C117.757 86.4806 117.567 86.2553 117.321 86.089C117.075 85.9228 116.782 85.8397 116.443 85.8397C116.105 85.8397 115.796 85.9244 115.518 86.0938C115.24 86.26 115.018 86.4854 114.852 86.7699C114.685 87.0544 114.602 87.3692 114.602 87.7144C114.602 88.0629 114.687 88.3793 114.856 88.6638C115.026 88.9451 115.25 89.1689 115.528 89.3351C115.809 89.5013 116.114 89.5844 116.443 89.5844ZM119.973 85.3171H120.644V90.1118H119.973V85.3171ZM120.313 84.478C120.205 84.478 120.112 84.4428 120.035 84.3725C119.962 84.299 119.925 84.2079 119.925 84.0992C119.925 83.9905 119.962 83.901 120.035 83.8307C120.112 83.7572 120.205 83.7204 120.313 83.7204C120.419 83.7204 120.508 83.7572 120.582 83.8307C120.659 83.901 120.697 83.9905 120.697 84.0992C120.697 84.2079 120.66 84.299 120.587 84.3725C120.513 84.4428 120.422 84.478 120.313 84.478ZM125.961 87.1439V90.1118H125.29V87.2781C125.29 87.016 125.226 86.7779 125.098 86.5637C124.97 86.3495 124.799 86.1785 124.585 86.0507C124.371 85.9228 124.133 85.8589 123.871 85.8589C123.612 85.8589 123.374 85.9228 123.156 86.0507C122.942 86.1785 122.771 86.3495 122.643 86.5637C122.516 86.7779 122.452 87.016 122.452 87.2781V90.1118H121.78V85.3171H122.452V85.9788C122.621 85.7358 122.842 85.5424 123.113 85.3986C123.385 85.2548 123.681 85.1828 124 85.1828C124.361 85.1828 124.691 85.2707 124.988 85.4465C125.285 85.6223 125.522 85.8589 125.698 86.1562C125.873 86.4534 125.961 86.7827 125.961 87.1439ZM130.64 85.3171H131.311V90.2892C131.311 90.5961 131.244 90.8838 131.11 91.1523C130.979 91.4208 130.8 91.6557 130.573 91.8571C130.349 92.0617 130.093 92.2215 129.805 92.3366C129.518 92.4516 129.219 92.5092 128.909 92.5092C128.576 92.5092 128.255 92.4325 127.945 92.279C127.635 92.1288 127.365 91.9274 127.135 91.6749C126.908 91.4224 126.746 91.1427 126.651 90.8358L127.269 90.5529C127.33 90.7927 127.443 91.0084 127.609 91.2002C127.779 91.3952 127.977 91.5486 128.204 91.6605C128.434 91.7756 128.669 91.8331 128.909 91.8331C129.129 91.8331 129.342 91.7916 129.547 91.7085C129.754 91.6286 129.94 91.5183 130.103 91.3776C130.269 91.237 130.4 91.0724 130.496 90.8838C130.592 90.6984 130.64 90.5002 130.64 90.2892V89.2296C130.474 89.5301 130.248 89.773 129.964 89.9584C129.682 90.1438 129.355 90.2365 128.981 90.2365C128.645 90.2365 128.329 90.171 128.031 90.0399C127.737 89.9088 127.478 89.7282 127.255 89.4981C127.031 89.2647 126.855 88.9962 126.727 88.6926C126.603 88.3889 126.54 88.0629 126.54 87.7144C126.54 87.366 126.603 87.04 126.727 86.7363C126.855 86.4295 127.031 86.161 127.255 85.9308C127.478 85.6975 127.737 85.5153 128.031 85.3842C128.329 85.2532 128.645 85.1876 128.981 85.1876C129.355 85.1876 129.682 85.2803 129.964 85.4657C130.248 85.6479 130.474 85.8909 130.64 86.1945V85.3171ZM128.986 89.5844C129.318 89.5844 129.604 89.4981 129.844 89.3255C130.087 89.1529 130.274 88.9243 130.405 88.6398C130.536 88.3553 130.601 88.0469 130.601 87.7144C130.601 87.3724 130.534 87.0608 130.4 86.7795C130.269 86.495 130.082 86.268 129.839 86.0986C129.596 85.926 129.312 85.8397 128.986 85.8397C128.66 85.8397 128.362 85.9244 128.094 86.0938C127.828 86.26 127.617 86.4854 127.461 86.7699C127.304 87.0544 127.226 87.3692 127.226 87.7144C127.226 88.0597 127.306 88.3745 127.466 88.659C127.625 88.9403 127.838 89.1657 128.103 89.3351C128.372 89.5013 128.666 89.5844 128.986 89.5844Z" fill="white"/>
<path d="M93.8429 117.669V104.366H91.8176L92.5771 101.559H96.6507V117.669H93.8429ZM104.823 117.968C103.787 117.968 102.851 117.719 102.015 117.22C101.179 116.714 100.515 116.043 100.024 115.206C99.5408 114.37 99.2992 113.453 99.2992 112.456H102.107C102.107 112.955 102.23 113.411 102.475 113.825C102.721 114.232 103.047 114.558 103.453 114.804C103.868 115.041 104.324 115.16 104.823 115.16C105.321 115.16 105.774 115.041 106.181 114.804C106.587 114.558 106.913 114.232 107.159 113.825C107.404 113.411 107.527 112.955 107.527 112.456C107.527 111.957 107.42 111.501 107.205 111.087C106.998 110.665 106.656 110.331 106.181 110.086C105.713 109.832 105.091 109.706 104.316 109.706H100.174L101.877 101.559H109.794V104.366H104.155L103.637 106.898L104.777 106.91C105.866 106.948 106.829 107.213 107.665 107.704C108.501 108.195 109.153 108.854 109.621 109.683C110.097 110.504 110.335 111.428 110.335 112.456C110.335 113.208 110.193 113.918 109.909 114.585C109.625 115.252 109.23 115.839 108.724 116.346C108.217 116.852 107.631 117.251 106.963 117.542C106.303 117.826 105.59 117.968 104.823 117.968ZM114.068 117.968C113.669 117.968 113.328 117.83 113.044 117.554C112.768 117.27 112.63 116.925 112.63 116.518C112.63 116.127 112.768 115.789 113.044 115.506C113.328 115.222 113.669 115.08 114.068 115.08C114.467 115.08 114.808 115.222 115.092 115.506C115.376 115.789 115.518 116.127 115.518 116.518C115.518 116.925 115.376 117.27 115.092 117.554C114.808 117.83 114.467 117.968 114.068 117.968ZM117.822 117.669V115.16C118.32 114.784 118.911 114.32 119.594 113.768C120.276 113.208 120.978 112.606 121.7 111.961C122.421 111.309 123.088 110.657 123.702 110.005C124.316 109.353 124.814 108.732 125.198 108.141C125.589 107.55 125.785 107.044 125.785 106.622C125.785 106.154 125.67 105.728 125.439 105.345C125.209 104.953 124.902 104.643 124.519 104.412C124.143 104.182 123.721 104.067 123.253 104.067C122.785 104.067 122.359 104.182 121.976 104.412C121.592 104.643 121.285 104.953 121.055 105.345C120.825 105.728 120.71 106.154 120.71 106.622H117.902C117.902 105.609 118.148 104.7 118.639 103.895C119.13 103.081 119.778 102.441 120.583 101.973C121.396 101.497 122.286 101.259 123.253 101.259C124.235 101.259 125.129 101.501 125.934 101.984C126.74 102.46 127.384 103.104 127.867 103.918C128.351 104.731 128.592 105.632 128.592 106.622C128.592 107.144 128.497 107.669 128.305 108.198C128.113 108.728 127.844 109.261 127.499 109.798C127.154 110.335 126.747 110.88 126.279 111.432C125.811 111.977 125.294 112.537 124.726 113.112C124.166 113.68 123.575 114.263 122.954 114.861H128.673V117.669H117.822Z" fill="white"/>
<path d="M100.372 135.226L101.498 129.408H101.922L103.551 133.689L105.172 129.408H105.595L106.726 135.226H106.131L105.271 130.776L103.734 134.844H103.36L101.822 130.776L100.962 135.226H100.372ZM107.587 135.226V129.408H109.553C109.835 129.408 110.092 129.467 110.322 129.583C110.554 129.697 110.738 129.864 110.874 130.086C111.013 130.305 111.082 130.571 111.082 130.884C111.082 131.061 111.05 131.23 110.986 131.391C110.923 131.551 110.84 131.688 110.737 131.802C110.635 131.913 110.524 131.985 110.405 132.018C110.576 132.062 110.725 132.14 110.849 132.251C110.974 132.359 111.076 132.488 111.157 132.637C111.237 132.784 111.295 132.939 111.331 133.103C111.37 133.266 111.389 133.427 111.389 133.585C111.389 133.912 111.317 134.198 111.173 134.445C111.032 134.691 110.842 134.884 110.604 135.022C110.366 135.158 110.101 135.226 109.81 135.226H107.587ZM108.169 134.707H109.765C109.967 134.707 110.15 134.654 110.313 134.549C110.479 134.443 110.611 134.299 110.708 134.117C110.808 133.934 110.858 133.727 110.858 133.497C110.858 133.292 110.808 133.1 110.708 132.92C110.611 132.737 110.479 132.59 110.313 132.479C110.15 132.366 109.967 132.309 109.765 132.309H108.169V134.707ZM108.169 131.798H109.503C109.777 131.798 110.011 131.719 110.205 131.561C110.402 131.4 110.5 131.173 110.5 130.879C110.5 130.558 110.402 130.32 110.205 130.165C110.011 130.007 109.777 129.928 109.503 129.928H108.169V131.798ZM112.148 135.226V129.408H114.01C114.32 129.408 114.6 129.485 114.85 129.637C115.099 129.787 115.297 129.99 115.444 130.248C115.593 130.503 115.668 130.789 115.668 131.108C115.668 131.429 115.592 131.719 115.44 131.977C115.29 132.234 115.089 132.438 114.837 132.587C114.588 132.737 114.312 132.812 114.01 132.812H112.73V135.226H112.148ZM112.73 132.23H113.964C114.169 132.23 114.356 132.18 114.525 132.08C114.697 131.978 114.833 131.841 114.933 131.669C115.035 131.494 115.086 131.298 115.086 131.079C115.086 130.86 115.035 130.665 114.933 130.493C114.833 130.319 114.697 130.181 114.525 130.082C114.356 129.979 114.169 129.928 113.964 129.928H112.73V132.23ZM118.531 135.334C118.22 135.334 117.92 135.286 117.629 135.189C117.341 135.092 117.089 134.953 116.873 134.773C116.657 134.593 116.504 134.378 116.416 134.129L116.96 133.925C117.021 134.097 117.132 134.245 117.292 134.37C117.456 134.492 117.646 134.586 117.862 134.653C118.081 134.719 118.304 134.752 118.531 134.752C118.797 134.752 119.045 134.708 119.275 134.619C119.504 134.531 119.69 134.407 119.831 134.25C119.973 134.089 120.043 133.9 120.043 133.684C120.043 133.466 119.97 133.285 119.823 133.144C119.676 133.003 119.486 132.892 119.254 132.812C119.024 132.729 118.783 132.665 118.531 132.621C118.135 132.551 117.779 132.457 117.463 132.338C117.15 132.219 116.902 132.051 116.719 131.835C116.536 131.616 116.445 131.328 116.445 130.971C116.445 130.636 116.542 130.345 116.736 130.098C116.929 129.852 117.184 129.661 117.5 129.525C117.819 129.389 118.162 129.321 118.531 129.321C118.833 129.321 119.128 129.368 119.416 129.462C119.704 129.557 119.957 129.694 120.176 129.874C120.398 130.054 120.557 130.274 120.654 130.535L120.101 130.734C120.041 130.56 119.928 130.411 119.765 130.289C119.604 130.165 119.416 130.071 119.2 130.007C118.984 129.94 118.761 129.907 118.531 129.907C118.268 129.904 118.021 129.949 117.791 130.04C117.564 130.129 117.38 130.253 117.238 130.414C117.097 130.572 117.026 130.758 117.026 130.971C117.026 131.22 117.092 131.413 117.222 131.549C117.355 131.681 117.535 131.781 117.762 131.848C117.989 131.914 118.245 131.974 118.531 132.026C118.902 132.09 119.247 132.19 119.565 132.326C119.884 132.459 120.14 132.637 120.334 132.862C120.528 133.083 120.625 133.358 120.625 133.684C120.625 134.017 120.528 134.308 120.334 134.557C120.14 134.804 119.884 134.995 119.565 135.13C119.25 135.266 118.905 135.334 118.531 135.334Z" fill="white"/>
<circle opacity="0.34" cx="110.473" cy="109.169" r="57.6238" stroke="url(#paint0_linear_12_5643)" stroke-width="3.83579"/>
<circle opacity="0.34" cx="110.474" cy="109.169" r="64.3439" stroke="url(#paint1_linear_12_5643)" stroke-width="0.639298" stroke-dasharray="5.11 5.11"/>
<circle cx="110.474" cy="109.169" r="77.7888" stroke="url(#paint2_linear_12_5643)" stroke-width="0.639298"/>
<path d="M177.199 87.2409C178.642 86.7668 179.432 85.2104 178.904 83.7865C172.988 67.8381 161.673 54.4256 146.881 45.9118C132.088 37.3979 114.807 34.3516 98.0454 37.2484C96.5489 37.507 95.6 38.972 95.9148 40.4576C96.2296 41.9432 97.6887 42.8865 99.1859 42.6325C114.621 40.0138 130.52 42.8403 144.138 50.6781C157.755 58.5159 168.186 70.8435 173.675 85.505C174.208 86.9272 175.756 87.715 177.199 87.2409Z" fill="url(#paint3_linear_12_5643)"/>
<circle cx="177.057" cy="85.4805" r="5.12186" fill="#3B44FF"/>
<path opacity="0.3" d="M218.032 109.169C218.032 168.573 169.877 216.728 110.473 216.728C51.0699 216.728 2.91406 168.573 2.91406 109.169C2.91406 49.766 51.0699 1.61011 110.473 1.61011C169.877 1.61011 218.032 49.766 218.032 109.169ZM33.0087 109.169C33.0087 151.952 67.6907 186.634 110.473 186.634C153.256 186.634 187.938 151.952 187.938 109.169C187.938 66.3868 153.256 31.7047 110.473 31.7047C67.6907 31.7047 33.0087 66.3868 33.0087 109.169Z" fill="url(#paint4_linear_12_5643)"/>
<path d="M111.097 18.8965V28.7974M125.265 20.0592L123.716 29.8382M139.077 23.424L136.018 32.8403M152.192 28.9081L147.698 37.7298M164.288 36.3763L158.469 44.3863M175.067 45.6448L168.066 52.6458M184.264 56.4854L176.254 62.305M191.651 68.6311L182.829 73.126M197.047 81.7829L187.631 84.8424M200.319 95.6169L190.54 97.1657M201.387 109.792H191.486M200.224 123.961L190.445 122.412M196.86 137.772L187.443 134.713M191.376 150.888L182.554 146.393M183.907 162.984L175.897 157.164M174.639 173.763L167.638 166.762M163.798 182.959L157.979 174.949M151.653 190.346L147.158 181.524M138.501 195.742L135.441 186.326M124.667 199.015L123.118 189.236M110.491 200.082V190.182M96.323 198.92L97.8719 189.141M82.5112 195.555L85.5708 186.139M69.3958 190.071L73.8907 181.249M57.2998 182.603L63.1194 174.593M46.521 173.334L53.522 166.333M37.3248 162.494L45.3348 156.674M29.9377 150.348L38.7594 145.853M24.5415 137.196L33.9578 134.137M21.2691 123.362L31.0481 121.813M20.2012 109.186H30.102M21.3639 95.0183L31.1429 96.5672M24.7287 81.2065L34.145 84.2661M30.2128 68.0911L39.0345 72.586M37.681 55.9951L45.691 61.8147M46.9495 45.2163L53.9505 52.2173M57.7901 36.0201L63.6097 44.0301M69.9358 28.633L74.4307 37.4547M83.0875 23.2368L86.1471 32.6531M96.9216 19.9644L98.4704 29.7434" stroke="url(#paint5_linear_12_5643)" stroke-width="0.639298"/>
<path d="M180.213 39.7785C179.867 39.436 179.635 39.0481 179.519 38.6148C179.405 38.1841 179.403 37.7556 179.511 37.3291C179.62 36.9027 179.838 36.5244 180.164 36.1944L181.015 37.0358C180.845 37.2076 180.731 37.4049 180.673 37.6276C180.614 37.8504 180.616 38.0755 180.677 38.303C180.737 38.5305 180.863 38.7386 181.054 38.9274C181.226 39.0973 181.428 39.2128 181.658 39.2738C181.889 39.3349 182.12 39.339 182.35 39.2862C182.58 39.2333 182.781 39.121 182.95 38.9491C183.166 38.7309 183.29 38.4915 183.321 38.2309C183.352 37.9704 183.3 37.7035 183.166 37.4303C183.036 37.1571 182.84 36.8897 182.575 36.6281L183.238 35.9571C183.599 36.3131 183.956 36.5267 184.312 36.5979C184.668 36.6691 184.985 36.5642 185.262 36.2832C185.408 36.1359 185.501 35.9632 185.54 35.7649C185.585 35.5667 185.579 35.3687 185.521 35.171C185.468 34.9733 185.369 34.803 185.225 34.6601C185.075 34.5118 184.894 34.4057 184.682 34.3418C184.475 34.2779 184.268 34.2641 184.059 34.3006C183.853 34.3343 183.677 34.4248 183.532 34.5721L182.681 33.7307C182.904 33.5043 183.161 33.3374 183.451 33.23C183.746 33.1225 184.048 33.0733 184.357 33.0824C184.672 33.0914 184.975 33.1562 185.266 33.2766C185.562 33.3969 185.825 33.5704 186.054 33.7969C186.354 34.0935 186.558 34.4436 186.666 34.8471C186.779 35.2506 186.79 35.6547 186.697 36.0594C186.61 36.464 186.416 36.8191 186.113 37.1246C185.873 37.3674 185.586 37.5385 185.25 37.6381C184.919 37.7376 184.605 37.7286 184.306 37.611C184.424 37.8571 184.474 38.1118 184.457 38.375C184.445 38.6381 184.38 38.8921 184.262 39.1369C184.146 39.379 183.993 39.5968 183.801 39.7905C183.478 40.1178 183.098 40.3356 182.662 40.4439C182.229 40.5495 181.793 40.5452 181.356 40.431C180.921 40.3196 180.54 40.1021 180.213 39.7785ZM184.285 44.0623C183.966 43.7093 183.758 43.3184 183.661 42.8898C183.568 42.4614 183.572 42.0162 183.672 41.5541C183.771 41.0921 183.959 40.6386 184.234 40.1937C184.512 39.7462 184.865 39.3296 185.292 38.944C185.719 38.5584 186.169 38.25 186.643 38.0189C187.116 37.7878 187.586 37.6474 188.053 37.5979C188.523 37.5458 188.965 37.5887 189.379 37.7266C189.798 37.8648 190.167 38.1104 190.486 38.4634C190.799 38.8107 191.004 39.2 191.098 39.6312C191.196 40.0599 191.193 40.5024 191.088 40.9587C190.988 41.4153 190.8 41.8674 190.522 42.3149C190.244 42.7624 189.891 43.179 189.464 43.5646C189.037 43.9502 188.587 44.2585 188.113 44.4897C187.643 44.7183 187.174 44.86 186.706 44.9149C186.242 44.9727 185.8 44.9325 185.38 44.7944C184.964 44.6536 184.599 44.4096 184.285 44.0623ZM185.173 43.2602C185.469 43.5876 185.817 43.767 186.217 43.7982C186.623 43.8298 187.043 43.748 187.477 43.5529C187.91 43.3577 188.322 43.084 188.712 42.7319C189.122 42.3617 189.442 41.9693 189.672 41.5546C189.908 41.1403 190.025 40.7348 190.024 40.3382C190.028 39.9419 189.886 39.5843 189.598 39.2654C189.369 39.0121 189.11 38.8454 188.821 38.7655C188.534 38.6884 188.231 38.6825 187.913 38.7477C187.597 38.8158 187.279 38.9381 186.957 39.1145C186.639 39.2938 186.334 39.5145 186.044 39.7767C185.654 40.1289 185.341 40.5122 185.105 40.9266C184.869 41.3409 184.747 41.7515 184.737 42.1584C184.732 42.5656 184.878 42.9328 185.173 43.2602ZM188.293 48.7906C187.996 48.419 187.812 48.0163 187.74 47.5826C187.674 47.1494 187.705 46.7053 187.832 46.25C187.959 45.7948 188.174 45.3535 188.475 44.9259C188.78 44.496 189.157 44.1014 189.606 43.7422C190.056 43.383 190.524 43.1023 191.01 42.9001C191.497 42.6979 191.975 42.5861 192.444 42.5648C192.916 42.5411 193.354 42.6106 193.759 42.7731C194.169 42.9363 194.523 43.2037 194.82 43.5752C195.112 43.9408 195.292 44.3417 195.361 44.7778C195.433 45.2116 195.402 45.6531 195.27 46.1023C195.144 46.5521 194.928 46.992 194.624 47.4219C194.319 47.8519 193.942 48.2464 193.493 48.6056C193.043 48.9648 192.575 49.2455 192.088 49.4477C191.605 49.6475 191.128 49.7608 190.659 49.7875C190.191 49.8172 189.753 49.7504 189.342 49.5873C188.935 49.4217 188.585 49.1561 188.293 48.7906ZM189.228 48.0435C189.504 48.3881 189.84 48.588 190.238 48.6434C190.641 48.6993 191.065 48.6429 191.509 48.4742C191.954 48.3055 192.382 48.0572 192.792 47.7291C193.224 47.3843 193.567 47.0119 193.822 46.6119C194.082 46.2124 194.223 45.8147 194.245 45.4188C194.273 45.0234 194.153 44.6579 193.885 44.3223C193.672 44.0556 193.423 43.8737 193.139 43.7765C192.858 43.6823 192.556 43.6582 192.235 43.7041C191.915 43.7531 191.59 43.8559 191.258 44.0127C190.93 44.1724 190.612 44.3745 190.307 44.6187C189.896 44.9467 189.561 45.3105 189.3 45.7099C189.04 46.1093 188.893 46.5118 188.859 46.9174C188.83 47.3235 188.953 47.6989 189.228 48.0435Z" fill="white"/>
<path d="M35.0683 45.5732L29.8523 41.1199L29.2284 41.8507L28.5312 40.8242L29.7192 39.4327L35.8453 44.663L35.0683 45.5732ZM38.64 41.9091C38.3106 42.2523 37.9357 42.4879 37.5151 42.6159C37.0944 42.7386 36.6501 42.7667 36.1821 42.7004C35.7141 42.6341 35.2484 42.4795 34.7849 42.2368C34.3187 41.9914 33.878 41.6695 33.4628 41.2711C33.0477 40.8728 32.7079 40.4457 32.4435 39.9899C32.1791 39.5342 32.0055 39.0752 31.9227 38.613C31.8372 38.1482 31.8484 37.7044 31.9563 37.2817C32.0642 36.8535 32.2827 36.4679 32.6121 36.1247C32.9361 35.787 33.3098 35.5555 33.7331 35.4301C34.1537 35.3021 34.5953 35.274 35.058 35.3459C35.5205 35.4123 35.9849 35.5682 36.4512 35.8136C36.9174 36.059 37.3581 36.3809 37.7733 36.7793C38.1884 37.1776 38.5282 37.6047 38.7926 38.0604C39.0542 38.5135 39.2291 38.9711 39.3173 39.4332C39.4082 39.8925 39.3997 40.3363 39.2919 40.7644C39.1813 41.1899 38.964 41.5715 38.64 41.9091ZM37.7765 41.0805C38.0819 40.7622 38.2359 40.4023 38.2385 40.0007C38.2409 39.5937 38.1293 39.181 37.9037 38.7624C37.678 38.3439 37.3756 37.9527 36.9964 37.5888C36.5979 37.2064 36.1836 36.9151 35.7536 36.7151C35.3234 36.5096 34.9106 36.4218 34.5151 36.4517C34.1195 36.4761 33.773 36.6433 33.4756 36.9533C33.2392 37.1996 33.0915 37.4699 33.0324 37.7641C32.9761 38.0555 32.9918 38.3577 33.0796 38.6706C33.1701 38.9807 33.3148 39.2897 33.5138 39.5976C33.7154 39.9027 33.9574 40.1907 34.2397 40.4616C34.6188 40.8254 35.0235 41.1101 35.4536 41.3156C35.8838 41.521 36.3022 41.6141 36.7087 41.5949C37.1151 41.5702 37.471 41.3988 37.7765 41.0805ZM43.0735 37.565C42.7244 37.8881 42.3361 38.1011 41.9087 38.204C41.4815 38.3015 41.0363 38.3032 40.5731 38.2093C40.1098 38.1154 39.6541 37.9336 39.2058 37.6638C38.7549 37.3912 38.334 37.0438 37.9432 36.6215C37.5524 36.1992 37.2385 35.7528 37.0016 35.2822C36.7646 34.8116 36.6185 34.3431 36.5633 33.8768C36.5054 33.4077 36.5429 32.9654 36.6757 32.5498C36.8087 32.1288 37.0497 31.7568 37.3988 31.4337C37.7422 31.1158 38.129 30.9069 38.559 30.8068C38.9864 30.7039 39.4289 30.702 39.8865 30.8011C40.3443 30.8948 40.7987 31.078 41.2496 31.3506C41.7005 31.6232 42.1213 31.9706 42.5122 32.3929C42.903 32.8151 43.2169 33.2616 43.4538 33.7322C43.6881 34.2 43.8356 34.6671 43.8963 35.1336C43.9598 35.5975 43.925 36.0399 43.792 36.461C43.6564 36.8791 43.4169 37.2472 43.0735 37.565ZM42.2606 36.6867C42.5843 36.3871 42.7593 36.0369 42.7857 35.6362C42.8123 35.2301 42.7253 34.8114 42.5249 34.3803C42.3244 33.9491 42.0457 33.5406 41.6887 33.155C41.3136 32.7496 40.9172 32.4343 40.4998 32.2092C40.0826 31.9786 39.6757 31.8665 39.2791 31.8729C38.8828 31.8738 38.527 32.0202 38.2117 32.312C37.9612 32.5439 37.7977 32.8049 37.7213 33.0951C37.6478 33.3827 37.6456 33.6853 37.7147 34.0028C37.7867 34.3178 37.9128 34.6348 38.0932 34.9539C38.2764 35.2704 38.5009 35.5723 38.7666 35.8594C39.1236 36.2451 39.5107 36.5532 39.9279 36.7838C40.3451 37.0143 40.7572 37.1321 41.1642 37.137C41.5714 37.1364 41.9368 36.9863 42.2606 36.6867Z" fill="white"/>
<path d="M11.4097 119.375L10.3472 119.44C10.1048 119.182 9.82344 118.885 9.5033 118.551C9.17933 118.218 8.83779 117.879 8.47866 117.536C8.11571 117.193 7.75642 116.879 7.4008 116.593C7.04135 116.308 6.70467 116.08 6.39076 115.911C6.07278 115.738 5.80084 115.659 5.57495 115.673C5.31843 115.688 5.08874 115.766 4.88588 115.905C4.67895 116.041 4.51874 116.218 4.40525 116.436C4.28793 116.654 4.2371 116.892 4.25276 117.148C4.26842 117.405 4.34788 117.636 4.49114 117.843C4.63034 118.046 4.81112 118.206 5.03347 118.323C5.25176 118.436 5.48916 118.485 5.74568 118.47L5.8186 119.664C5.33237 119.694 4.88674 119.602 4.48172 119.388C4.07265 119.171 3.74133 118.874 3.48777 118.498C3.23015 118.118 3.08697 117.692 3.05822 117.221C3.02924 116.747 3.1196 116.307 3.32931 115.902C3.53902 115.497 3.83392 115.166 4.21401 114.908C4.59028 114.651 5.01962 114.508 5.50203 114.478C5.77004 114.462 6.04909 114.501 6.33919 114.594C6.62929 114.688 6.92782 114.825 7.23478 115.007C7.5415 115.184 7.85405 115.393 8.1724 115.635C8.49076 115.877 8.81028 116.138 9.13098 116.418C9.45167 116.698 9.76889 116.985 10.0826 117.277L9.89121 114.141L11.0858 114.068L11.4097 119.375ZM11.2167 110.676C11.2181 111.152 11.1119 111.582 10.8981 111.966C10.6806 112.346 10.3804 112.675 9.99757 112.952C9.61477 113.23 9.17233 113.442 8.67025 113.589C8.16433 113.736 7.62369 113.81 7.04833 113.812C6.47296 113.814 5.93191 113.742 5.42519 113.598C4.91846 113.454 4.47483 113.244 4.09432 112.969C3.70997 112.694 3.40986 112.367 3.19399 111.987C2.97428 111.604 2.86376 111.175 2.86243 110.7C2.86112 110.232 2.96924 109.805 3.18681 109.421C3.40054 109.037 3.69882 108.71 4.08164 108.441C4.46062 108.167 4.90307 107.957 5.40898 107.81C5.9149 107.663 6.45553 107.588 7.0309 107.587C7.60627 107.585 8.14731 107.656 8.65404 107.801C9.15694 107.945 9.60055 108.153 9.98489 108.424C10.3692 108.692 10.6712 109.017 10.891 109.4C11.1068 109.783 11.2154 110.208 11.2167 110.676ZM10.02 110.679C10.0187 110.238 9.87963 109.872 9.60264 109.582C9.3218 109.287 8.95487 109.068 8.50184 108.923C8.04881 108.779 7.55954 108.707 7.03404 108.709C6.48169 108.71 5.98134 108.788 5.53298 108.943C5.08078 109.094 4.72276 109.317 4.45892 109.613C4.19123 109.906 4.05799 110.267 4.05919 110.696C4.06014 111.038 4.14153 111.335 4.30334 111.587C4.46514 111.836 4.68628 112.043 4.96675 112.207C5.24721 112.367 5.56592 112.489 5.92289 112.572C6.27984 112.652 6.65394 112.691 7.04519 112.69C7.57069 112.689 8.05954 112.612 8.51174 112.462C8.96394 112.311 9.32964 112.087 9.60882 111.791C9.88416 111.491 10.0212 111.121 10.02 110.679ZM11.3925 104.478C11.3653 104.953 11.2336 105.375 10.9972 105.746C10.7572 106.113 10.4379 106.423 10.0392 106.677C9.64043 106.931 9.18608 107.116 8.67608 107.233C8.16226 107.349 7.61814 107.391 7.04371 107.358C6.46928 107.326 5.93348 107.222 5.4363 107.047C4.93913 106.873 4.50887 106.637 4.14552 106.34C3.77834 106.042 3.49836 105.698 3.30559 105.306C3.10922 104.911 3.02461 104.476 3.05177 104.001C3.07849 103.534 3.21195 103.115 3.45214 102.744C3.6885 102.374 4.00582 102.065 4.40411 101.819C4.79878 101.569 5.25303 101.385 5.76685 101.269C6.28067 101.152 6.8248 101.11 7.39923 101.143C7.97366 101.176 8.50946 101.28 9.00663 101.454C9.49998 101.628 9.93035 101.862 10.2977 102.156C10.6654 102.446 10.9474 102.789 11.1437 103.184C11.3363 103.579 11.4192 104.011 11.3925 104.478ZM10.1977 104.409C10.2229 103.969 10.1059 103.595 9.84684 103.289C9.58415 102.978 9.23102 102.737 8.78746 102.565C8.3439 102.394 7.8598 102.293 7.33516 102.263C6.7837 102.232 6.27957 102.28 5.82275 102.407C5.36233 102.531 4.99156 102.732 4.71046 103.012C4.42574 103.288 4.27112 103.64 4.24658 104.069C4.22709 104.41 4.29053 104.711 4.43691 104.973C4.58352 105.231 4.79189 105.451 5.06202 105.631C5.33238 105.808 5.64322 105.949 5.99454 106.054C6.34609 106.154 6.71717 106.216 7.10778 106.238C7.63243 106.268 8.12496 106.222 8.58539 106.098C9.04582 105.975 9.42424 105.773 9.72066 105.494C10.0135 105.212 10.1725 104.85 10.1977 104.409Z" fill="white"/>
<path d="M209.748 104.96L211.804 104.834L211.594 101.394L212.794 101.321L217.77 104.182L217.861 105.664L213.071 105.956L213.116 106.691L211.921 106.764L211.876 106.029L209.821 106.154L209.748 104.96ZM212.879 102.711L212.998 104.761L216.139 104.558L212.879 102.711ZM209.731 110.229C209.73 109.754 209.836 109.324 210.05 108.94C210.267 108.559 210.568 108.23 210.95 107.953C211.333 107.676 211.776 107.464 212.278 107.317C212.784 107.17 213.324 107.095 213.9 107.094C214.475 107.092 215.016 107.163 215.523 107.308C216.029 107.452 216.473 107.662 216.854 107.937C217.238 108.212 217.538 108.539 217.754 108.918C217.974 109.301 218.084 109.731 218.085 110.206C218.087 110.674 217.979 111.1 217.761 111.484C217.547 111.869 217.249 112.196 216.866 112.465C216.487 112.738 216.045 112.949 215.539 113.096C215.033 113.243 214.492 113.317 213.917 113.319C213.341 113.321 212.8 113.249 212.294 113.105C211.791 112.96 211.347 112.753 210.963 112.481C210.578 112.214 210.276 111.889 210.057 111.506C209.841 111.123 209.732 110.697 209.731 110.229ZM210.928 110.226C210.929 110.667 211.068 111.033 211.345 111.324C211.626 111.618 211.993 111.838 212.446 111.982C212.899 112.127 213.388 112.198 213.914 112.197C214.466 112.196 214.966 112.117 215.415 111.963C215.867 111.812 216.225 111.588 216.489 111.292C216.757 111 216.89 110.639 216.889 110.21C216.888 109.868 216.806 109.571 216.645 109.318C216.483 109.07 216.262 108.863 215.981 108.699C215.701 108.539 215.382 108.417 215.025 108.333C214.668 108.254 214.294 108.214 213.903 108.216C213.377 108.217 212.888 108.293 212.436 108.444C211.984 108.595 211.618 108.818 211.339 109.114C211.064 109.414 210.927 109.785 210.928 110.226ZM209.555 116.428C209.582 115.953 209.714 115.53 209.95 115.159C210.19 114.793 210.51 114.482 210.908 114.229C211.307 113.975 211.762 113.79 212.272 113.673C212.785 113.556 213.33 113.514 213.904 113.547C214.478 113.58 215.014 113.684 215.511 113.858C216.009 114.033 216.439 114.269 216.802 114.566C217.169 114.864 217.449 115.208 217.642 115.6C217.838 115.995 217.923 116.43 217.896 116.905C217.869 117.372 217.736 117.791 217.495 118.162C217.259 118.532 216.942 118.841 216.543 119.087C216.149 119.337 215.694 119.52 215.181 119.637C214.667 119.754 214.123 119.795 213.548 119.763C212.974 119.73 212.438 119.626 211.941 119.452C211.447 119.277 211.017 119.043 210.65 118.749C210.282 118.459 210 118.117 209.804 117.721C209.611 117.326 209.528 116.895 209.555 116.428ZM210.75 116.496C210.725 116.936 210.842 117.31 211.101 117.617C211.363 117.928 211.716 118.169 212.16 118.34C212.604 118.512 213.088 118.612 213.612 118.642C214.164 118.674 214.668 118.626 215.125 118.498C215.585 118.375 215.956 118.173 216.237 117.894C216.522 117.618 216.676 117.266 216.701 116.837C216.72 116.496 216.657 116.194 216.511 115.932C216.364 115.674 216.156 115.455 215.886 115.274C215.615 115.097 215.304 114.957 214.953 114.852C214.602 114.751 214.23 114.69 213.84 114.667C213.315 114.637 212.823 114.684 212.362 114.808C211.902 114.931 211.523 115.132 211.227 115.411C210.934 115.694 210.775 116.056 210.75 116.496Z" fill="white"/>
<path d="M106.648 216.645L106.822 209.789L105.861 209.764L106.219 208.576L108.048 208.622L107.845 216.675L106.648 216.645ZM113.761 210.88L114.957 210.864L115.033 216.767C115.039 217.162 114.959 217.528 114.794 217.864C114.634 218.199 114.413 218.49 114.132 218.735C113.852 218.984 113.528 219.178 113.162 219.317C112.799 219.456 112.418 219.528 112.019 219.534C111.617 219.539 111.228 219.457 110.854 219.29C110.48 219.126 110.149 218.9 109.861 218.612C109.577 218.324 109.364 217.997 109.221 217.63L110.314 217.121C110.394 217.358 110.519 217.568 110.69 217.75C110.865 217.931 111.067 218.075 111.294 218.179C111.526 218.284 111.762 218.334 112.004 218.331C112.242 218.328 112.469 218.287 112.687 218.207C112.909 218.131 113.105 218.025 113.276 217.889C113.45 217.752 113.588 217.59 113.689 217.4C113.791 217.211 113.84 217.005 113.837 216.783L113.824 215.81C113.64 216.104 113.402 216.343 113.108 216.527C112.815 216.708 112.473 216.8 112.082 216.805C111.676 216.81 111.291 216.737 110.928 216.584C110.566 216.432 110.247 216.219 109.971 215.946C109.695 215.67 109.478 215.35 109.32 214.988C109.162 214.626 109.08 214.235 109.074 213.817C109.069 213.399 109.141 213.007 109.289 212.641C109.438 212.27 109.647 211.946 109.916 211.666C110.184 211.382 110.498 211.16 110.856 210.998C111.215 210.836 111.598 210.752 112.004 210.747C112.395 210.742 112.74 210.828 113.037 211.004C113.335 211.177 113.58 211.41 113.771 211.703L113.761 210.88ZM112.079 215.649C112.412 215.644 112.703 215.556 112.95 215.384C113.197 215.208 113.388 214.978 113.522 214.692C113.657 214.407 113.722 214.095 113.717 213.757C113.713 213.412 113.638 213.101 113.492 212.822C113.351 212.54 113.154 212.317 112.903 212.151C112.651 211.982 112.36 211.899 112.03 211.903C111.708 211.908 111.414 211.996 111.148 212.168C110.885 212.34 110.677 212.569 110.524 212.855C110.37 213.141 110.295 213.456 110.3 213.801C110.304 214.147 110.387 214.46 110.548 214.742C110.713 215.024 110.928 215.247 111.195 215.413C111.466 215.574 111.76 215.653 112.079 215.649Z" fill="#727272"/>
<path d="M178.166 192.885C177.771 193.207 177.335 193.403 176.858 193.475C176.383 193.54 175.922 193.49 175.475 193.325C175.029 193.153 174.651 192.877 174.341 192.497L175.269 191.741C175.446 191.958 175.661 192.113 175.913 192.204C176.166 192.295 176.425 192.322 176.69 192.283C176.953 192.242 177.194 192.133 177.411 191.957C177.625 191.782 177.779 191.57 177.873 191.321C177.964 191.069 177.991 190.81 177.952 190.544C177.914 190.278 177.807 190.037 177.63 189.82C177.453 189.602 177.243 189.445 177 189.346C176.754 189.244 176.489 189.22 176.205 189.273C175.919 189.323 175.625 189.471 175.321 189.718L173.746 191L171.884 187.419L174.905 184.96L175.661 185.888L173.394 187.733L174.133 189.142L174.68 188.712C175.113 188.374 175.566 188.168 176.04 188.094C176.514 188.015 176.972 188.058 177.413 188.223C177.852 188.385 178.234 188.665 178.558 189.064C178.793 189.353 178.959 189.67 179.058 190.015C179.153 190.358 179.183 190.704 179.147 191.055C179.114 191.403 179.015 191.737 178.848 192.055C178.685 192.371 178.458 192.647 178.166 192.885ZM183.1 188.605C182.749 188.927 182.36 189.138 181.932 189.239C181.504 189.334 181.059 189.334 180.596 189.238C180.134 189.142 179.679 188.958 179.232 188.686C178.782 188.411 178.363 188.062 177.974 187.638C177.585 187.214 177.273 186.766 177.038 186.294C176.804 185.823 176.66 185.354 176.607 184.887C176.551 184.418 176.59 183.975 176.725 183.561C176.86 183.14 177.103 182.769 177.453 182.448C177.798 182.131 178.186 181.924 178.616 181.826C179.044 181.725 179.487 181.725 179.944 181.827C180.401 181.923 180.855 182.108 181.305 182.382C181.754 182.657 182.173 183.006 182.562 183.431C182.951 183.855 183.263 184.302 183.498 184.774C183.73 185.243 183.875 185.711 183.934 186.178C183.995 186.642 183.958 187.084 183.823 187.504C183.686 187.922 183.445 188.289 183.1 188.605ZM182.291 187.723C182.616 187.425 182.793 187.076 182.821 186.675C182.849 186.269 182.764 185.85 182.566 185.418C182.367 184.986 182.09 184.576 181.735 184.189C181.362 183.782 180.967 183.465 180.551 183.238C180.135 183.005 179.728 182.891 179.332 182.896C178.935 182.895 178.579 183.039 178.262 183.33C178.011 183.561 177.846 183.821 177.768 184.111C177.693 184.398 177.69 184.7 177.757 185.018C177.828 185.334 177.953 185.651 178.132 185.971C178.313 186.288 178.536 186.591 178.801 186.88C179.156 187.267 179.542 187.577 179.958 187.809C180.374 188.042 180.785 188.162 181.192 188.168C181.6 188.17 181.966 188.021 182.291 187.723ZM187.899 183.927C187.568 184.269 187.191 184.503 186.77 184.629C186.349 184.749 185.904 184.775 185.437 184.706C184.969 184.638 184.504 184.481 184.042 184.236C183.577 183.988 183.138 183.664 182.725 183.263C182.312 182.863 181.974 182.434 181.712 181.977C181.45 181.52 181.279 181.06 181.198 180.598C181.115 180.132 181.128 179.689 181.238 179.266C181.348 178.839 181.569 178.454 181.9 178.113C182.226 177.777 182.601 177.547 183.024 177.424C183.446 177.298 183.887 177.272 184.35 177.346C184.812 177.415 185.276 177.573 185.741 177.821C186.206 178.069 186.645 178.393 187.058 178.793C187.471 179.194 187.809 179.623 188.071 180.08C188.33 180.534 188.503 180.992 188.588 181.455C188.677 181.915 188.666 182.358 188.556 182.786C188.444 183.211 188.224 183.591 187.899 183.927ZM187.039 183.094C187.346 182.778 187.502 182.419 187.507 182.017C187.511 181.61 187.402 181.197 187.178 180.777C186.955 180.357 186.654 179.965 186.277 179.599C185.88 179.214 185.467 178.921 185.038 178.719C184.609 178.511 184.197 178.421 183.801 178.449C183.406 178.472 183.058 178.637 182.759 178.946C182.522 179.191 182.373 179.46 182.312 179.754C182.254 180.045 182.268 180.348 182.355 180.661C182.444 180.972 182.587 181.281 182.784 181.59C182.984 181.896 183.225 182.185 183.506 182.458C183.883 182.824 184.286 183.11 184.715 183.318C185.144 183.525 185.562 183.621 185.969 183.603C186.376 183.581 186.732 183.411 187.039 183.094Z" fill="#727272"/>
<path d="M32.6796 183.56C32.3237 183.19 32.0896 182.763 31.9773 182.28C31.8679 181.795 31.8777 181.313 32.0069 180.832C32.1415 180.352 32.3956 179.933 32.7691 179.574C32.9683 179.383 33.1708 179.234 33.3764 179.127C33.5821 179.02 33.8199 178.93 34.09 178.856L38.4948 177.77L39.4591 178.775L36.4122 179.522C36.677 179.71 36.8935 179.932 37.0619 180.191C37.2356 180.449 37.3588 180.73 37.4313 181.033C37.5065 181.333 37.5288 181.638 37.498 181.95C37.4727 182.261 37.3919 182.562 37.2558 182.852C37.1196 183.142 36.927 183.407 36.678 183.646C36.3985 183.914 36.0839 184.113 35.734 184.241C35.3868 184.372 35.0288 184.434 34.66 184.427C34.2966 184.419 33.9414 184.343 33.5944 184.198C33.2528 184.052 32.9479 183.84 32.6796 183.56ZM33.543 182.732C33.7608 182.958 34.01 183.107 34.2907 183.178C34.5714 183.249 34.8508 183.249 35.129 183.179C35.4071 183.109 35.6472 182.977 35.8492 182.783C36.0623 182.578 36.2069 182.338 36.283 182.063C36.3618 181.791 36.3688 181.515 36.304 181.237C36.2419 180.957 36.1059 180.707 35.896 180.489C35.6782 180.262 35.429 180.113 35.1483 180.042C34.8676 179.971 34.5895 179.969 34.3141 180.037C34.0414 180.107 33.8027 180.241 33.5979 180.438C33.3738 180.653 33.225 180.899 33.1515 181.177C33.0806 181.458 33.079 181.736 33.1467 182.011C33.2143 182.287 33.3464 182.527 33.543 182.732ZM37.4303 188.22C37.0817 187.896 36.8399 187.525 36.7049 187.107C36.5753 186.688 36.5397 186.245 36.5982 185.776C36.6567 185.307 36.8035 184.838 37.0385 184.371C37.2761 183.901 37.5906 183.455 37.982 183.033C38.3734 182.611 38.7947 182.264 39.246 181.992C39.6973 181.72 40.1533 181.539 40.6141 181.449C41.0774 181.355 41.5213 181.359 41.9458 181.46C42.3757 181.561 42.7649 181.773 43.1136 182.096C43.4566 182.415 43.6943 182.785 43.8267 183.206C43.9617 183.624 43.9971 184.065 43.933 184.529C43.8743 184.993 43.7261 185.46 43.4885 185.93C43.2509 186.4 42.9364 186.846 42.545 187.268C42.1536 187.69 41.7323 188.036 41.281 188.308C40.8324 188.578 40.3777 188.76 39.9172 188.856C39.4595 188.954 39.0156 188.953 38.5858 188.853C38.1585 188.749 37.7733 188.538 37.4303 188.22ZM38.2445 187.343C38.5678 187.643 38.9302 187.791 39.3318 187.787C39.7387 187.782 40.1496 187.664 40.5643 187.431C40.9791 187.199 41.3652 186.89 41.7227 186.505C42.0984 186.1 42.3827 185.681 42.5756 185.247C42.7738 184.814 42.8547 184.4 42.8183 184.005C42.7873 183.61 42.6143 183.266 42.2994 182.974C42.0492 182.741 41.7765 182.598 41.4814 182.544C41.189 182.493 40.8872 182.513 40.5758 182.606C40.2672 182.702 39.9607 182.852 39.6562 183.056C39.3544 183.263 39.0705 183.509 38.8044 183.796C38.4469 184.181 38.169 184.591 37.9707 185.024C37.7725 185.458 37.6864 185.877 37.7124 186.284C37.7438 186.69 37.9211 187.043 38.2445 187.343ZM42.4824 192.623C42.1149 192.321 41.8512 191.965 41.6912 191.556C41.5366 191.146 41.4744 190.705 41.5045 190.233C41.5347 189.762 41.6529 189.285 41.8593 188.805C42.0682 188.321 42.3552 187.857 42.7205 187.412C43.0858 186.968 43.4855 186.596 43.9195 186.297C44.3536 185.999 44.7978 185.79 45.2523 185.672C45.7092 185.551 46.1525 185.528 46.5823 185.604C47.0175 185.678 47.4188 185.866 47.7863 186.168C48.1479 186.465 48.4074 186.82 48.565 187.233C48.725 187.642 48.7869 188.08 48.7509 188.547C48.7202 189.013 48.6004 189.488 48.3916 189.972C48.1828 190.456 47.8957 190.92 47.5305 191.365C47.1652 191.809 46.7655 192.181 46.3314 192.479C45.8998 192.775 45.457 192.985 45.0031 193.108C44.5521 193.234 44.109 193.26 43.6739 193.185C43.2411 193.108 42.844 192.92 42.4824 192.623ZM43.2422 191.699C43.583 191.979 43.9537 192.104 44.3543 192.076C44.7603 192.047 45.1632 191.904 45.5632 191.647C45.9632 191.39 46.33 191.058 46.6636 190.652C47.0143 190.226 47.2728 189.79 47.4392 189.346C47.6109 188.901 47.6667 188.483 47.6066 188.091C47.5518 187.698 47.3584 187.366 47.0265 187.093C46.7628 186.876 46.4819 186.75 46.1841 186.714C45.8891 186.68 45.5891 186.719 45.2839 186.83C44.9816 186.944 44.6847 187.112 44.393 187.334C44.1043 187.559 43.8357 187.822 43.5874 188.125C43.2537 188.531 43.001 188.956 42.8293 189.401C42.6575 189.845 42.5968 190.27 42.6473 190.673C42.7031 191.077 42.9014 191.418 43.2422 191.699Z" fill="#727272"/>
<defs>
<filter id="filter0_f_12_5643" x="54.1177" y="79.064" width="112.71" height="112.71" filterUnits="userSpaceOnUse" color-interpolation-filters="sRGB">
<feFlood flood-opacity="0" result="BackgroundImageFix"/>
<feBlend mode="normal" in="SourceGraphic" in2="BackgroundImageFix" result="shape"/>
<feGaussianBlur stdDeviation="16.9734" result="effect1_foregroundBlur_12_5643"/>
</filter>
<linearGradient id="paint0_linear_12_5643" x1="110.473" y1="168.711" x2="110.473" y2="49.6274" gradientUnits="userSpaceOnUse">
<stop offset="0.153846" stop-color="#171E20"/>
<stop offset="1" stop-color="#3B44FF"/>
</linearGradient>
<linearGradient id="paint1_linear_12_5643" x1="110.474" y1="173.833" x2="110.474" y2="44.5056" gradientUnits="userSpaceOnUse">
<stop stop-color="#171E20"/>
<stop offset="1" stop-color="#3B44FF"/>
</linearGradient>
<linearGradient id="paint2_linear_12_5643" x1="110.474" y1="187.278" x2="110.474" y2="31.0608" gradientUnits="userSpaceOnUse">
<stop offset="0.134615" stop-color="#171E20"/>
<stop offset="1" stop-color="#3B44FF"/>
</linearGradient>
<linearGradient id="paint3_linear_12_5643" x1="37.4863" y1="109.169" x2="183.459" y2="109.169" gradientUnits="userSpaceOnUse">
<stop offset="0.528846" stop-color="#000578"/>
<stop offset="1" stop-color="#3B44FF"/>
</linearGradient>
<linearGradient id="paint4_linear_12_5643" x1="110.473" y1="1.61011" x2="110.473" y2="216.728" gradientUnits="userSpaceOnUse">
<stop stop-color="#3B44FF"/>
<stop offset="0.793269" stop-color="#050973"/>
</linearGradient>
<linearGradient id="paint5_linear_12_5643" x1="110.491" y1="23.5439" x2="110.491" y2="200.082" gradientUnits="userSpaceOnUse">
<stop stop-color="#3B44FF"/>
<stop offset="0.730769" stop-color="#171B1E"/>
</linearGradient>
</defs>
</svg>
