<svg width="143" height="26" viewBox="0 0 143 26" fill="none" xmlns="http://www.w3.org/2000/svg">
<g clip-path="url(#clip0_19_11712)">
<path d="M13 26C20.1799 26 26 20.1799 26 13V3.9C26 2.86566 25.5891 1.87368 24.8577 1.14228C24.1264 0.410892 23.1344 0 22.1 0L13.65 0V5.7031C13.65 7.0044 13.7293 8.3525 14.4118 9.4601C14.9004 10.2539 15.554 10.9333 16.3283 11.4522C17.1026 11.9711 17.9795 12.3175 18.8994 12.4676L19.1484 12.5079C19.251 12.543 19.3401 12.6093 19.4032 12.6976C19.4663 12.7858 19.5002 12.8915 19.5002 13C19.5002 13.1085 19.4663 13.2142 19.4032 13.3024C19.3401 13.3907 19.251 13.457 19.1484 13.492L18.8994 13.5323C17.5553 13.7519 16.3142 14.3881 15.3512 15.3511C14.3881 16.3141 13.7519 17.5553 13.5324 18.8994L13.4921 19.1483C13.457 19.251 13.3907 19.3401 13.3025 19.4032C13.2142 19.4662 13.1085 19.5002 13 19.5002C12.8916 19.5002 12.7858 19.4662 12.6976 19.4032C12.6094 19.3401 12.5431 19.251 12.508 19.1483L12.4677 18.8994C12.3174 17.9795 11.9711 17.1026 11.4522 16.3284C10.9333 15.5541 10.2539 14.9004 9.46013 14.4118C8.35253 13.7293 7.00443 13.65 5.70313 13.65H0.015625C0.355575 20.5276 6.03853 26 13 26Z" fill="#797FFF"/>
<path d="M0 12.35H5.7031C7.0044 12.35 8.3525 12.2707 9.4601 11.5882C10.3259 11.0547 11.0547 10.3259 11.5882 9.4601C12.2707 8.3525 12.35 7.0044 12.35 5.7031V0H3.9C2.86566 0 1.87368 0.410892 1.14228 1.14228C0.410892 1.87368 0 2.86566 0 3.9L0 12.35ZM30.1958 1.3C30.1958 1.64478 30.0588 1.97544 29.815 2.21924C29.5712 2.46304 29.2405 2.6 28.8958 2.6C28.551 2.6 28.2203 2.46304 27.9765 2.21924C27.7327 1.97544 27.5958 1.64478 27.5958 1.3C27.5958 0.955219 27.7327 0.624558 27.9765 0.380761C28.2203 0.136964 28.551 0 28.8958 0C29.2405 0 29.5712 0.136964 29.815 0.380761C30.0588 0.624558 30.1958 0.955219 30.1958 1.3ZM137.612 7.8676C141.246 7.8676 143 10.4058 143 13.3458V18.8675H139.197V14.001C139.197 12.6685 138.711 11.5687 137.316 11.5687C135.922 11.5687 135.457 12.6685 135.457 14.001V18.8669H131.654V14.001C131.654 12.6685 131.189 11.5687 129.795 11.5687C128.4 11.5687 127.914 12.6685 127.914 14.001V18.8669H124.112V13.3451C124.112 10.4052 125.865 7.86695 129.499 7.86695C131.485 7.86695 132.922 8.64955 133.577 9.9398C134.274 8.64955 135.795 7.8663 137.612 7.8663V7.8676ZM117.278 15.483C118.503 15.483 119.031 14.3617 119.031 13.0286V8.2901H122.834V13.494C122.834 16.6036 121.017 19.1847 117.278 19.1847C113.537 19.1847 111.721 16.6042 111.721 13.494V8.2901H115.524V13.0286C115.524 14.3611 116.052 15.483 117.278 15.483ZM106.129 19.2055C103.741 19.2055 102.199 18.3807 101.29 16.7732L104.037 15.2288C104.417 15.9055 104.987 16.2441 105.938 16.2441C106.72 16.2441 107.079 15.9692 107.079 15.6306C107.079 14.3403 101.501 15.652 101.501 11.5485C101.501 9.55955 103.191 7.9521 106.065 7.9521C108.579 7.9521 109.953 9.17865 110.566 10.3636L107.819 11.9288C107.587 11.2944 106.868 10.9135 106.15 10.9135C105.6 10.9135 105.305 11.1462 105.305 11.4634C105.305 12.7751 110.882 11.5693 110.882 15.546C110.882 17.7671 108.706 19.2055 106.129 19.2055ZM92.8414 23.7328H89.0383V13.5577C89.0383 10.3207 91.468 7.9729 94.8486 7.9729C98.1448 7.9729 100.659 10.4903 100.659 13.5577C100.659 16.9422 98.4191 19.1847 95.0599 19.1847C94.2779 19.1847 93.4966 18.952 92.8414 18.5919V23.7328ZM94.8486 15.6097C96.0531 15.6097 96.8558 14.6789 96.8558 13.5785C96.8558 12.4579 96.0531 11.5479 94.8486 11.5479C93.6442 11.5479 92.8414 12.4579 92.8414 13.5791C92.8414 14.6789 93.6442 15.6097 94.8486 15.6097ZM85.2286 7.1695C83.9819 7.1695 82.9471 6.13275 82.9471 4.88475C82.9471 3.63675 83.9819 2.6 85.2286 2.6C86.4753 2.6 87.5108 3.63675 87.5108 4.88475C87.5108 6.13275 86.4753 7.1695 85.2286 7.1695ZM83.3274 8.2901H87.1305V18.8675H83.3274V8.2901ZM76.0305 19.1847C72.7343 19.1847 70.2201 16.6465 70.2201 13.5577C70.2201 10.4903 72.7343 7.9521 76.0305 7.9521C79.3266 7.9521 81.8408 10.4903 81.8408 13.5577C81.8408 16.6465 79.3266 19.1847 76.0305 19.1847ZM76.0305 15.6097C77.2349 15.6097 78.0377 14.6789 78.0377 13.5785C78.0377 12.4579 77.2349 11.5271 76.0305 11.5271C74.826 11.5271 74.0233 12.4579 74.0233 13.5785C74.0233 14.6789 74.826 15.6097 76.0305 15.6097ZM63.0389 24.05C60.4194 24.05 58.5175 22.8865 57.5458 20.813L60.6937 19.121C61.0317 19.8406 61.6655 20.5809 62.9752 20.5809C64.3493 20.5809 65.2574 19.7132 65.3633 18.1902C64.8563 18.6348 64.0529 18.9728 62.8491 18.9728C59.9118 18.9728 57.5451 16.7095 57.5451 13.5362C57.5451 10.4696 60.06 7.9729 63.3561 7.9729C66.7368 7.9729 69.1665 10.3213 69.1665 13.5577V17.7463C69.1665 21.554 66.5249 24.05 63.0389 24.05ZM63.2924 15.3985C64.4332 15.3985 65.2996 14.6152 65.2996 13.4517C65.2996 12.3097 64.4338 11.5479 63.2924 11.5479C62.1725 11.5479 61.2853 12.3097 61.2853 13.4524C61.2853 14.6159 62.1725 15.3978 63.2924 15.3978V15.3985ZM51.0945 19.1847C47.7984 19.1847 45.2835 16.6465 45.2835 13.5577C45.2835 10.4903 47.7984 7.9521 51.0945 7.9521C54.39 7.9521 56.9049 10.4903 56.9049 13.5577C56.9049 16.6465 54.3907 19.1847 51.0945 19.1847ZM51.0945 15.6097C52.299 15.6097 53.1017 14.6789 53.1017 13.5785C53.1017 12.4579 52.299 11.5271 51.0945 11.5271C49.8901 11.5271 49.0873 12.4579 49.0873 13.5785C49.0873 14.6789 49.8901 15.6097 51.0945 15.6097ZM38.3584 4.589V15.2711H44.655V18.8675H37.83C35.4217 18.8675 34.45 17.5981 34.45 15.5883V4.589H38.3584Z" fill="#797FFF"/>
</g>
<defs>
<clipPath id="clip0_19_11712">
<rect width="143" height="26" fill="white"/>
</clipPath>
</defs>
</svg>
