<svg width="32" height="32" viewBox="0 0 32 32" fill="none" xmlns="http://www.w3.org/2000/svg">
<path d="M24.991 7.32948L17.1441 4.19073C16.8292 4.06473 16.493 4 16.1538 4H15.8475C15.5083 4 15.1721 4.06473 14.8572 4.19073L7.01028 7.32948C5.99785 7.73445 5.33398 8.71501 5.33398 9.80542V13.3333C5.33398 22.9639 12.1354 27.0296 15.0199 27.9123C15.2284 27.9761 15.4442 28 15.6623 28H16.339C16.5571 28 16.7731 27.9767 16.9806 27.9099C19.8647 26.9829 26.6673 22.3226 26.6673 13.3333V9.80542C26.6673 8.71501 26.0034 7.73445 24.991 7.32948Z" stroke="white" stroke-width="1.5" stroke-linecap="round" stroke-linejoin="round"/>
<path d="M18.6667 14V12.6667C18.6667 11.1939 17.4728 10 16 10C14.5272 10 13.3333 11.1939 13.3333 12.6667V14M18.6667 14H13.3333M18.6667 14C19.403 14 20 14.597 20 15.3333V18C20 18.7364 19.403 19.3333 18.6667 19.3333H13.3333C12.597 19.3333 12 18.7364 12 18V15.3333C12 14.597 12.597 14 13.3333 14" stroke="white" stroke-width="1.5" stroke-linecap="round" stroke-linejoin="round"/>
</svg>
