<svg width="30" height="30" viewBox="0 0 30 30" fill="none" xmlns="http://www.w3.org/2000/svg">
<path d="M6.37643 25.7912L5.45881 24.8736C4.84706 24.2618 4.84706 23.27 5.45881 22.6582L21.4082 6.70881C22.02 6.09706 23.0118 6.09706 23.6236 6.70881L24.5412 7.62643C25.1529 8.23818 25.1529 9.23001 24.5412 9.84176L8.59176 25.7912C7.98002 26.4029 6.98818 26.4029 6.37643 25.7912Z" stroke="white" stroke-width="1.5" stroke-linecap="round" stroke-linejoin="round"/>
<path d="M23.125 17.5V21.25M21.25 19.375H25" stroke="white" stroke-width="1.5" stroke-linecap="round" stroke-linejoin="round"/>
<path d="M18.75 10L21.25 12.5" stroke="white" stroke-width="1.5" stroke-linecap="round" stroke-linejoin="round"/>
<path d="M11.875 10C12.0583 9.2422 12.447 8.54959 12.9983 7.99829C13.5496 7.44698 14.2422 7.05832 15 6.875C14.2422 6.69168 13.5496 6.30302 12.9983 5.75171C12.447 5.20041 12.0583 4.5078 11.875 3.75C11.6917 4.5078 11.303 5.20041 10.7517 5.75171C10.2004 6.30302 9.5078 6.69168 8.75 6.875C9.5078 7.05832 10.2004 7.44698 10.7517 7.99829C11.303 8.54959 11.6917 9.2422 11.875 10Z" stroke="white" stroke-width="1.5" stroke-linecap="round" stroke-linejoin="round"/>
</svg>
