<svg width="735" height="300" viewBox="0 0 735 300" fill="none" xmlns="http://www.w3.org/2000/svg">
<path d="M3.05469 238.068V202.557L128.765 3.97738H156.748V56.2501H138.992L49.0774 198.58V200.852H221.379V238.068H3.05469ZM140.981 294.886V227.273L141.265 211.08V3.97738H182.884V294.886H140.981ZM366.16 299.716C343.717 299.621 324.54 293.703 308.631 281.96C292.722 270.218 280.554 253.125 272.126 230.682C263.698 208.239 259.484 181.203 259.484 149.574C259.484 118.04 263.698 91.0986 272.126 68.7501C280.648 46.4016 292.864 29.3562 308.773 17.6137C324.777 5.87132 343.906 0.000100136 366.16 0.000100136C388.414 0.000100136 407.495 5.91866 423.404 17.7558C439.313 29.4982 451.482 46.5437 459.91 68.8921C468.433 91.1459 472.694 118.04 472.694 149.574C472.694 181.297 468.48 208.381 460.052 230.824C451.624 253.172 439.455 270.265 423.546 282.102C407.637 293.845 388.508 299.716 366.16 299.716ZM366.16 261.79C385.857 261.79 401.245 252.178 412.325 232.955C423.499 213.731 429.086 185.938 429.086 149.574C429.086 125.426 426.529 105.019 421.415 88.3524C416.397 71.591 409.152 58.9016 399.683 50.2842C390.308 41.5721 379.133 37.216 366.16 37.216C346.558 37.216 331.169 46.8751 319.995 66.1933C308.821 85.5115 303.186 113.305 303.092 149.574C303.092 173.816 305.601 194.318 310.62 211.08C315.734 227.746 322.978 240.388 332.353 249.006C341.728 257.529 352.997 261.79 366.16 261.79ZM510.977 238.068V202.557L636.687 3.97738H664.67V56.2501H646.914L556.999 198.58V200.852H729.3V238.068H510.977ZM648.903 294.886V227.273L649.187 211.08V3.97738H690.806V294.886H648.903Z" fill="url(#paint0_linear_175721_8719)"/>
<defs>
<linearGradient id="paint0_linear_175721_8719" x1="315" y1="-86.6135" x2="154.15" y2="357.649" gradientUnits="userSpaceOnUse">
<stop stop-color="#3B44FF"/>
<stop offset="1" stop-color="#9A9FFF"/>
</linearGradient>
</defs>
</svg>
