<svg width="173" height="207" viewBox="0 0 173 207" fill="none" xmlns="http://www.w3.org/2000/svg">
<foreignObject x="-110" y="-119" width="393" height="427"><div xmlns="http://www.w3.org/1999/xhtml" style="backdrop-filter:blur(62px);clip-path:url(#bgblur_0_12_5706_clip_path);height:100%;width:100%"></div></foreignObject><g style="mix-blend-mode:hard-light" opacity="0.5" filter="url(#filter0_di_12_5706)" data-figma-bg-blur-radius="124">
<path d="M80.1745 181.769C82.1808 182.937 83.184 183.521 84.5998 183.824C85.6985 184.059 87.3015 184.059 88.4002 183.824C89.816 183.521 90.8192 182.937 92.8255 181.769C110.48 171.491 159 139.207 159 94.8182V51.5695C159 44.3392 159 40.7241 157.815 37.6166C156.768 34.8714 155.067 32.4219 152.859 30.4798C150.359 28.2815 146.967 27.0121 140.183 24.4734L91.5913 6.29024C89.7072 5.58522 88.7652 5.23271 87.7961 5.09296C86.9365 4.96901 86.0635 4.96901 85.2039 5.09296C84.2348 5.23271 83.2928 5.58522 81.4087 6.29024L32.8174 24.4734C26.0332 27.0121 22.6411 28.2815 20.1413 30.4798C17.933 32.4219 16.2319 34.8714 15.185 37.6166C14 40.7241 14 44.3392 14 51.5695V94.8182C14 139.207 62.5203 171.491 80.1745 181.769Z" fill="url(#paint0_linear_12_5706)"/>
<path d="M85.3467 6.08301C86.1116 5.97271 86.8884 5.97271 87.6533 6.08301C88.491 6.2038 89.3171 6.50653 91.2412 7.22656L139.832 25.4102C146.693 27.9775 149.87 29.1828 152.198 31.2305C154.285 33.0653 155.892 35.3795 156.881 37.9727C157.984 40.8666 158 44.2572 158 51.5693V94.8184C158 116.639 146.07 135.57 131.812 150.392C117.567 165.201 101.111 175.788 92.3223 180.904C90.2847 182.09 89.4223 182.582 88.1914 182.846C87.2306 183.051 85.7694 183.051 84.8086 182.846C83.5777 182.582 82.7153 182.09 80.6777 180.904C71.8887 175.788 55.4334 165.201 41.1875 150.392C26.9305 135.57 15 116.639 15 94.8184V51.5693C15 44.2572 15.0156 40.8666 16.1191 37.9727C17.108 35.3795 18.7154 33.0653 20.8018 31.2305C23.1303 29.1828 26.3073 27.9775 33.168 25.4102L81.7588 7.22656C83.683 6.50653 84.509 6.2038 85.3467 6.08301Z" stroke="url(#paint1_linear_12_5706)" stroke-width="2" stroke-linecap="round" stroke-linejoin="round"/>
</g>
<foreignObject x="-87" y="-91" width="347" height="371"><div xmlns="http://www.w3.org/1999/xhtml" style="backdrop-filter:blur(62px);clip-path:url(#bgblur_1_12_5706_clip_path);height:100%;width:100%"></div></foreignObject><g style="mix-blend-mode:hard-light" opacity="0.5" filter="url(#filter1_di_12_5706)" data-figma-bg-blur-radius="124">
<path d="M82.1812 154.467C83.551 155.269 84.236 155.671 85.2026 155.879C85.9528 156.04 87.0472 156.04 87.7974 155.879C88.764 155.671 89.449 155.269 90.8188 154.467C102.872 147.405 136 125.22 136 94.7187V65.0003C136 60.032 136 57.5479 135.191 55.4125C134.476 53.5261 133.315 51.843 131.807 50.5085C130.1 48.9979 127.784 48.1256 123.152 46.3812L89.9761 33.8866C88.6898 33.4021 88.0466 33.1599 87.3849 33.0639C86.798 32.9787 86.202 32.9787 85.6151 33.0639C84.9534 33.1599 84.3102 33.4021 83.0239 33.8866L49.8478 46.3812C45.2158 48.1256 42.8998 48.9979 41.193 50.5085C39.6853 51.843 38.5238 53.5261 37.8091 55.4125C37 57.5479 37 60.032 37 65.0003V94.7187C37 125.22 70.1276 147.405 82.1812 154.467Z" fill="url(#paint2_linear_12_5706)"/>
<path d="M85.7588 34.0537C86.2504 33.9824 86.7496 33.9824 87.2412 34.0537C87.7707 34.1306 88.2973 34.3226 89.624 34.8223L122.8 47.3174C127.508 49.0907 129.609 49.8978 131.145 51.2568C132.531 52.4836 133.598 54.0316 134.256 55.7666C134.984 57.6894 135 59.9504 135 65V94.7188C135 109.599 126.916 122.534 117.207 132.691C107.509 142.838 96.3021 150.095 90.3135 153.604C88.9119 154.425 88.368 154.733 87.5869 154.901C86.9755 155.033 86.0245 155.033 85.4131 154.901C84.632 154.733 84.0881 154.425 82.6865 153.604C76.6979 150.095 65.4907 142.838 55.793 132.691C46.0844 122.534 38 109.599 38 94.7188V65C38 59.9504 38.0156 57.6894 38.7441 55.7666C39.4015 54.0316 40.4694 52.4836 41.8555 51.2568C43.391 49.8978 45.4917 49.0907 50.2002 47.3174L83.376 34.8223C84.7027 34.3226 85.2293 34.1306 85.7588 34.0537Z" stroke="url(#paint3_linear_12_5706)" stroke-width="2" stroke-linecap="round" stroke-linejoin="round"/>
</g>
<path fill-rule="evenodd" clip-rule="evenodd" d="M85.6448 72.5865C86.7928 71.883 88.2348 71.9005 89.3653 72.6145C91.8748 74.207 94.2758 75.6105 96.5928 76.4995C98.9028 77.385 100.996 77.707 102.931 77.28C104.702 76.8915 107.156 77.77 107.516 80.199C108.027 83.671 108.636 89.5335 108.636 94.5315C108.636 102.33 104.139 108.028 99.4523 111.689C97.3321 113.339 95.0177 114.724 92.5608 115.812C91.6372 116.22 90.6892 116.57 89.7223 116.862C89.0023 117.09 88.2547 117.221 87.4998 117.25C86.8593 117.25 86.0718 117.089 85.2773 116.862C84.3092 116.571 83.36 116.22 82.4353 115.812C79.9796 114.724 77.6664 113.339 75.5473 111.689C70.8573 108.028 66.3633 102.33 66.3633 94.535C66.3633 89.537 66.9723 83.6745 67.4833 80.2025C67.8438 77.77 70.2973 76.895 72.0683 77.287C73.9793 77.707 76.0198 77.392 78.3088 76.4995C80.6188 75.6035 83.0268 74.193 85.6483 72.59L85.6448 72.5865ZM75.9813 92.484C79.0367 89.4288 83.1806 87.7124 87.5015 87.7124C91.8224 87.7124 95.9664 89.4288 99.0218 92.484C99.2249 92.6872 99.4661 92.8484 99.7315 92.9583C99.997 93.0682 100.281 93.1248 100.569 93.1248C100.856 93.1248 101.141 93.0682 101.406 92.9583C101.671 92.8484 101.913 92.6872 102.116 92.484C102.319 92.2809 102.48 92.0397 102.59 91.7743C102.7 91.5088 102.757 91.2244 102.757 90.937C102.757 90.6497 102.7 90.3653 102.59 90.0998C102.48 89.8344 102.319 89.5932 102.116 89.39C98.24 85.5151 92.9838 83.3383 87.5033 83.3383C82.0227 83.3383 76.7666 85.5151 72.8908 89.39C72.5002 89.8038 72.2863 90.3535 72.2943 90.9225C72.3024 91.4914 72.5318 92.0349 72.9339 92.4374C73.3361 92.84 73.8792 93.0701 74.4482 93.0788C75.0171 93.0875 75.567 92.8741 75.9813 92.484ZM92.6938 99.225C91.3155 97.8476 89.4466 97.0738 87.498 97.0738C85.5494 97.0738 83.6806 97.8476 82.3023 99.225C81.8885 99.6156 81.3388 99.8296 80.7698 99.8215C80.2009 99.8134 79.6575 99.584 79.2549 99.1819C78.8523 98.7798 78.6223 98.2366 78.6136 97.6677C78.6049 97.0987 78.8182 96.5488 79.2083 96.1345C81.4071 93.9363 84.3889 92.7015 87.498 92.7015C90.6072 92.7015 93.589 93.9363 95.7878 96.1345C96.0006 96.3354 96.171 96.577 96.2888 96.845C96.4066 97.1129 96.4694 97.4017 96.4736 97.6944C96.4777 97.9871 96.4231 98.2776 96.3129 98.5487C96.2028 98.8199 96.0393 99.0662 95.8322 99.273C95.6251 99.4799 95.3787 99.6431 95.1074 99.7529C94.8361 99.8628 94.5455 99.9171 94.2529 99.9126C93.9602 99.9081 93.6714 99.845 93.4036 99.7269C93.1358 99.6088 92.8944 99.4381 92.6938 99.225ZM89.6838 104.423C89.6838 103.842 89.4533 103.286 89.0431 102.876C88.6328 102.466 88.0764 102.235 87.4963 102.235C86.9161 102.235 86.3597 102.466 85.9495 102.876C85.5392 103.286 85.3088 103.842 85.3088 104.423V105.735C85.3088 106.315 85.5392 106.872 85.9495 107.282C86.3597 107.692 86.9161 107.923 87.4963 107.923C88.0764 107.923 88.6328 107.692 89.0431 107.282C89.4533 106.872 89.6838 106.315 89.6838 105.735V104.423Z" fill="#FEFEFE"/>
<defs>
<filter id="filter0_di_12_5706" x="-110" y="-119" width="393" height="427" filterUnits="userSpaceOnUse" color-interpolation-filters="sRGB">
<feFlood flood-opacity="0" result="BackgroundImageFix"/>
<feColorMatrix in="SourceAlpha" type="matrix" values="0 0 0 0 0 0 0 0 0 0 0 0 0 0 0 0 0 0 127 0" result="hardAlpha"/>
<feOffset dy="9"/>
<feGaussianBlur stdDeviation="7"/>
<feComposite in2="hardAlpha" operator="out"/>
<feColorMatrix type="matrix" values="0 0 0 0 0.231373 0 0 0 0 0.266667 0 0 0 0 1 0 0 0 1 0"/>
<feBlend mode="normal" in2="BackgroundImageFix" result="effect1_dropShadow_12_5706"/>
<feBlend mode="normal" in="SourceGraphic" in2="effect1_dropShadow_12_5706" result="shape"/>
<feColorMatrix in="SourceAlpha" type="matrix" values="0 0 0 0 0 0 0 0 0 0 0 0 0 0 0 0 0 0 127 0" result="hardAlpha"/>
<feOffset dy="14"/>
<feGaussianBlur stdDeviation="12"/>
<feComposite in2="hardAlpha" operator="arithmetic" k2="-1" k3="1"/>
<feColorMatrix type="matrix" values="0 0 0 0 1 0 0 0 0 1 0 0 0 0 1 0 0 0 0.35 0"/>
<feBlend mode="normal" in2="shape" result="effect2_innerShadow_12_5706"/>
</filter>
<clipPath id="bgblur_0_12_5706_clip_path" transform="translate(110 119)"><path d="M80.1745 181.769C82.1808 182.937 83.184 183.521 84.5998 183.824C85.6985 184.059 87.3015 184.059 88.4002 183.824C89.816 183.521 90.8192 182.937 92.8255 181.769C110.48 171.491 159 139.207 159 94.8182V51.5695C159 44.3392 159 40.7241 157.815 37.6166C156.768 34.8714 155.067 32.4219 152.859 30.4798C150.359 28.2815 146.967 27.0121 140.183 24.4734L91.5913 6.29024C89.7072 5.58522 88.7652 5.23271 87.7961 5.09296C86.9365 4.96901 86.0635 4.96901 85.2039 5.09296C84.2348 5.23271 83.2928 5.58522 81.4087 6.29024L32.8174 24.4734C26.0332 27.0121 22.6411 28.2815 20.1413 30.4798C17.933 32.4219 16.2319 34.8714 15.185 37.6166C14 40.7241 14 44.3392 14 51.5695V94.8182C14 139.207 62.5203 171.491 80.1745 181.769Z"/>
</clipPath><filter id="filter1_di_12_5706" x="-87" y="-91" width="347" height="371" filterUnits="userSpaceOnUse" color-interpolation-filters="sRGB">
<feFlood flood-opacity="0" result="BackgroundImageFix"/>
<feColorMatrix in="SourceAlpha" type="matrix" values="0 0 0 0 0 0 0 0 0 0 0 0 0 0 0 0 0 0 127 0" result="hardAlpha"/>
<feOffset dy="9"/>
<feGaussianBlur stdDeviation="7"/>
<feComposite in2="hardAlpha" operator="out"/>
<feColorMatrix type="matrix" values="0 0 0 0 0.454902 0 0 0 0 0.858824 0 0 0 0 0.764706 0 0 0 1 0"/>
<feBlend mode="normal" in2="BackgroundImageFix" result="effect1_dropShadow_12_5706"/>
<feBlend mode="normal" in="SourceGraphic" in2="effect1_dropShadow_12_5706" result="shape"/>
<feColorMatrix in="SourceAlpha" type="matrix" values="0 0 0 0 0 0 0 0 0 0 0 0 0 0 0 0 0 0 127 0" result="hardAlpha"/>
<feOffset dy="14"/>
<feGaussianBlur stdDeviation="12"/>
<feComposite in2="hardAlpha" operator="arithmetic" k2="-1" k3="1"/>
<feColorMatrix type="matrix" values="0 0 0 0 1 0 0 0 0 1 0 0 0 0 1 0 0 0 0.35 0"/>
<feBlend mode="normal" in2="shape" result="effect2_innerShadow_12_5706"/>
</filter>
<clipPath id="bgblur_1_12_5706_clip_path" transform="translate(87 91)"><path d="M82.1812 154.467C83.551 155.269 84.236 155.671 85.2026 155.879C85.9528 156.04 87.0472 156.04 87.7974 155.879C88.764 155.671 89.449 155.269 90.8188 154.467C102.872 147.405 136 125.22 136 94.7187V65.0003C136 60.032 136 57.5479 135.191 55.4125C134.476 53.5261 133.315 51.843 131.807 50.5085C130.1 48.9979 127.784 48.1256 123.152 46.3812L89.9761 33.8866C88.6898 33.4021 88.0466 33.1599 87.3849 33.0639C86.798 32.9787 86.202 32.9787 85.6151 33.0639C84.9534 33.1599 84.3102 33.4021 83.0239 33.8866L49.8478 46.3812C45.2158 48.1256 42.8998 48.9979 41.193 50.5085C39.6853 51.843 38.5238 53.5261 37.8091 55.4125C37 57.5479 37 60.032 37 65.0003V94.7187C37 125.22 70.1276 147.405 82.1812 154.467Z"/>
</clipPath><linearGradient id="paint0_linear_12_5706" x1="86.5" y1="5" x2="86.5" y2="184" gradientUnits="userSpaceOnUse">
<stop stop-color="#3B44FF"/>
<stop offset="1" stop-color="#8777FF"/>
</linearGradient>
<linearGradient id="paint1_linear_12_5706" x1="86.5" y1="78.8889" x2="86.5" y2="184" gradientUnits="userSpaceOnUse">
<stop stop-color="white" stop-opacity="0"/>
<stop offset="1" stop-color="white"/>
</linearGradient>
<linearGradient id="paint2_linear_12_5706" x1="86.5" y1="33" x2="86.5" y2="156" gradientUnits="userSpaceOnUse">
<stop stop-color="#3B44FF"/>
<stop offset="1" stop-color="#8777FF"/>
</linearGradient>
<linearGradient id="paint3_linear_12_5706" x1="86.5" y1="83.7728" x2="86.5" y2="156" gradientUnits="userSpaceOnUse">
<stop stop-color="white" stop-opacity="0"/>
<stop offset="1" stop-color="white"/>
</linearGradient>
</defs>
</svg>
