<svg width="156" height="28" viewBox="0 0 156 28" fill="none" xmlns="http://www.w3.org/2000/svg">
<g clip-path="url(#clip0_19_11813)">
<path fill-rule="evenodd" clip-rule="evenodd" d="M0 9.76744V20.186H3.2636C3.60645 20.186 3.94596 20.2534 4.26276 20.3843C4.57947 20.5152 4.86735 20.707 5.10973 20.9489C5.35219 21.1908 5.54453 21.478 5.67576 21.794C5.80691 22.11 5.87448 22.4486 5.87448 22.7907V26.0465H13.7071L23.4979 16.2791V5.86046H20.2343C19.8914 5.86046 19.552 5.7931 19.2351 5.66221C18.9184 5.53131 18.6306 5.33944 18.3882 5.09758C18.1457 4.85572 17.9534 4.56857 17.8221 4.25257C17.691 3.93657 17.6234 3.59787 17.6234 3.25581V0H9.7908L0 9.76744ZM11.0962 19.5349H6.5272V12.3721L12.4017 6.51163H16.9707V13.6744L11.0962 19.5349Z" fill="#797FFF"/>
<path d="M150.496 7.97412C152.145 7.97412 153.47 8.48203 154.472 9.49784C155.491 10.4976 156 11.9004 156 13.7062V21.5668H152.606V14.1658C152.606 13.1177 152.339 12.3196 151.805 11.7714C151.272 11.207 150.545 10.9249 149.623 10.9249C148.702 10.9249 147.967 11.207 147.417 11.7714C146.884 12.3196 146.618 13.1177 146.618 14.1658V21.5668H143.223V14.1658C143.223 13.1177 142.956 12.3196 142.423 11.7714C141.89 11.207 141.162 10.9249 140.241 10.9249C139.304 10.9249 138.56 11.207 138.011 11.7714C137.478 12.3196 137.211 13.1177 137.211 14.1658V21.5668H133.816V8.16758H137.211V9.78807C137.647 9.22377 138.205 8.78033 138.883 8.45787C139.579 8.13535 140.338 7.97412 141.162 7.97412C142.213 7.97412 143.15 8.19988 143.975 8.65133C144.799 9.0867 145.437 9.71553 145.89 10.5379C146.326 9.76391 146.957 9.14309 147.781 8.67549C148.621 8.20789 149.527 7.97412 150.496 7.97412Z" fill="#797FFF"/>
<path d="M131.316 8.16747V21.5667H127.898V19.8736C127.462 20.4541 126.887 20.9137 126.177 21.2523C125.481 21.5747 124.722 21.736 123.897 21.736C122.847 21.736 121.918 21.5183 121.11 21.083C120.301 20.6315 119.663 19.9785 119.194 19.1239C118.741 18.2531 118.516 17.2212 118.516 16.028V8.16747H121.91V15.5443C121.91 16.6085 122.176 17.4308 122.709 18.0113C123.243 18.5757 123.97 18.8578 124.891 18.8578C125.829 18.8578 126.564 18.5757 127.098 18.0113C127.632 17.4308 127.898 16.6085 127.898 15.5443V8.16747H131.316Z" fill="#797FFF"/>
<path d="M111.414 21.7844C110.315 21.7844 109.329 21.5909 108.456 21.2039C107.583 20.8008 106.888 20.2606 106.371 19.5834C105.87 18.9062 105.595 18.1564 105.547 17.3341H108.965C109.03 17.8501 109.28 18.2774 109.717 18.616C110.169 18.9546 110.727 19.1239 111.389 19.1239C112.036 19.1239 112.538 18.9949 112.893 18.7369C113.265 18.4789 113.451 18.1484 113.451 17.7453C113.451 17.3099 113.224 16.9874 112.772 16.7778C112.335 16.5521 111.632 16.3102 110.662 16.0522C109.66 15.8104 108.836 15.5604 108.19 15.3025C107.559 15.0445 107.01 14.6494 106.541 14.1173C106.088 13.5852 105.862 12.8677 105.862 11.9647C105.862 11.223 106.072 10.5458 106.493 9.9331C106.929 9.32035 107.543 8.83667 108.335 8.48191C109.143 8.12716 110.089 7.94978 111.171 7.94978C112.772 7.94978 114.049 8.35292 115.002 9.15912C115.956 9.94924 116.481 11.0214 116.578 12.3759H113.329C113.281 11.8438 113.054 11.4246 112.65 11.1182C112.263 10.7958 111.737 10.6345 111.075 10.6345C110.461 10.6345 109.983 10.7474 109.644 10.9731C109.321 11.1988 109.159 11.5133 109.159 11.9163C109.159 12.3679 109.386 12.7145 109.838 12.9564C110.291 13.1821 110.994 13.4159 111.947 13.6577C112.917 13.8997 113.717 14.1496 114.347 14.4076C114.978 14.6656 115.519 15.0686 115.972 15.6168C116.441 16.149 116.683 16.8584 116.699 17.7453C116.699 18.5192 116.481 19.2126 116.045 19.8253C115.624 20.438 115.01 20.9217 114.202 21.2765C113.41 21.6151 112.481 21.7844 111.414 21.7844Z" fill="#797FFF"/>
<path d="M94.0855 10.1024C94.5222 9.48965 95.1201 8.98175 95.8799 8.57868C96.6553 8.15946 97.5365 7.94978 98.5221 7.94978C99.6696 7.94978 100.704 8.232 101.626 8.79636C102.563 9.36066 103.298 10.1669 103.832 11.215C104.382 12.2469 104.656 13.4481 104.656 14.8187C104.656 16.1893 104.382 17.4066 103.832 18.4708C103.298 19.5189 102.563 20.3332 101.626 20.9137C100.704 21.4941 99.6696 21.7844 98.5221 21.7844C97.5365 21.7844 96.6638 21.5828 95.904 21.1797C95.1606 20.7766 94.5542 20.2687 94.0855 19.656V27.9519H90.6914V8.16747H94.0855V10.1024ZM101.189 14.8187C101.189 14.0125 101.019 13.3191 100.68 12.7387C100.357 12.1421 99.9202 11.6906 99.3706 11.3843C98.8373 11.0779 98.2558 10.9248 97.6252 10.9248C97.011 10.9248 96.4295 11.086 95.8799 11.4084C95.346 11.7148 94.9099 12.1663 94.5705 12.7629C94.2474 13.3594 94.0855 14.0609 94.0855 14.8671C94.0855 15.6733 94.2474 16.3747 94.5705 16.9713C94.9099 17.5679 95.346 18.0274 95.8799 18.3499C96.4295 18.6563 97.011 18.8095 97.6252 18.8095C98.2558 18.8095 98.8373 18.6482 99.3706 18.3257C99.9202 18.0032 100.357 17.5437 100.68 16.9471C101.019 16.3505 101.189 15.6411 101.189 14.8187Z" fill="#797FFF"/>
<path d="M86.5125 6.5713C85.9146 6.5713 85.414 6.38586 85.01 6.015C84.6216 5.62802 84.4277 5.15236 84.4277 4.58801C84.4277 4.02367 84.6216 3.55607 85.01 3.18521C85.414 2.79823 85.9146 2.60474 86.5125 2.60474C87.1111 2.60474 87.6039 2.79823 87.9916 3.18521C88.3956 3.55607 88.598 4.02367 88.598 4.58801C88.598 5.15236 88.3956 5.62802 87.9916 6.015C87.6039 6.38586 87.1111 6.5713 86.5125 6.5713ZM88.1854 8.16756V21.5668H84.7913V8.16756H88.1854Z" fill="#797FFF"/>
<path d="M76.1445 21.7844C74.8514 21.7844 73.6883 21.5022 72.6537 20.9379C71.6192 20.3574 70.8033 19.5431 70.2047 18.495C69.6231 17.447 69.332 16.2377 69.332 14.8671C69.332 13.4965 69.631 12.2872 70.2289 11.2391C70.8431 10.1911 71.6759 9.38488 72.7262 8.82052C73.777 8.24007 74.9487 7.94978 76.2417 7.94978C77.5348 7.94978 78.7064 8.24007 79.7573 8.82052C80.8075 9.38488 81.6319 10.1911 82.2298 11.2391C82.844 12.2872 83.1514 13.4965 83.1514 14.8671C83.1514 16.2377 82.8361 17.447 82.2056 18.495C81.5914 19.5431 80.7514 20.3574 79.6842 20.9379C78.6339 21.5022 77.4538 21.7844 76.1445 21.7844ZM76.1445 18.8336C76.7587 18.8336 77.3324 18.6885 77.8663 18.3983C78.4159 18.0919 78.8519 17.6405 79.175 17.0439C79.4988 16.4473 79.66 15.7217 79.66 14.8671C79.66 13.5933 79.3206 12.6178 78.6418 11.9406C77.9793 11.2472 77.1627 10.9005 76.1934 10.9005C75.2235 10.9005 74.4076 11.2472 73.7444 11.9406C73.0982 12.6178 72.7751 13.5933 72.7751 14.8671C72.7751 16.1409 73.0897 17.1245 73.7203 17.8178C74.3671 18.495 75.1752 18.8336 76.1445 18.8336Z" fill="#797FFF"/>
<path d="M61.5333 21.7843C60.2402 21.7843 59.0766 21.5021 58.0421 20.9378C57.0077 20.3573 56.1915 19.543 55.5935 18.495C55.0116 17.4469 54.7207 16.2376 54.7207 14.867C54.7207 13.4964 55.0197 12.2872 55.6177 11.2391C56.2319 10.191 57.0643 9.3848 58.1148 8.82044C59.1655 8.24 60.3372 7.94971 61.6303 7.94971C62.9233 7.94971 64.0951 8.24 65.1457 8.82044C66.196 9.3848 67.0204 10.191 67.6183 11.2391C68.2325 12.2872 68.54 13.4964 68.54 14.867C68.54 16.2376 68.2247 17.4469 67.5942 18.495C66.98 19.543 66.1399 20.3573 65.0729 20.9378C64.0223 21.5021 62.8425 21.7843 61.5333 21.7843ZM61.5333 18.8336C62.1475 18.8336 62.7212 18.6884 63.2546 18.3982C63.8041 18.0918 64.2406 17.6404 64.5638 17.0438C64.8871 16.4472 65.0487 15.7216 65.0487 14.867C65.0487 13.5932 64.7093 12.6177 64.0304 11.9405C63.3677 11.2471 62.5515 10.9005 61.5818 10.9005C60.612 10.9005 59.7958 11.2471 59.1331 11.9405C58.4866 12.6177 58.1633 13.5932 58.1633 14.867C58.1633 16.1408 58.4785 17.1244 59.1089 17.8178C59.7554 18.495 60.5635 18.8336 61.5333 18.8336Z" fill="#797FFF"/>
<path d="M46.9219 21.7843C45.6289 21.7843 44.4652 21.5021 43.4308 20.9378C42.3964 20.3573 41.5801 19.543 40.9821 18.495C40.4003 17.4469 40.1094 16.2376 40.1094 14.867C40.1094 13.4964 40.4084 12.2872 41.0064 11.2391C41.6206 10.191 42.453 9.3848 43.5035 8.82044C44.5541 8.24 45.7259 7.94971 47.0189 7.94971C48.3119 7.94971 49.4837 8.24 50.5343 8.82044C51.5849 9.3848 52.4092 10.191 53.0072 11.2391C53.6214 12.2872 53.9285 13.4964 53.9285 14.867C53.9285 16.2376 53.6133 17.4469 52.983 18.495C52.3688 19.543 51.5283 20.3573 50.4616 20.9378C49.411 21.5021 48.2311 21.7843 46.9219 21.7843ZM46.9219 18.8336C47.5361 18.8336 48.1099 18.6884 48.6433 18.3982C49.1928 18.0918 49.6292 17.6404 49.9525 17.0438C50.2757 16.4472 50.4374 15.7216 50.4374 14.867C50.4374 13.5932 50.0979 12.6177 49.419 11.9405C48.7564 11.2471 47.9402 10.9005 46.9704 10.9005C46.0007 10.9005 45.1845 11.2471 44.5218 11.9405C43.8752 12.6177 43.552 13.5932 43.552 14.867C43.552 16.1408 43.8672 17.1244 44.4975 17.8178C45.1441 18.495 45.9522 18.8336 46.9219 18.8336Z" fill="#797FFF"/>
<path d="M34.0719 18.882H39.6481V21.5666H30.6777V4.68465H34.0719V18.882Z" fill="#797FFF"/>
<path d="M55.6152 23.3666C56.475 25.9174 58.8915 27.7547 61.7381 27.7547H62.0923C65.6592 27.7547 68.5507 24.8701 68.5507 21.3118V20.9478H65.0493V21.3118C65.0493 22.941 63.7254 24.2617 62.0923 24.2617H61.7381C60.9058 24.2617 60.1538 23.9187 59.6165 23.3666H55.6152Z" fill="#797FFF"/>
</g>
<defs>
<clipPath id="clip0_19_11813">
<rect width="156" height="28" fill="white"/>
</clipPath>
</defs>
</svg>
