<svg width="30" height="30" viewBox="0 0 30 30" fill="none" xmlns="http://www.w3.org/2000/svg">
<path d="M15 27.5L12.5 20H2.5L5 27.5H15ZM15 27.5H20" stroke="white" stroke-width="1.5" stroke-linecap="round" stroke-linejoin="round"/>
<path d="M15 16.25V15.625C15 13.268 15 12.0895 14.2678 11.3572C13.5355 10.625 12.357 10.625 10 10.625C7.64298 10.625 6.46447 10.625 5.73223 11.3572C5 12.0895 5 13.268 5 15.625V16.25" stroke="white" stroke-width="1.5" stroke-linecap="round" stroke-linejoin="round"/>
<path d="M23.75 16.25C23.75 17.6307 22.6307 18.75 21.25 18.75C19.8693 18.75 18.75 17.6307 18.75 16.25C18.75 14.8693 19.8693 13.75 21.25 13.75C22.6307 13.75 23.75 14.8693 23.75 16.25Z" stroke="white" stroke-width="1.5"/>
<path d="M12.5 5C12.5 6.38071 11.3807 7.5 10 7.5C8.61929 7.5 7.5 6.38071 7.5 5C7.5 3.61929 8.61929 2.5 10 2.5C11.3807 2.5 12.5 3.61929 12.5 5Z" stroke="white" stroke-width="1.5"/>
<path d="M17.5 21.875H25C26.3807 21.875 27.5 22.9943 27.5 24.375V25C27.5 26.3807 26.3807 27.5 25 27.5H23.75" stroke="white" stroke-width="1.5" stroke-linecap="round"/>
</svg>
