<svg width="170" height="170" viewBox="0 0 170 170" fill="none" xmlns="http://www.w3.org/2000/svg">
<path d="M79.6875 90.3125V95.625C79.6875 98.5575 82.0675 100.938 85 100.938C87.9325 100.938 90.3125 98.5575 90.3125 95.625V90.3125C90.3125 87.38 87.9325 85 85 85C82.0675 85 79.6875 87.38 79.6875 90.3125Z" fill="url(#paint0_linear_175758_12237)"/>
<path d="M118.554 69.3334L105.968 65.1366C106.096 64.685 106.25 64.2441 106.25 63.75V53.125C106.25 41.4056 96.7194 31.875 85 31.875C73.2806 31.875 63.75 41.4056 63.75 53.125V63.75C63.75 64.2441 63.9041 64.685 64.0316 65.1419L51.4463 69.3388C49.2734 70.0613 47.8125 72.0853 47.8125 74.375C47.8125 96.2147 57.4334 116.758 74.2103 130.735L81.6 136.892C82.5828 137.716 83.7887 138.125 85 138.125C86.2113 138.125 87.4172 137.716 88.4 136.892L95.7897 130.735C112.567 116.758 122.188 96.2147 122.188 74.375C122.188 72.0853 120.727 70.0612 118.554 69.3334ZM74.375 53.125C74.375 47.2653 79.1403 42.5 85 42.5C90.8597 42.5 95.625 47.2653 95.625 53.125V61.6888L86.6787 58.7084C85.5844 58.3472 84.4103 58.3472 83.3159 58.7084L74.375 61.6888V53.125ZM88.9844 122.575L85 125.896L81.0156 122.575C67.6441 111.43 59.585 95.4125 58.5544 78.1681L85 69.3494L111.451 78.1681C110.415 95.4125 102.361 111.435 88.9844 122.575Z" fill="url(#paint1_linear_175758_12237)"/>
<path d="M35.3613 42.8717C33.3373 43.6208 31.8763 45.528 31.8763 47.8124C31.8763 50.7449 34.2563 53.1249 37.1888 53.1249H47.8138C50.7463 53.1249 53.1263 50.7449 53.1263 47.8124V37.1874C53.1263 34.2549 50.7463 31.8749 47.8138 31.8749C45.5295 31.8749 43.6223 33.3358 42.8732 35.3599L19.6948 12.1814C17.6176 10.1042 14.2601 10.1042 12.1829 12.1814C10.1057 14.2586 10.1057 17.6161 12.1829 19.6933L35.3613 42.8717Z" fill="url(#paint2_linear_175758_12237)"/>
<path d="M47.8138 116.875H37.1888C34.2563 116.875 31.8763 119.255 31.8763 122.188C31.8763 124.472 33.3373 126.379 35.3613 127.128L12.1829 150.307C10.1057 152.384 10.1057 155.741 12.1829 157.818C13.2188 158.854 14.5788 159.375 15.9388 159.375C17.2988 159.375 18.6588 158.854 19.6948 157.818L42.8732 134.64C43.6223 136.664 45.5295 138.125 47.8138 138.125C50.7463 138.125 53.1263 135.745 53.1263 132.812V122.188C53.1263 119.255 50.7463 116.875 47.8138 116.875Z" fill="url(#paint3_linear_175758_12237)"/>
<path d="M122.188 53.1249H132.813C135.745 53.1249 138.125 50.7449 138.125 47.8124C138.125 45.528 136.664 43.6208 134.64 42.8717L157.818 19.6933C159.896 17.6161 159.896 14.2586 157.818 12.1814C155.741 10.1042 152.384 10.1042 150.307 12.1814L127.128 35.3599C126.379 33.3358 124.472 31.8749 122.188 31.8749C119.255 31.8749 116.875 34.2549 116.875 37.1874V47.8124C116.875 50.7449 119.255 53.1249 122.188 53.1249Z" fill="url(#paint4_linear_175758_12237)"/>
<path d="M134.64 127.128C136.664 126.379 138.125 124.472 138.125 122.188C138.125 119.255 135.745 116.875 132.813 116.875H122.188C119.255 116.875 116.875 119.255 116.875 122.188V132.812C116.875 135.745 119.255 138.125 122.188 138.125C124.472 138.125 126.379 136.664 127.128 134.64L150.307 157.818C151.342 158.854 152.703 159.375 154.063 159.375C155.423 159.375 156.783 158.854 157.818 157.818C159.896 155.741 159.896 152.384 157.818 150.307L134.64 127.128Z" fill="url(#paint5_linear_175758_12237)"/>
<defs>
<linearGradient id="paint0_linear_175758_12237" x1="80.6166" y1="96.7539" x2="89.6348" y2="96.5642" gradientUnits="userSpaceOnUse">
<stop stop-color="#0E10D5"/>
<stop offset="1" stop-color="#A1A2FF"/>
</linearGradient>
<linearGradient id="paint1_linear_175758_12237" x1="54.3159" y1="110.234" x2="117.441" y2="108.84" gradientUnits="userSpaceOnUse">
<stop stop-color="#0E10D5"/>
<stop offset="1" stop-color="#A1A2FF"/>
</linearGradient>
<linearGradient id="paint2_linear_175758_12237" x1="14.3413" y1="41.9683" x2="50.3955" y2="40.8309" gradientUnits="userSpaceOnUse">
<stop stop-color="#0E10D5"/>
<stop offset="1" stop-color="#A1A2FF"/>
</linearGradient>
<linearGradient id="paint3_linear_175758_12237" x1="14.3413" y1="148.219" x2="50.3955" y2="147.081" gradientUnits="userSpaceOnUse">
<stop stop-color="#0E10D5"/>
<stop offset="1" stop-color="#A1A2FF"/>
</linearGradient>
<linearGradient id="paint4_linear_175758_12237" x1="120.591" y1="41.9683" x2="156.645" y2="40.8309" gradientUnits="userSpaceOnUse">
<stop stop-color="#0E10D5"/>
<stop offset="1" stop-color="#A1A2FF"/>
</linearGradient>
<linearGradient id="paint5_linear_175758_12237" x1="120.591" y1="148.219" x2="156.645" y2="147.081" gradientUnits="userSpaceOnUse">
<stop stop-color="#0E10D5"/>
<stop offset="1" stop-color="#A1A2FF"/>
</linearGradient>
</defs>
</svg>
