<svg width="30" height="30" viewBox="0 0 30 30" fill="none" xmlns="http://www.w3.org/2000/svg">
<g clip-path="url(#clip0_18_5654)">
<path d="M13.107 7.31042C10.293 7.96655 8.02767 10.1982 7.33591 12.9958C6.64198 15.8024 7.43616 18.6631 9.46046 20.6482C10.1765 21.3505 10.604 22.476 10.604 23.6591V23.8479C10.604 24.627 10.9439 25.328 11.4829 25.8111V27.3635C11.4829 28.8174 12.6658 30.0003 14.1197 30.0003H15.8775C17.3314 30.0003 18.5142 28.8174 18.5142 27.3635V25.8111C19.0532 25.328 19.3931 24.627 19.3931 23.8479V23.6556C19.3931 22.4905 19.8435 21.3436 20.598 20.5876C22.0881 19.0942 22.9087 17.1099 22.9087 15.0003C22.9087 9.95657 18.2348 6.11523 13.107 7.31042ZM16.7564 27.3635C16.7564 27.8482 16.3621 28.2425 15.8775 28.2425H14.1197C13.635 28.2425 13.2408 27.8482 13.2408 27.3635V26.4846H16.7564V27.3635ZM19.3536 19.3459C18.2616 20.4403 17.6353 22.0111 17.6353 23.6556V23.8479C17.6353 24.3326 17.241 24.7268 16.7564 24.7268H13.2408C12.7561 24.7268 12.3618 24.3326 12.3618 23.8479V23.6591C12.3618 21.9892 11.7529 20.4344 10.6912 19.3932C9.11558 17.8481 8.49923 15.6143 9.04227 13.4178C9.57694 11.2552 11.3291 9.52989 13.5062 9.02236C17.5299 8.08409 21.1509 11.0878 21.1509 15.0003C21.1509 16.6411 20.5126 18.1844 19.3536 19.3459Z" fill="#3B44FF"/>
<path d="M8.16407 6.92106L5.67812 4.43517C5.33493 4.09192 4.77841 4.09192 4.43517 4.43517C4.09192 4.77841 4.09192 5.33487 4.43517 5.67812L6.92112 8.16401C7.26431 8.50726 7.82089 8.50726 8.16407 8.16401C8.50731 7.82077 8.50731 7.26431 8.16407 6.92106Z" fill="#3B44FF"/>
<path d="M4.45312 14.1211H0.878906C0.393516 14.1211 0 14.5146 0 15C0 15.4854 0.393516 15.8789 0.878906 15.8789H4.45312C4.93852 15.8789 5.33203 15.4854 5.33203 15C5.33203 14.5146 4.93852 14.1211 4.45312 14.1211Z" fill="#3B44FF"/>
<path d="M29.1211 14.1211H25.5469C25.0615 14.1211 24.668 14.5146 24.668 15C24.668 15.4854 25.0615 15.8789 25.5469 15.8789H29.1211C29.6065 15.8789 30 15.4854 30 15C30 14.5146 29.6065 14.1211 29.1211 14.1211Z" fill="#3B44FF"/>
<path d="M25.5645 4.43517C25.2213 4.09192 24.6648 4.09192 24.3215 4.43517L21.8356 6.92106C21.4923 7.26425 21.4923 7.82077 21.8356 8.16401C22.1787 8.50726 22.7353 8.50726 23.0785 8.16401L25.5645 5.67812C25.9077 5.33493 25.9077 4.77841 25.5645 4.43517Z" fill="#3B44FF"/>
<path d="M15 0C14.5146 0 14.1211 0.393516 14.1211 0.878906V4.45312C14.1211 4.93852 14.5146 5.33203 15 5.33203C15.4854 5.33203 15.8789 4.93852 15.8789 4.45312V0.878906C15.8789 0.393516 15.4854 0 15 0Z" fill="#3B44FF"/>
<path d="M15.0009 10.6055C14.6396 10.6055 14.2716 10.6488 13.9076 10.734C12.3921 11.0878 11.1234 12.3353 10.7507 13.8383C10.6338 14.3094 10.921 14.786 11.3921 14.9029C11.8633 15.0197 12.3399 14.7325 12.4567 14.2614C12.6712 13.3967 13.4321 12.6501 14.3079 12.4457C14.5412 12.391 14.7744 12.3633 15.0009 12.3633C15.4863 12.3633 15.8798 11.9698 15.8798 11.4844C15.8798 10.999 15.4863 10.6055 15.0009 10.6055Z" fill="#3B44FF"/>
</g>
<defs>
<clipPath id="clip0_18_5654">
<rect width="30" height="30" fill="white"/>
</clipPath>
</defs>
</svg>
