<svg width="32" height="32" viewBox="0 0 32 32" fill="none" xmlns="http://www.w3.org/2000/svg">
<path d="M26.667 4.33203C28.6919 4.33221 30.333 5.97409 30.333 7.99902V23.999C30.333 26.024 28.6919 27.6658 26.667 27.666H5.33301C3.30811 27.6658 1.66699 26.024 1.66699 23.999V7.99902C1.66699 5.97409 3.30811 4.33221 5.33301 4.33203H26.667ZM5.33301 6.33203C4.41268 6.33221 3.66699 7.07866 3.66699 7.99902V23.999C3.66699 24.9194 4.41268 25.6658 5.33301 25.666H26.667C27.5873 25.6658 28.333 24.9194 28.333 23.999V7.99902C28.333 7.07866 27.5873 6.33221 26.667 6.33203H5.33301ZM23.4961 9.80176C23.9731 9.52348 24.586 9.68506 24.8643 10.1621C25.1423 10.6391 24.9808 11.251 24.5039 11.5293L17.8477 15.4121C16.706 16.0781 15.294 16.0781 14.1523 15.4121L7.49609 11.5293C7.01927 11.2509 6.8585 10.6391 7.13672 10.1621C7.41497 9.68517 8.0269 9.52368 8.50391 9.80176L15.1602 13.6846C15.6791 13.9873 16.3209 13.9873 16.8398 13.6846L23.4961 9.80176Z" fill="white"/>
</svg>
