<svg width="16" height="16" viewBox="0 0 16 16" fill="none" xmlns="http://www.w3.org/2000/svg">
<path d="M8.0013 1.33398C5.06797 1.33398 2.66797 3.73398 2.66797 6.66732C2.66797 10.2673 7.33464 14.334 7.53464 14.534C7.66797 14.6006 7.86797 14.6673 8.0013 14.6673C8.13464 14.6673 8.33464 14.6006 8.46797 14.534C8.66797 14.334 13.3346 10.2673 13.3346 6.66732C13.3346 3.73398 10.9346 1.33398 8.0013 1.33398ZM8.0013 13.134C6.6013 11.8007 4.0013 8.93398 4.0013 6.66732C4.0013 4.46732 5.8013 2.66732 8.0013 2.66732C10.2013 2.66732 12.0013 4.46732 12.0013 6.66732C12.0013 8.86732 9.4013 11.8007 8.0013 13.134ZM8.0013 4.00065C6.53464 4.00065 5.33464 5.20065 5.33464 6.66732C5.33464 8.13398 6.53464 9.33398 8.0013 9.33398C9.46797 9.33398 10.668 8.13398 10.668 6.66732C10.668 5.20065 9.46797 4.00065 8.0013 4.00065ZM8.0013 8.00065C7.26797 8.00065 6.66797 7.40065 6.66797 6.66732C6.66797 5.93398 7.26797 5.33398 8.0013 5.33398C8.73464 5.33398 9.33464 5.93398 9.33464 6.66732C9.33464 7.40065 8.73464 8.00065 8.0013 8.00065Z" fill="white"/>
</svg>
