<svg width="32" height="32" viewBox="0 0 32 32" fill="none" xmlns="http://www.w3.org/2000/svg">
<rect width="32" height="32" fill="#3B44FF"/>
<path d="M16 6C18.6521 6 21.196 7.05334 23.0713 8.92871C23.4079 9.26529 23.7177 9.62359 24 10H16C14.4087 10 12.8825 10.6321 11.7573 11.7573C10.6321 12.8825 10 14.4087 10 16H16L24.4551 10.6597C25.0828 11.6537 25.5305 12.7514 25.7773 13.9014L22 16H26L25.997 16.2486C25.9334 18.8107 24.888 21.2546 23.0713 23.0713C21.196 24.9467 18.6521 26 16 26C13.3479 26 10.8041 24.9467 8.92871 23.0713C8.59213 22.7347 8.28229 22.3764 8 22H16C17.5913 22 19.1174 21.3679 20.2427 20.2427C21.2976 19.1877 21.9191 17.7804 21.9927 16.2973L22 16H16L7.54492 21.3393C6.91726 20.3453 6.4705 19.2475 6.22363 18.0976L10 16H6C6 13.3479 7.05335 10.8041 8.92871 8.92871C10.8041 7.05335 13.3479 6 16 6Z" fill="white"/>
</svg>
