<svg width="256" height="256" viewBox="0 0 256 256" fill="none" xmlns="http://www.w3.org/2000/svg">
<path d="M0 0H256V256H0V0Z" fill="url(#paint0_linear_417_5688)"/>
<g clip-path="url(#clip0_417_5688)">
<path d="M67.9091 112.591C72.1284 112.591 76.1754 114.267 79.1589 117.25C79.6943 117.786 80.1872 118.356 80.6364 118.955H67.9091C65.3775 118.955 62.9495 119.96 61.1593 121.75C59.3693 123.54 58.3636 125.968 58.3636 128.5H67.9091L81.3604 120.004C82.359 121.585 83.0713 123.332 83.464 125.161L77.4545 128.5H83.8182L83.8135 128.895C83.7123 132.972 82.0491 136.86 79.1589 139.75C76.1754 142.733 72.1284 144.409 67.9091 144.409C63.6898 144.409 59.6428 142.733 56.6593 139.75C56.1238 139.214 55.6309 138.644 55.1818 138.045H67.9091C70.4407 138.045 72.8687 137.04 74.6588 135.25C76.3371 133.571 77.3259 131.332 77.4429 128.973L77.4545 128.5H67.9091L54.4578 136.994C53.4593 135.413 52.7485 133.667 52.3558 131.837L58.3636 128.5H52C52 124.281 53.6758 120.234 56.6593 117.25C59.6428 114.267 63.6898 112.591 67.9091 112.591Z" fill="white"/>
</g>
<path d="M113.374 123.645C113.266 122.682 112.818 121.936 112.032 121.407C111.246 120.872 110.256 120.604 109.063 120.604C108.208 120.604 107.469 120.74 106.846 121.011C106.222 121.275 105.737 121.641 105.392 122.109C105.053 122.57 104.883 123.095 104.883 123.685C104.883 124.18 104.998 124.607 105.229 124.967C105.466 125.326 105.775 125.628 106.154 125.872C106.541 126.109 106.954 126.309 107.395 126.472C107.836 126.628 108.259 126.756 108.666 126.858L110.7 127.387C111.364 127.55 112.046 127.77 112.744 128.048C113.442 128.326 114.09 128.692 114.686 129.146C115.283 129.6 115.764 130.163 116.13 130.834C116.503 131.505 116.689 132.309 116.689 133.244C116.689 134.424 116.384 135.471 115.774 136.387C115.171 137.302 114.293 138.024 113.14 138.553C111.995 139.081 110.608 139.346 108.981 139.346C107.422 139.346 106.073 139.098 104.934 138.603C103.795 138.109 102.903 137.407 102.259 136.498C101.615 135.583 101.259 134.498 101.192 133.244H104.344C104.405 133.997 104.649 134.624 105.076 135.126C105.51 135.62 106.063 135.99 106.734 136.234C107.412 136.471 108.154 136.59 108.961 136.59C109.849 136.59 110.639 136.451 111.33 136.173C112.029 135.888 112.578 135.495 112.978 134.993C113.378 134.485 113.578 133.892 113.578 133.214C113.578 132.597 113.401 132.092 113.049 131.699C112.703 131.305 112.232 130.98 111.635 130.722C111.046 130.465 110.378 130.238 109.632 130.041L107.171 129.37C105.503 128.916 104.181 128.248 103.205 127.366C102.236 126.485 101.751 125.319 101.751 123.868C101.751 122.668 102.076 121.621 102.727 120.726C103.378 119.831 104.259 119.136 105.371 118.641C106.483 118.14 107.737 117.889 109.134 117.889C110.544 117.889 111.788 118.136 112.866 118.631C113.951 119.126 114.805 119.807 115.428 120.675C116.052 121.536 116.378 122.526 116.405 123.645H113.374ZM125.501 139.315C123.962 139.315 122.636 138.986 121.524 138.329C120.419 137.664 119.565 136.732 118.962 135.532C118.365 134.326 118.067 132.912 118.067 131.292C118.067 129.692 118.365 128.282 118.962 127.061C119.565 125.841 120.406 124.889 121.484 124.204C122.568 123.519 123.836 123.177 125.287 123.177C126.168 123.177 127.023 123.323 127.85 123.614C128.677 123.906 129.419 124.363 130.077 124.987C130.734 125.611 131.253 126.421 131.633 127.417C132.012 128.407 132.202 129.61 132.202 131.027V132.105H119.785V129.827H129.222C129.222 129.027 129.06 128.319 128.734 127.702C128.409 127.078 127.951 126.587 127.361 126.228C126.778 125.868 126.094 125.689 125.307 125.689C124.453 125.689 123.707 125.899 123.07 126.319C122.44 126.733 121.951 127.275 121.606 127.946C121.267 128.611 121.097 129.333 121.097 130.112V131.892C121.097 132.936 121.28 133.824 121.646 134.556C122.019 135.288 122.538 135.848 123.202 136.234C123.867 136.614 124.643 136.803 125.531 136.803C126.107 136.803 126.633 136.722 127.107 136.559C127.582 136.39 127.992 136.139 128.338 135.807C128.683 135.475 128.948 135.065 129.131 134.576L132.009 135.095C131.778 135.942 131.365 136.685 130.768 137.322C130.178 137.953 129.436 138.444 128.541 138.797C127.653 139.142 126.639 139.315 125.501 139.315ZM137.184 129.726V139H134.144V123.38H137.062V125.922H137.256C137.615 125.095 138.178 124.431 138.944 123.929C139.717 123.428 140.689 123.177 141.862 123.177C142.927 123.177 143.859 123.401 144.659 123.848C145.459 124.289 146.079 124.946 146.52 125.821C146.96 126.695 147.181 127.777 147.181 129.065V139H144.14V129.431C144.14 128.299 143.845 127.414 143.255 126.777C142.666 126.133 141.855 125.811 140.825 125.811C140.12 125.811 139.493 125.963 138.944 126.268C138.401 126.573 137.971 127.021 137.652 127.611C137.34 128.194 137.184 128.899 137.184 129.726ZM157.118 123.38V125.821H148.586V123.38H157.118ZM150.874 119.638H153.915V134.414C153.915 135.004 154.003 135.448 154.179 135.746C154.355 136.037 154.582 136.237 154.86 136.346C155.145 136.448 155.454 136.498 155.786 136.498C156.03 136.498 156.243 136.481 156.426 136.448C156.61 136.414 156.752 136.387 156.854 136.366L157.403 138.878C157.226 138.946 156.976 139.014 156.65 139.081C156.325 139.156 155.918 139.197 155.43 139.203C154.63 139.217 153.884 139.075 153.193 138.776C152.501 138.478 151.942 138.017 151.515 137.393C151.088 136.77 150.874 135.987 150.874 135.044V119.638ZM159.05 139V123.38H161.989V125.861H162.151C162.436 125.021 162.938 124.36 163.656 123.878C164.382 123.39 165.202 123.146 166.117 123.146C166.307 123.146 166.531 123.153 166.788 123.167C167.053 123.18 167.26 123.197 167.409 123.217V126.126C167.287 126.092 167.07 126.055 166.758 126.014C166.446 125.967 166.134 125.943 165.822 125.943C165.104 125.943 164.463 126.095 163.9 126.4C163.344 126.699 162.904 127.116 162.578 127.651C162.253 128.18 162.09 128.783 162.09 129.461V139H159.05ZM168.608 139V123.38H171.649V139H168.608ZM170.144 120.97C169.615 120.97 169.161 120.794 168.781 120.441C168.408 120.082 168.222 119.655 168.222 119.16C168.222 118.658 168.408 118.231 168.781 117.879C169.161 117.519 169.615 117.34 170.144 117.34C170.672 117.34 171.123 117.519 171.496 117.879C171.876 118.231 172.066 118.658 172.066 119.16C172.066 119.655 171.876 120.082 171.496 120.441C171.123 120.794 170.672 120.97 170.144 120.97ZM176.707 123.38L180.155 129.461L183.633 123.38H186.958L182.087 131.19L186.999 139H183.673L180.155 133.163L176.646 139H173.311L178.172 131.19L173.372 123.38H176.707ZM193.166 139.346C192.176 139.346 191.281 139.163 190.481 138.797C189.681 138.424 189.047 137.885 188.579 137.18C188.118 136.475 187.888 135.61 187.888 134.587C187.888 133.705 188.057 132.98 188.396 132.41C188.735 131.841 189.193 131.39 189.769 131.058C190.345 130.726 190.989 130.475 191.701 130.305C192.413 130.136 193.139 130.007 193.877 129.919C194.813 129.81 195.572 129.722 196.155 129.655C196.738 129.58 197.162 129.461 197.427 129.299C197.691 129.136 197.823 128.872 197.823 128.505V128.434C197.823 127.546 197.572 126.858 197.071 126.37C196.576 125.882 195.837 125.638 194.854 125.638C193.83 125.638 193.023 125.865 192.433 126.319C191.85 126.766 191.447 127.265 191.223 127.814L188.366 127.163C188.705 126.214 189.2 125.448 189.85 124.865C190.508 124.275 191.264 123.848 192.118 123.584C192.972 123.312 193.871 123.177 194.813 123.177C195.437 123.177 196.098 123.251 196.796 123.401C197.501 123.543 198.159 123.807 198.769 124.194C199.386 124.58 199.891 125.133 200.284 125.851C200.677 126.563 200.874 127.489 200.874 128.627V139H197.904V136.864H197.782C197.586 137.258 197.291 137.644 196.898 138.024C196.505 138.403 195.999 138.719 195.383 138.969C194.766 139.22 194.027 139.346 193.166 139.346ZM193.827 136.905C194.667 136.905 195.386 136.739 195.982 136.407C196.586 136.075 197.043 135.641 197.355 135.105C197.674 134.563 197.833 133.983 197.833 133.366V131.353C197.725 131.461 197.515 131.563 197.203 131.658C196.898 131.746 196.549 131.824 196.155 131.892C195.762 131.953 195.379 132.01 195.006 132.065C194.633 132.112 194.322 132.153 194.071 132.187C193.481 132.261 192.942 132.387 192.454 132.563C191.972 132.739 191.586 132.993 191.295 133.326C191.01 133.651 190.867 134.085 190.867 134.627C190.867 135.38 191.145 135.949 191.701 136.336C192.257 136.715 192.966 136.905 193.827 136.905Z" fill="white"/>
<defs>
<linearGradient id="paint0_linear_417_5688" x1="397" y1="161" x2="141" y2="161" gradientUnits="userSpaceOnUse">
<stop stop-color="#3B44FF"/>
<stop offset="1" stop-color="#232999"/>
</linearGradient>
<clipPath id="clip0_417_5688">
<rect width="31.8182" height="31.8182" fill="white" transform="translate(52 112.591)"/>
</clipPath>
</defs>
</svg>
